<?xml version="1.0" encoding="UTF-8" standalone="no"?>
<!-- Created with Inkscape (http://www.inkscape.org/) -->

<svg
   xmlns:dc="http://purl.org/dc/elements/1.1/"
   xmlns:cc="http://creativecommons.org/ns#"
   xmlns:rdf="http://www.w3.org/1999/02/22-rdf-syntax-ns#"
   xmlns:svg="http://www.w3.org/2000/svg"
   xmlns="http://www.w3.org/2000/svg"
   xmlns:sodipodi="http://sodipodi.sourceforge.net/DTD/sodipodi-0.dtd"
   xmlns:inkscape="http://www.inkscape.org/namespaces/inkscape"
   version="1.1"
   id="svg16"
   width="177.02838"
   height="58.139057"
   viewBox="0 0 177.02838 58.139057"
   sodipodi:docname="2bytes1.svg"
   inkscape:version="0.92.1 r15371">
  <metadata
     id="metadata22">
    <rdf:RDF>
      <cc:Work
         rdf:about="">
        <dc:format>image/svg+xml</dc:format>
        <dc:type
           rdf:resource="http://purl.org/dc/dcmitype/StillImage" />
        <dc:title></dc:title>
      </cc:Work>
    </rdf:RDF>
  </metadata>
  <defs
     id="defs20" />
  <sodipodi:namedview
     pagecolor="#ffffff"
     bordercolor="#666666"
     borderopacity="1"
     objecttolerance="10"
     gridtolerance="10"
     guidetolerance="10"
     inkscape:pageopacity="0"
     inkscape:pageshadow="2"
     inkscape:window-width="640"
     inkscape:window-height="480"
     id="namedview18"
     showgrid="false"
     fit-margin-top="0"
     fit-margin-left="0"
     fit-margin-right="0"
     fit-margin-bottom="0"
     inkscape:zoom="2.0293965"
     inkscape:cx="87.272129"
     inkscape:cy="24.849092"
     inkscape:window-x="0"
     inkscape:window-y="0"
     inkscape:window-maximized="0"
     inkscape:current-layer="svg16" />
  <path
     style="fill:#fefefe;stroke-width:1.33333337"
     d="m 168.16558,52.472386 c 0.18215,-5.35863 0.40906,-5.66667 4.17435,-5.66667 4.34508,0 5.54933,2.37443 4.11093,8.10546 -0.62212,2.47873 -1.69993,3.22788 -4.64402,3.22788 -3.65178,0 -3.82472,-0.26917 -3.64126,-5.66667 z m 5.05928,-1.66667 c 0,-0.69666 -0.645,-1.48166 -1.43333,-1.74444 -0.78833,-0.26278 -1.43333,0.52222 -1.43333,1.74444 0,1.22223 0.645,2.00723 1.43333,1.74445 0.78833,-0.26278 1.43333,-1.04778 1.43333,-1.74445 z M 3.004567,52.741736 c -0.47667,-1.50186 -0.119613,-3.63081 0.793476,-4.73101 1.910844,-2.30243 6.754735,-2.00425 7.568246,0.46588 0.328844,0.9985 -0.433954,1.53505 -1.895564,1.33333 -1.345218,-0.18565 -2.74585,0.26245 -3.112516,0.99578 -0.366667,0.73334 0.683333,1.52507 2.333333,1.7594 4.383835,0.62261 3.668597,2.90727 -0.910149,2.90727 -2.76968,0 -4.162934,-0.79645 -4.776826,-2.73065 z m 20,0 c -1.782496,-5.61615 5.874188,-9.19176 8.635282,-4.03261 2.05021,3.83086 0.315416,6.76326 -4.001108,6.76326 -2.625914,0 -4.030108,-0.82741 -4.634174,-2.73065 z m 6.630035,-1.17722 c 0.986055,-1.59547 -1.522167,-3.1763 -3.298143,-2.07869 -1.491144,0.92158 -0.512222,3.31989 1.355083,3.31989 0.646775,0 1.521152,-0.55854 1.94306,-1.2412 z m 14.05694,-0.7588 c 0,-4.25794 0.337839,-4.66666 3.857348,-4.66666 3.922143,0 5.475985,1.92264 5.475985,6.77571 0,3.4157 -2.367409,3.2839 -2.907265,-0.16186 -0.234337,-1.49572 -1.026068,-2.71948 -1.759401,-2.71948 -0.733334,0 -1.525064,1.22376 -1.759402,2.71948 -0.708393,4.52149 -2.907265,3.04877 -2.907265,-1.94719 z m 20,3.44445 c 0,-0.67222 0.75,-1.52486 1.666667,-1.89474 1.333333,-0.53801 1.333333,-0.69357 0,-0.77778 -2.021082,-0.12764 -2.216035,-3.60835 -0.269484,-4.81139 0.76845,-0.47493 2.401636,-0.47806 3.6293,-0.007 1.921064,0.73718 1.958617,1.02951 0.269484,2.09773 -1.328251,0.84 -1.423916,1.24779 -0.295967,1.26161 0.916667,0.0112 1.666667,1.22039 1.666667,2.68706 0,1.95555 -0.88889,2.66666 -3.333334,2.66666 -1.833333,-3e-5 -3.333333,-0.55003 -3.333333,-1.22225 z m 18.222223,0.33333 c -1.32589,-1.32589 -1.073323,-6.83975 0.3537,-7.72169 0.683422,-0.42238 1.433422,0.76086 1.666666,2.62943 0.54751,4.38623 2.96518,4.40179 3.51264,0.0226 0.633761,-5.06952 2.911433,-4.05885 2.911433,1.29188 0,4.2353 -0.3492,4.66667 -3.777773,4.66667 -2.077778,0 -4.177778,-0.4 -4.666666,-0.88889 z m 20.825785,-5.11111 c 0.01,-3.66667 0.26895,-5.00842 0.57542,-2.98167 0.30647,2.02675 0.29828,5.02675 -0.0182,6.66667 -0.31648,1.63992 -0.56723,-0.0183 -0.55722,-3.685 z m 13.94621,1.66667 c -0.9563,-6.45718 0.11084,-8.28654 3.20202,-5.48906 1.94386,1.75916 2.13824,2.53883 0.83526,3.35021 -1.36758,0.85161 -1.37151,1.58454 -0.0202,3.76483 1.46191,2.35877 1.35265,2.70735 -0.84867,2.70735 -1.83003,0 -2.70357,-1.19472 -3.1684,-4.33333 z m 16.3391,-1.66667 c 0,-3.3 0.6,-6 1.33334,-6 0.73333,0 1.33333,2.7 1.33333,6 0,3.3 -0.6,6 -1.33333,6 -0.73334,0 -1.33334,-2.7 -1.33334,-6 z m 14.66667,1.24477 c 0,-4.40091 0.27321,-4.72379 3.66667,-4.33333 3.05526,0.35154 3.73633,1.14445 4.08448,4.75523 0.23468,2.43407 -0.2036,4.33333 -1,4.33333 -0.7798,0 -1.41782,-1.5 -1.41782,-3.33333 0,-1.83334 -0.6,-3.33334 -1.33333,-3.33334 -0.73333,0 -1.33333,1.5 -1.33333,3.33334 0,1.83333 -0.6,3.33333 -1.33334,3.33333 -0.73333,0 -1.33333,-2.13985 -1.33333,-4.75523 z M 98.864874,36.202906 c -1.04956,-2.73511 0.51735,-4.73052 3.714666,-4.73052 1.67051,0 2.45773,-0.64706 2.0277,-1.66667 C 96.195704,9.8616513 96.042324,8.8057173 101.55681,8.8057173 c 2.36585,0 3.43211,1.184392 4.80139,5.3333337 0.96808,2.933333 2.24004,5.333333 2.82655,5.333333 0.58652,0 1.78546,-2.4 2.66431,-5.333333 1.44113,-4.8100587 2.02596,-5.3333337 5.96079,-5.3333337 3.50933,0 4.44623,-0.586912 4.78895,-3 0.5842,-4.113477 5.60126,-4.113477 6.18546,0 0.27382,1.927943 1.34587,3 3,3 3.55203,0 3.47306,5.3478587 -0.0928,6.2803347 -3.88057,1.014794 -3.78789,9.115444 0.116,10.136324 3.23512,0.846 3.04312,4.56764 -0.34574,6.70163 -1.58414,0.99754 -3.22496,0.95068 -5.66667,-0.16184 -3.09852,-1.41179 -3.43685,-2.3016 -3.43685,-9.03897 0,-9.868093 -2.0584,-9.042357 -7.0596,2.83199 -2.14286,5.08779 -4.50454,10.00053 -5.24818,10.9172 -1.89518,2.33613 -10.263036,2.13453 -11.185546,-0.26948 z M 6.358209,31.820526 c -3.237128,-1.21067 -3.95799,-3.24615 -3.979583,-11.237031 -0.012,-4.43876 -0.645376,-7.763875 -1.53540399,-8.060551 -1.093625,-0.364541 -1.120696,-1.229833 -0.09733,-3.1111107 C 1.525603,7.9784693 2.507663,5.7058233 2.928247,4.3615073 c 0.996564,-3.185325 3.976248,-2.16503 4.522697,1.548648 0.411214,2.794609 0.978579,3.014653 8.834447,3.426309 1.883744,0.09871 3.134145,1.8697647 4.567424,6.4692537 1.085467,3.483333 2.390257,6.333338 2.899537,6.333338 0.509279,0 1.686243,-2.715461 2.615475,-6.034353 2.780955,-9.9325987 5.680752,-9.3924217 9.438993,1.758305 l 2.115278,6.276048 2.320002,-6.984322 c 2.415492,-7.2717887 4.210552,-9.4545737 6.166584,-7.4985417 1.288699,1.2886987 -5.089674,20.6051337 -7.295538,22.0940037 -2.031692,1.37131 -3.811439,-0.90441 -6.162639,-7.88004 l -2.07437,-6.154308 -2.740194,7.211598 c -1.507105,3.96639 -3.558401,7.21161 -4.558434,7.21161 -1.039086,0 -3.272392,-3.99954 -5.211654,-9.33334 -2.968528,-8.164721 -3.849225,-9.386157 -7.033862,-9.755228 -3.579574,-0.414841 -3.640451,-0.297784 -3.640451,7 0,6.457788 0.336181,7.421898 2.587977,7.421898 2.344764,0 5.021526,2.24721 3.878871,3.2564 -1.232608,1.08865 -6.017695,1.75838 -7.800181,1.09174 z m 48.475998,-0.28646 C 47.475815,28.434646 45.431569,18.30033 50.96121,12.333748 c 4.707139,-5.0790867 11.600913,-4.8625767 16.997315,0.533824 3.496353,3.496354 3.952089,4.738259 3.273438,8.920294 -0.433628,2.67214 -1.8597,5.92972 -3.169048,7.23907 -2.908777,2.90878 -9.368582,4.13305 -13.228708,2.50713 z m 9.924002,-5.66168 c 3.819116,-3.819118 0.154482,-13.066669 -5.178079,-13.066669 -3.478141,0 -6.555255,3.674825 -6.555255,7.828573 0,4.569826 2.2114,6.838096 6.666667,6.838096 1.906667,0 4.186667,-0.72 5.066667,-1.6 z m 9.933333,6.05029 c -1.195447,-0.48237 -1.666667,-4.93599 -1.666667,-15.752085 0,-12.6962637 0.342807,-15.21111767 2.168998,-15.91189267 2.900516,-1.113032 5.831002,1.50336397 5.831002,5.20603297 0,2.632116 0.650983,2.982092 5.319242,2.859685 7.454907,-0.195475 11.125197,3.6721437 11.125197,11.7233537 0,9.300096 -6.44043,14.467736 -14.304705,11.477746 -2.162488,-0.82218 -3.66395,-0.82297 -4.17122,-0.002 -0.85134,1.37741 -1.685767,1.45487 -4.301847,0.39926 z M 90.358204,20.370722 c 0,-0.745266 -0.97551,-2.432967 -2.167822,-3.750446 -2.842973,-3.141456 -7.165507,-1.030453 -7.165507,3.499434 0,4.405206 3.93202,6.494166 6.999167,3.718436 1.283792,-1.16182 2.334162,-2.722158 2.334162,-3.467424 z m 51.333326,10.962314 c -1.46667,-0.83903 -3.41667,-2.4656 -4.33333,-3.61459 -1.75354,-2.19796 -2.24538,-10.51989 -0.83843,-14.186326 1.30824,-3.409204 8.17852,-6.3433447 12.58616,-5.3752627 7.11171,1.561992 12.44685,12.4710107 7.10211,14.5219887 -1.77431,0.68086 -1.8526,1.18365 -0.44788,2.87623 1.39234,1.67768 1.34218,2.41126 -0.27551,4.02895 -2.64803,2.64803 -10.48456,3.64173 -13.79312,1.74901 z m 9.33333,-6.52732 c 2.12948,-0.91506 1.64359,-1.16478 -2.41202,-1.23962 -3.06648,-0.0566 -4.7522,0.43456 -4.25464,1.23962 0.97325,1.57475 3.00202,1.57475 6.66666,0 z m -2.253,-8.82443 c -1.18677,-1.186772 -2.81534,-1.751362 -3.61905,-1.254644 -2.64757,1.636292 -1.52448,3.412409 2.15777,3.412409 3.33454,0 3.44942,-0.169633 1.46128,-2.157765 z m 13.89011,15.43862 c -3.61239,-1.45088 -5.22185,-4.8961 -3.22167,-6.8963 1.02604,-1.02604 2.61194,-0.94919 5.55314,0.26909 6.02682,2.4964 6.38509,0.72941 0.44082,-2.17416 -4.02925,-1.96815 -5.15885,-3.327809 -5.47749,-6.593052 -0.52175,-5.346741 2.56124,-7.8720527 9.39184,-7.6929477 5.18331,0.135912 7.61455,1.9281287 7.65584,5.6435917 0.0157,1.41334 -1.27511,1.629916 -5.5962,0.938946 -6.22555,-0.995506 -6.10691,-0.297456 0.51112,3.00737 3.41509,1.705386 4.53299,3.186474 4.84708,6.421852 0.65875,6.78532 -6.22689,10.23955 -14.10448,7.07561 z"
     id="path26"
     inkscape:connector-curvature="0" />
</svg>
