<?xml version="1.0" encoding="UTF-8" standalone="no"?>
<!-- Created with Inkscape (http://www.inkscape.org/) -->

<svg
   xmlns:dc="http://purl.org/dc/elements/1.1/"
   xmlns:cc="http://creativecommons.org/ns#"
   xmlns:rdf="http://www.w3.org/1999/02/22-rdf-syntax-ns#"
   xmlns:svg="http://www.w3.org/2000/svg"
   xmlns="http://www.w3.org/2000/svg"
   xmlns:sodipodi="http://sodipodi.sourceforge.net/DTD/sodipodi-0.dtd"
   xmlns:inkscape="http://www.inkscape.org/namespaces/inkscape"
   version="1.1"
   id="svg10"
   width="177.0284"
   height="58.139053"
   viewBox="0 0 177.0284 58.139053"
   sodipodi:docname="2bytes.svg"
   inkscape:version="0.92.1 r15371">
  <metadata
     id="metadata16">
    <rdf:RDF>
      <cc:Work
         rdf:about="">
        <dc:format>image/svg+xml</dc:format>
        <dc:type
           rdf:resource="http://purl.org/dc/dcmitype/StillImage" />
        <dc:title></dc:title>
      </cc:Work>
    </rdf:RDF>
  </metadata>
  <defs
     id="defs14" />
  <sodipodi:namedview
     pagecolor="#ffffff"
     bordercolor="#666666"
     borderopacity="1"
     objecttolerance="10"
     gridtolerance="10"
     guidetolerance="10"
     inkscape:pageopacity="0"
     inkscape:pageshadow="2"
     inkscape:window-width="1366"
     inkscape:window-height="746"
     id="namedview12"
     showgrid="false"
     fit-margin-top="0"
     fit-margin-left="0"
     fit-margin-right="0"
     fit-margin-bottom="0"
     inkscape:zoom="3"
     inkscape:cx="74.75776"
     inkscape:cy="23.542435"
     inkscape:window-x="-8"
     inkscape:window-y="-8"
     inkscape:window-maximized="1"
     inkscape:current-layer="svg10" />
  <path
     style="fill:#000000;stroke-width:1.33333337"
     d=""
     id="path20"
     inkscape:connector-curvature="0" />
  <path
     style="fill:#fefefe;stroke-width:1.33333337"
     d="m 168.16559,52.472385 c 0.18215,-5.358632 0.40906,-5.666667 4.17435,-5.666667 4.34508,0 5.54933,2.374425 4.11093,8.105461 -0.62212,2.478724 -1.69993,3.227873 -4.64402,3.227873 -3.65178,0 -3.82472,-0.269163 -3.64126,-5.666667 z m 5.05928,-1.666666 c 0,-0.696667 -0.645,-1.481667 -1.43333,-1.744444 -0.78833,-0.262779 -1.43333,0.522221 -1.43333,1.744444 0,1.222222 0.645,2.007222 1.43333,1.744444 0.78833,-0.262778 1.43333,-1.047778 1.43333,-1.744444 z M 3.0045613,52.741735 c -0.47667,-1.501858 -0.11961,-3.630812 0.79348,-4.73101 1.91084,-2.302425 6.7547297,-2.004252 7.5682497,0.465876 0.32884,0.9985 -0.43396,1.53505 -1.8955697,1.333334 -1.34522,-0.185652 -2.74585,0.26245 -3.11251,0.995784 -0.36667,0.733333 0.68333,1.525064 2.33333,1.759401 4.3838297,0.622604 3.6685997,2.907265 -0.91015,2.907265 -2.76968,0 -4.16293,-0.796446 -4.77683,-2.73065 z m 19.9999997,0 c -1.78249,-5.616149 5.87419,-9.191758 8.63529,-4.032606 2.05021,3.830854 0.31541,6.763256 -4.00111,6.763256 -2.62592,0 -4.03011,-0.82741 -4.63418,-2.73065 z m 6.63004,-1.177219 c 0.98605,-1.595469 -1.52217,-3.176303 -3.29814,-2.078689 -1.49115,0.921578 -0.51223,3.319892 1.35508,3.319892 0.64677,0 1.52115,-0.558542 1.94306,-1.241203 z m 14.05694,-0.758797 c 0,-4.257946 0.33784,-4.666667 3.85735,-4.666667 3.92214,0 5.47598,1.922648 5.47598,6.775716 0,3.415701 -2.36741,3.283893 -2.90726,-0.161864 -0.23434,-1.495715 -1.02607,-2.719481 -1.7594,-2.719481 -0.73334,0 -1.52507,1.223766 -1.75941,2.719481 -0.70839,4.521495 -2.90726,3.048767 -2.90726,-1.947185 z m 20,3.444444 c 0,-0.672222 0.75,-1.524854 1.66667,-1.894736 1.33333,-0.538012 1.33333,-0.693568 0,-0.777779 -2.02109,-0.12764 -2.21604,-3.608356 -0.26949,-4.811391 0.76845,-0.474928 2.40164,-0.478061 3.6293,-0.0069 1.92107,0.737181 1.95862,1.029508 0.26949,2.097733 -1.32826,0.84 -1.42392,1.24779 -0.29597,1.261607 0.91667,0.0112 1.66667,1.220388 1.66667,2.687055 0,1.955556 -0.88889,2.666666 -3.33334,2.666666 -1.83333,0 -3.33333,-0.55 -3.33333,-1.222222 z m 18.22222,0.333333 c -1.32589,-1.325889 -1.07332,-6.839747 0.3537,-7.721695 0.68342,-0.422379 1.43342,0.760865 1.66667,2.629431 0.54751,4.386231 2.965183,4.401789 3.512643,0.0226 0.63376,-5.069514 2.91144,-4.05885 2.91144,1.291887 0,4.235294 -0.34921,4.666666 -3.77778,4.666666 -2.077783,0 -4.177783,-0.4 -4.666673,-0.888889 z m 20.825799,-5.111111 c 0.01,-3.666667 0.26895,-5.008417 0.57542,-2.981667 0.30647,2.02675 0.29828,5.02675 -0.0182,6.666667 -0.31648,1.639916 -0.56723,-0.01833 -0.55722,-3.685 z m 13.94621,1.666667 c -0.9563,-6.457179 0.11084,-8.286536 3.20202,-5.48906 1.94386,1.75916 2.13824,2.538829 0.83526,3.350212 -1.36758,0.851612 -1.37151,1.584545 -0.0202,3.764831 1.46191,2.358766 1.35265,2.70735 -0.84867,2.70735 -1.83003,0 -2.70357,-1.194722 -3.1684,-4.333333 z m 16.3391,-1.666667 c 0,-3.3 0.6,-6 1.33334,-6 0.73333,0 1.33333,2.7 1.33333,6 0,3.3 -0.6,6 -1.33333,6 -0.73334,0 -1.33334,-2.7 -1.33334,-6 z m 14.66667,1.244771 c 0,-4.400914 0.27321,-4.723795 3.66667,-4.333334 3.05526,0.351548 3.73633,1.144452 4.08448,4.75523 0.23468,2.434075 -0.2036,4.333333 -1,4.333333 -0.7798,0 -1.41782,-1.5 -1.41782,-3.333333 0,-1.833333 -0.6,-3.333333 -1.33333,-3.333333 -0.73333,0 -1.33333,1.5 -1.33333,3.333333 0,1.833333 -0.6,3.333333 -1.33334,3.333333 -0.73333,0 -1.33333,-2.139853 -1.33333,-4.755229 z M 98.864884,36.202901 c -1.04956,-2.735108 0.51734,-4.730516 3.714666,-4.730516 1.67051,0 2.45773,-0.647055 2.0277,-1.666667 C 96.195714,9.8616513 96.042334,8.8057173 101.55682,8.8057173 c 2.36585,0 3.43211,1.184392 4.80139,5.3333337 0.96808,2.933333 2.24003,5.333333 2.82655,5.333333 0.58652,0 1.78546,-2.4 2.66431,-5.333333 1.44113,-4.8100587 2.02596,-5.3333337 5.96079,-5.3333337 3.50933,0 4.44623,-0.586912 4.78895,-3 0.5842,-4.113477 5.60126,-4.113477 6.18546,0 0.27382,1.927943 1.34587,3 3,3 3.55203,0 3.47306,5.3478587 -0.0928,6.2803347 -3.88057,1.014794 -3.78789,9.11544 0.116,10.136323 3.23512,0.846003 3.04312,4.567644 -0.34574,6.701631 -1.58414,0.997537 -3.22496,0.950676 -5.66667,-0.161837 -3.09852,-1.411794 -3.43685,-2.3016 -3.43685,-9.038978 0,-9.868088 -2.0584,-9.042352 -7.0596,2.831996 -2.14286,5.087792 -4.50455,10.000531 -5.24819,10.917198 -1.89517,2.336135 -10.263036,2.134535 -11.185536,-0.269484 z M 6.3582113,31.820526 c -3.23713,-1.210673 -3.95799,-3.246147 -3.97959,-11.237031 -0.012,-4.43876 -0.64537,-7.763875 -1.53540002,-8.060551 -1.09363,-0.364541 -1.1207,-1.229833 -0.0973,-3.1111107 0.77971002,-1.433364 1.76177002,-3.70601 2.18235002,-5.050326 0.99657,-3.185325 3.97625,-2.16503 4.5227,1.548648 0.41121,2.794609 0.97858,3.014653 8.8344497,3.426309 1.88374,0.09871 3.13414,1.8697647 4.56742,6.4692537 1.08547,3.483333 2.39026,6.333333 2.89954,6.333333 0.50928,0 1.68624,-2.715456 2.61547,-6.034348 2.78096,-9.9325987 5.68076,-9.3924217 9.439,1.758305 l 2.11527,6.276043 2.32001,-6.984317 c 2.41549,-7.2717887 4.21055,-9.4545737 6.16658,-7.4985417 1.2887,1.2886987 -5.08967,20.6051347 -7.29554,22.0940047 -2.03169,1.37131 -3.81144,-0.904416 -6.16264,-7.880038 l -2.07437,-6.154311 -2.74019,7.211602 c -1.5071,3.966381 -3.5584,7.211601 -4.55843,7.211601 -1.03909,0 -3.2724,-3.999536 -5.21166,-9.333333 -2.96852,-8.164723 -3.84922,-9.386159 -7.03386,-9.75523 -3.5795697,-0.414841 -3.6404497,-0.297784 -3.6404497,7 0,6.457785 0.33618,7.421897 2.5879797,7.421897 2.34476,0 5.02152,2.247206 3.87887,3.256404 -1.23261,1.088645 -6.0176997,1.75838 -7.8001797,1.091737 z M 54.834201,31.534069 c -7.35839,-3.099423 -9.40263,-13.233739 -3.87299,-19.200321 4.70714,-5.0790867 11.60091,-4.8625767 16.99731,0.533824 3.49635,3.496354 3.95209,4.738259 3.27344,8.920294 -0.43363,2.672141 -1.8597,5.929724 -3.16905,7.239072 -2.90878,2.908777 -9.36858,4.133052 -13.22871,2.507131 z m 9.92401,-5.661685 c 3.81911,-3.819116 0.15448,-13.066667 -5.17808,-13.066667 -3.47814,0 -6.55526,3.674825 -6.55526,7.828573 0,4.569829 2.2114,6.838095 6.66667,6.838095 1.90667,0 4.18667,-0.72 5.06667,-1.600001 z m 9.93333,6.050293 c -1.19545,-0.482374 -1.66667,-4.935992 -1.66667,-15.752086 0,-12.6962647 0.34281,-15.21111767 2.169,-15.91189267 2.90052,-1.113032 5.831,1.50336397 5.831,5.20603297 0,2.632116 0.65098,2.982092 5.319243,2.859685 7.45492,-0.195475 11.12521,3.6721437 11.12521,11.7233537 0,9.300097 -6.44043,14.467736 -14.304713,11.477741 -2.16249,-0.822177 -3.66395,-0.822961 -4.17122,-0.0021 -0.85134,1.377449 -1.68577,1.454911 -4.30185,0.399299 z M 90.358214,20.370722 c 0,-0.745266 -0.97552,-2.432967 -2.16783,-3.750446 -2.842973,-3.141456 -7.165513,-1.030453 -7.165513,3.499434 0,4.405204 3.93202,6.494163 6.999173,3.718436 1.28379,-1.161818 2.33417,-2.722158 2.33417,-3.467424 z m 51.333326,10.962315 c -1.46667,-0.839034 -3.41667,-2.465599 -4.33333,-3.61459 -1.75354,-2.197959 -2.24538,-10.519891 -0.83843,-14.186327 1.30824,-3.409204 8.17852,-6.3433447 12.58616,-5.3752627 7.11171,1.561992 12.44685,12.4710107 7.10211,14.5219857 -1.77431,0.680864 -1.8526,1.183651 -0.44788,2.876236 1.39234,1.677675 1.34218,2.411254 -0.27551,4.028943 -2.64803,2.648035 -10.48456,3.641733 -13.79312,1.749015 z m 9.33333,-6.527319 c 2.12948,-0.915067 1.64359,-1.164784 -2.41202,-1.23962 -3.06648,-0.05658 -4.7522,0.434558 -4.25464,1.23962 0.97325,1.574752 3.00202,1.574752 6.66666,0 z m -2.253,-8.824432 c -1.18677,-1.186772 -2.81534,-1.751362 -3.61905,-1.254644 -2.64757,1.636292 -1.52448,3.412409 2.15777,3.412409 3.33454,0 3.44942,-0.169633 1.46128,-2.157765 z m 13.89011,15.438616 c -3.61239,-1.450876 -5.22185,-4.8961 -3.22167,-6.896295 1.02604,-1.02604 2.61194,-0.949191 5.55314,0.269093 6.02682,2.496393 6.38509,0.729407 0.44082,-2.174162 -4.02925,-1.968152 -5.15885,-3.327811 -5.47749,-6.593054 -0.52175,-5.346741 2.56124,-7.8720527 9.39184,-7.6929477 5.18331,0.135912 7.61455,1.9281287 7.65584,5.6435917 0.0157,1.41334 -1.27511,1.629916 -5.5962,0.938946 -6.22555,-0.995506 -6.10691,-0.297457 0.51112,3.00737 3.41509,1.705386 4.53299,3.186474 4.84708,6.421855 0.65875,6.785315 -6.22689,10.239542 -14.10448,7.075603 z"
     id="path33"
     inkscape:connector-curvature="0" />
</svg>
