<?xml version="1.0" encoding="UTF-8" standalone="no"?>
<!-- Created with Inkscape (http://www.inkscape.org/) -->

<svg
   xmlns:dc="http://purl.org/dc/elements/1.1/"
   xmlns:cc="http://creativecommons.org/ns#"
   xmlns:rdf="http://www.w3.org/1999/02/22-rdf-syntax-ns#"
   xmlns:svg="http://www.w3.org/2000/svg"
   xmlns="http://www.w3.org/2000/svg"
   xmlns:sodipodi="http://sodipodi.sourceforge.net/DTD/sodipodi-0.dtd"
   xmlns:inkscape="http://www.inkscape.org/namespaces/inkscape"
   width="216.38185mm"
   height="57.280712mm"
   viewBox="0 0 216.38185 57.280712"
   version="1.1"
   id="svg8"
   inkscape:version="0.92.1 r15371"
   sodipodi:docname="like.svg">
  <defs
     id="defs2" />
  <sodipodi:namedview
     id="base"
     pagecolor="#ffffff"
     bordercolor="#666666"
     borderopacity="1.0"
     inkscape:pageopacity="0.0"
     inkscape:pageshadow="2"
     inkscape:zoom="0.98994949"
     inkscape:cx="273.78412"
     inkscape:cy="50.960627"
     inkscape:document-units="mm"
     inkscape:current-layer="layer1"
     showgrid="false"
     fit-margin-top="0"
     fit-margin-left="0"
     fit-margin-right="0"
     fit-margin-bottom="0"
     inkscape:window-width="1920"
     inkscape:window-height="1017"
     inkscape:window-x="-8"
     inkscape:window-y="-8"
     inkscape:window-maximized="1" />
  <metadata
     id="metadata5">
    <rdf:RDF>
      <cc:Work
         rdf:about="">
        <dc:format>image/svg+xml</dc:format>
        <dc:type
           rdf:resource="http://purl.org/dc/dcmitype/StillImage" />
        <dc:title></dc:title>
      </cc:Work>
    </rdf:RDF>
  </metadata>
  <g
     inkscape:label="Layer 1"
     inkscape:groupmode="layer"
     id="layer1"
     transform="translate(0.52340042,-22.187052)">
    <g
       id="g3702"
       transform="translate(-4.5055932,16.203866)">
      <path
         style="fill:#e9eaf0;stroke-width:0.35277778"
         d="m 41.058264,63.171371 c 15.070395,-0.0509 39.835394,-0.05091 55.033332,-1.4e-5 15.197934,0.05089 2.867614,0.09254 -27.400718,0.09254 -30.268333,1.1e-5 -42.703009,-0.04163 -27.632614,-0.09253 z m -34.8425702,-4.762539 -0.6720373,-0.79375 0.79375,0.672038 c 0.7459291,0.63155 0.9543488,0.915462 0.6720372,0.915462 -0.066942,0 -0.4241295,-0.357187 -0.7937499,-0.79375 z M 10.129768,57.649474 C 8.8034487,57.064022 8.0148087,56.187214 7.3209996,54.526696 6.854681,53.410638 6.7783787,50.458953 6.7783787,33.535885 V 13.84375 l 0.79375,-1.571209 C 8.0086912,11.408377 8.9052924,10.342864 9.5645762,9.9047356 L 10.763274,9.1081384 h 55.251248 c 53.124848,0 55.298558,0.025173 56.480468,0.6540856 0.67607,0.359747 1.5838,1.272559 2.01717,2.028472 l 0.78794,1.374387 0.006,20.413078 c 0.006,20.143588 -0.004,20.430629 -0.74134,21.74244 -0.41093,0.73115 -1.34536,1.665577 -2.07651,2.076503 l -1.32934,0.747145 -54.985298,-0.01381 C 21.332427,58.11918 10.992847,58.030446 10.129768,57.649474 Z M 31.973137,46.994005 c 0.30691,-0.117771 0.558019,-0.596152 0.558019,-1.063067 0,-0.838744 0.01534,-0.842525 1.277805,-0.315034 0.987609,0.412647 2.788991,0.533901 7.931935,0.533901 h 6.65413 l 1.122694,-1.003128 c 0.850332,-0.759774 1.121036,-1.294666 1.115857,-2.204861 -0.0037,-0.660954 0.20791,-1.51487 0.470373,-1.89759 0.262463,-0.382721 0.477206,-1.276096 0.477206,-1.985277 0,-0.738406 0.235426,-1.484806 0.550919,-1.746641 0.328901,-0.272965 0.514208,-0.894583 0.459828,-1.542502 -0.05061,-0.60301 0.198053,-1.524251 0.559586,-2.073125 0.581498,-0.882811 0.605,-1.191978 0.221037,-2.907709 -0.618021,-2.761604 -1.075722,-2.983612 -6.15115,-2.983612 h -4.202789 l 0.212386,-1.54953 c 0.316498,-2.309089 -1.469207,-8.286854 -2.723346,-9.116595 -0.69609,-0.460535 -3.210824,-0.285777 -4.01742,0.279185 -0.688347,0.482137 -0.784051,0.863224 -0.784051,3.122054 0,2.53035 -0.03443,2.627703 -2.0828,5.889024 l -2.082801,3.31614 -5.994677,0.09637 c -4.762441,0.07656 -6.083317,0.203174 -6.425903,0.615965 -0.337584,0.406764 -0.342833,1.649868 -0.02417,5.724465 0.812956,10.395012 0.636379,9.597339 2.287142,10.331981 1.129748,0.502772 2.387575,0.649344 5.739498,0.6688 2.360971,0.01369 4.543784,-0.07144 4.850695,-0.189213 z M 44.101036,42.63013 c 0.467885,-0.817682 0.512829,-1.191951 0.20296,-1.69028 -0.31683,-0.509526 -0.256949,-0.814228 0.293624,-1.49416 0.464583,-0.573735 0.64008,-1.205259 0.534617,-1.923821 -0.08897,-0.606212 0.07005,-1.416235 0.367009,-1.869454 0.307093,-0.468682 0.444366,-1.199631 0.331607,-1.765759 -0.112677,-0.565736 0.01556,-1.249768 0.309506,-1.650805 0.276049,-0.376633 0.501908,-1.138271 0.501908,-1.692528 v -1.007741 l 2.204861,0.105028 c 2.092357,0.09967 2.210389,0.152789 2.313196,1.041056 0.07586,0.65543 -0.13407,1.105814 -0.700282,1.502407 -0.702871,0.492309 -0.75008,0.660121 -0.360969,1.283183 0.480585,0.76954 0.368032,1.123591 -0.752948,2.368471 -0.554732,0.616045 -0.623327,0.894053 -0.300299,1.217083 0.642568,0.642566 0.504878,1.28174 -0.490541,2.277159 -0.649615,0.649614 -0.800699,1.01771 -0.529166,1.289242 1.210073,1.210075 -0.605543,3.061149 -3.00252,3.061149 H 43.500082 Z M 31.120045,37.372 c 0,-2.910417 0.143818,-5.380551 0.319595,-5.489188 0.184714,-0.114159 0.339563,2.023432 0.366906,5.064907 0.02979,3.313736 -0.08855,5.346397 -0.319595,5.489188 -0.247794,0.153144 -0.366906,-1.491121 -0.366906,-5.064907 z m 5.893565,-8.187309 c -0.777501,-0.458722 -0.609417,-1.079555 1.066436,-3.938963 1.264064,-2.156795 1.35689,-3.07485 0.588355,-5.81884 -0.161476,-0.576538 -0.07318,-0.79375 0.322652,-0.79375 0.337831,0 0.82277,0.742501 1.275867,1.953512 0.850907,2.274255 0.86995,2.631526 0.329515,6.182606 l -0.406047,2.668063 -1.271977,0.06037 c -0.699587,0.0332 -1.556748,-0.107645 -1.904801,-0.312995 z m 74.53977,16.267354 c 0.68175,-0.178329 0.90784,-0.496481 0.99604,-1.401653 0.0921,-0.945525 0.007,-1.12995 -0.44097,-0.957957 -0.41637,0.15978 -0.55507,-0.01404 -0.55507,-0.695611 0,-0.721169 -0.12737,-0.859335 -0.61736,-0.669734 -3.49441,1.35214 -6.45081,0.967196 -7.11073,-0.925862 -0.72899,-2.091191 -0.79309,-2.059757 4.20031,-2.059757 h 4.58611 l -0.002,-1.499305 c -0.003,-2.320291 -0.63285,-4.064976 -2.02332,-5.604057 -1.67679,-1.856013 -2.85168,-2.421638 -5.03012,-2.421638 -3.98127,0 -6.441929,2.887445 -6.48592,7.61087 -0.03016,3.239064 1.02135,5.418561 3.45899,7.169521 2.695,1.935818 5.47369,2.383896 9.02416,1.455183 z m -7.76111,-10.562277 c 0,-0.795923 0.51395,-1.505194 1.43634,-1.982177 1.50342,-0.777448 2.41008,-0.65181 2.80572,0.388791 0.6722,1.768014 0.52043,1.917312 -1.94901,1.917312 -1.26118,0 -2.29305,-0.145767 -2.29305,-0.323926 z m -27.869448,9.672537 c 0,-0.862345 -0.15959,-1.234723 -0.529167,-1.234723 -0.291041,0 -0.529166,-0.238125 -0.529166,-0.529166 0,-0.439695 -0.685956,-0.529167 -4.056945,-0.529167 H 66.7506 v -8.466667 c 0,-7.29074 -0.07349,-8.466666 -0.529167,-8.466666 -0.29398,0 -0.529166,-0.31358 -0.529166,-0.705556 0,-0.601029 -0.235187,-0.705555 -1.5875,-0.705555 h -1.5875 v 10.406944 c 0,10.171758 0.01595,10.406944 0.705555,10.406944 0.391975,0 0.705556,0.235187 0.705556,0.529167 0,0.449619 0.901544,0.529167 5.997222,0.529167 h 5.997222 z m 5.644444,-6.35 c 0,-6.50679 -0.0752,-7.584722 -0.529166,-7.584722 -0.291042,0 -0.529167,-0.238125 -0.529167,-0.529167 0,-0.391975 -0.411575,-0.529167 -1.5875,-0.529167 h -1.5875 v 7.584722 c 0,7.349536 0.02187,7.584722 0.705556,7.584722 0.391974,0 0.705555,0.235187 0.705555,0.529167 0,0.382175 0.391975,0.529167 1.411111,0.529167 h 1.411111 z m 7.68646,4.122233 0.101734,-3.286101 3.293015,3.374295 3.293014,3.374295 h 1.851752 c 2.230959,0 2.322489,0.192754 -2.252158,-4.742862 -2.840838,-3.064999 -3.087903,-3.440861 -2.625743,-3.99455 0.280586,-0.33616 1.572684,-1.819771 2.871322,-3.296914 1.298639,-1.477144 2.36116,-2.786831 2.36116,-2.910417 0,-0.123586 -0.312519,-0.224701 -0.694486,-0.224701 -0.47238,0 -0.629542,-0.169232 -0.491423,-0.529167 0.16352,-0.426123 -0.130595,-0.527829 -1.510376,-0.522295 -1.686295,0.0068 -1.746969,0.04646 -3.830104,2.50609 l -2.116667,2.499218 -0.09738,-5.328312 c -0.09205,-5.036802 -0.135481,-5.328312 -0.79375,-5.328312 -0.383808,0 -0.696366,-0.237513 -0.696366,-0.529167 0,-0.382176 -0.391975,-0.529166 -1.411111,-0.529166 h -1.411111 v 10.93611 c 0,9.112497 0.08195,10.936111 0.491423,10.936111 0.270284,0 0.586507,0.247784 0.702719,0.55063 0.151222,0.394074 0.588243,0.519455 1.537049,0.440972 l 1.325753,-0.109657 z m -7.68646,-15.587511 c 0,-1.019136 -0.146992,-1.411111 -0.529166,-1.411111 -0.293981,0 -0.529167,-0.31358 -0.529167,-0.705556 0,-0.601029 -0.235186,-0.705555 -1.5875,-0.705555 h -1.5875 v 1.5875 c 0,1.352314 0.104528,1.5875 0.705556,1.5875 0.391974,0 0.705555,0.235185 0.705555,0.529166 0,0.382176 0.391975,0.529167 1.411111,0.529167 h 1.411111 z m 48.848284,9.525 c 0,-10.962569 0.0447,-15.447257 0.0994,-9.965972 0.0547,5.481284 0.0547,14.450659 0,19.931944 -0.0547,5.481285 -0.0994,0.996597 -0.0994,-9.965972 z m -2.8443,-25.135416 -0.67204,-0.79375 0.79375,0.672037 c 0.43656,0.36962 0.79375,0.726808 0.79375,0.79375 0,0.282311 -0.28391,0.07389 -0.91546,-0.672037 z M 38.616573,6.0213644 c 15.085659,-0.050904 39.771284,-0.050904 54.856943,0 15.085664,0.050904 2.742847,0.092553 -27.428472,0.092553 -30.171319,0 -42.514131,-0.041649 -27.428471,-0.092553 z"
         id="path3716"
         inkscape:connector-curvature="0" />
      <path
         style="fill:#dee1e7;stroke-width:0.35277778"
         d="m 38.941618,58.232482 c 14.876378,-0.05093 39.323878,-0.05094 54.327777,-1.4e-5 15.003895,0.05092 2.832315,0.09259 -27.047962,0.0926 -29.880277,7e-6 -42.156194,-0.04166 -27.279815,-0.09259 z M 3.9840074,53.352352 c 0.016928,-0.410969 0.1005206,-0.494559 0.2131365,-0.213138 0.1019072,0.25466 0.089374,0.558931 -0.027851,0.676159 -0.1172252,0.117224 -0.2006037,-0.09114 -0.1852855,-0.463021 z M 22.300601,46.85536 c -0.356454,-0.230357 0.991978,-0.343736 4.131396,-0.347377 4.336444,-0.005 4.710587,-0.05909 5.379861,-0.777476 l 0.719298,-0.772075 v 0.91072 c 0,0.505026 -0.24858,1.006112 -0.558019,1.124853 -0.91166,0.349836 -9.098244,0.232491 -9.672536,-0.138645 z m 12.008006,-1.042486 c -0.328479,-0.207769 2.082887,-0.365845 6.64424,-0.435572 l 7.159847,-0.109442 1.028675,-1.152095 c 0.675746,-0.756821 1.032965,-1.543543 1.041178,-2.293055 0.0069,-0.627528 0.239374,-1.537836 0.516664,-2.022905 0.277291,-0.48507 0.509792,-1.294117 0.516664,-1.797884 0.0069,-0.503766 0.290315,-1.456266 0.629864,-2.116666 l 0.617361,-1.200728 0.114639,1.001336 c 0.06439,0.562464 -0.128881,1.270419 -0.440972,1.615278 -0.305587,0.337668 -0.555611,1.161431 -0.555611,1.830585 0,0.669154 -0.214743,1.529779 -0.477206,1.9125 -0.262463,0.38272 -0.47413,1.236636 -0.470373,1.89759 0.0052,0.910195 -0.265525,1.445087 -1.115857,2.204861 l -1.122694,1.003128 -6.785409,-0.0054 c -3.731972,-0.0028 -7.017428,-0.15216 -7.30101,-0.331531 z m 71.490653,-0.176816 c -0.93343,-0.24553 -1.86618,-0.615435 -2.07275,-0.822011 -0.2656,-0.265603 0.057,-0.265772 1.10183,-7.06e-4 2.07828,0.527523 6.0153,-0.132376 6.67987,-1.119642 0.70981,-1.054467 1.16381,-0.877595 1.03766,0.404255 -0.0842,0.855444 -0.32084,1.178281 -0.99249,1.353968 -2.04311,0.534426 -4.16407,0.602252 -5.75412,0.184012 z M 63.928378,45.26786 c 0,-0.447611 0.842747,-0.529167 5.468055,-0.529167 5.232869,0 5.468056,-0.03034 5.468056,-0.705555 0,-0.391975 0.235186,-0.705556 0.529166,-0.705556 0.369577,0 0.529167,0.372378 0.529167,1.234723 v 1.234722 H 69.9256 c -5.095678,0 -5.997222,-0.07955 -5.997222,-0.529167 z m 14.816666,0 c 0,-0.329258 0.333178,-0.529167 0.881945,-0.529167 h 0.881944 v -7.055555 c 0,-6.03642 0.07644,-7.055555 0.529167,-7.055555 0.453961,0 0.529166,1.077932 0.529166,7.584722 v 7.584722 h -1.411111 c -1.019136,0 -1.411111,-0.146992 -1.411111,-0.529167 z m 7.660308,0.310773 c -0.495688,-0.495688 -0.23749,-0.83994 0.62997,-0.83994 h 0.881944 v -3.582454 c 0,-3.580053 3.53e-4,-3.582018 0.71754,-2.933089 0.641702,0.580734 0.706952,1.005968 0.617361,4.023426 l -0.100179,3.374062 -1.24733,0.104983 c -0.686033,0.05774 -1.36072,-0.0084 -1.499306,-0.146988 z m 9.302073,-0.27577 c -0.340939,-0.41081 -0.104313,-0.514946 1.402785,-0.617361 1.447733,-0.09838 1.879442,0.0011 2.143224,0.494164 0.293751,0.54901 0.138444,0.617361 -1.402782,0.617361 -1.05561,0 -1.893429,-0.193178 -2.143227,-0.494164 z M 65.692267,33.802582 c 0,-7.29074 0.07349,-8.466666 0.529166,-8.466666 0.455673,0 0.529167,1.175926 0.529167,8.466666 0,7.290741 -0.07349,8.466667 -0.529167,8.466667 -0.455672,0 -0.529166,-1.175926 -0.529166,-8.466667 z m 26.060554,7.849306 c -0.438809,-0.559525 -0.426332,-0.572003 0.133195,-0.133195 0.58764,0.460858 0.774517,0.750556 0.484166,0.750556 -0.07325,0 -0.351066,-0.277812 -0.617361,-0.617361 z m 11.506199,-0.926855 c -0.30223,-0.461263 -0.69168,-1.334388 -0.86545,-1.940278 l -0.31594,-1.101617 h 4.73787 4.73788 v -1.157842 c 0,-0.636813 -0.22475,-2.025875 -0.49944,-3.086806 -0.49505,-1.911994 -0.49357,-1.921732 0.1676,-1.106983 0.83841,1.033156 1.38565,2.968994 1.3882,4.910659 l 0.002,1.499305 h -4.58611 c -4.95259,0 -4.96832,0.0071 -4.24207,1.917312 0.43104,1.133704 0.19449,1.163581 -0.52451,0.06625 z M 91.808292,37.166589 c -0.381233,-0.459357 -0.371284,-0.660285 0.05771,-1.165763 0.285083,-0.335909 1.520162,-1.801369 2.744618,-3.256577 2.480751,-2.948258 2.702758,-3.191098 2.338218,-2.557639 -0.168134,0.292165 -0.0086,0.440973 0.472606,0.440973 0.399507,0 0.726377,0.101115 0.726377,0.224701 0,0.123586 -1.060165,1.433273 -2.355917,2.910417 -3.812502,4.346196 -3.45505,4.040765 -3.983613,3.403888 z m -3.891026,-7.020598 c 0,-5.986001 0.02667,-6.221186 0.705556,-6.221186 0.674387,0 0.705555,0.235185 0.705555,5.324218 0,4.790042 -0.07079,5.414209 -0.705555,6.221186 l -0.705556,0.896968 z m 14.463884,4.521017 c 0,-2.007809 2.31814,-3.645922 4.15834,-2.938496 l 0.95694,0.367873 -1.40644,0.487466 c -1.4202,0.492233 -2.29772,1.320253 -2.29772,2.168102 0,0.253957 -0.3175,0.461741 -0.70556,0.461741 -0.40203,0 -0.70556,-0.235186 -0.70556,-0.546686 z M 52.298448,34.180407 c -0.01788,-0.76779 0.798255,-2.847269 1.117466,-2.847269 0.549458,0 0.271769,1.697895 -0.41191,2.518557 -0.455697,0.547 -0.697848,0.659816 -0.705556,0.328712 z m 26.446596,-6.551436 c 0,-0.329259 0.333178,-0.529166 0.881945,-0.529166 0.705555,0 0.881944,-0.176389 0.881944,-0.881945 0,-0.548765 0.199909,-0.881944 0.529167,-0.881944 0.382174,0 0.529166,0.391975 0.529166,1.411111 v 1.411111 h -1.411111 c -1.019136,0 -1.411111,-0.146991 -1.411111,-0.529167 z M 42.535281,26.482444 c 0.120265,-0.727604 0.234057,-1.878542 0.252871,-2.557639 l 0.03422,-1.234722 0.307653,1.028878 c 0.364395,1.218671 0.03989,4.086399 -0.462424,4.086399 -0.209271,0 -0.262696,-0.534141 -0.13232,-1.322916 z M 3.9840074,13.84124 c 0.016928,-0.410966 0.1005206,-0.494559 0.2131365,-0.213136 0.1019072,0.254661 0.089374,0.558932 -0.027851,0.676157 -0.117225,0.117225 -0.2006035,-0.09113 -0.1852855,-0.463021 z M 7.836712,11.091612 c 0,-0.07326 0.2778125,-0.351069 0.6173611,-0.617361 0.5595253,-0.43881 0.572003,-0.426332 0.133193,0.133193 C 8.1264082,11.195083 7.836712,11.38196 7.836712,11.091612 Z M 38.997093,8.84358 c 15.100917,-0.050908 39.707166,-0.050901 54.680554,1.38e-5 14.973393,0.050915 2.618091,0.092567 -27.456214,0.092559 -30.074305,-7.5e-6 -42.325258,-0.041665 -27.22434,-0.092573 z"
         id="path3714"
         inkscape:connector-curvature="0" />
      <path
         style="fill:#d6dde7;stroke-width:0.35277778"
         d="M 11.997279,62.456527 C 10.758085,61.88018 9.9787596,61.298939 6.7765583,58.562791 4.0857159,56.26358 4.1325454,56.705244 4.1325454,33.626194 c 0,-18.965248 0.047086,-20.583144 0.6440657,-22.13033 C 5.5385358,9.52119 8.0296123,7.1671848 9.9101041,6.6448403 10.742233,6.4136998 30.456287,6.2891646 66.416752,6.2878836 l 55.228648,-0.00197 1.84302,0.9184151 c 1.01366,0.5051283 2.27144,1.4973158 2.79506,2.2048611 0.52362,0.7075452 1.45291,1.8884032 2.06509,2.6241302 0.61218,0.735726 1.2971,2.005726 1.52206,2.822222 0.29431,1.068221 0.3802,7.279867 0.30629,22.150017 l -0.10271,20.665481 -1.06378,1.720307 c -0.77435,1.252245 -1.57717,1.98851 -2.9507,2.706049 l -1.88692,0.985739 -55.434022,-0.0093 C 17.01814,63.065245 13.217182,63.023899 11.997279,62.456527 Z m 110.491011,-4.86052 c 0.67844,-0.398543 1.59125,-1.255458 2.02847,-1.904252 l 0.79495,-1.179625 V 33.626194 12.740256 l -0.7966,-1.198698 c -0.43813,-0.659284 -1.50759,-1.5578323 -2.37658,-1.996775 L 120.55854,8.7467058 65.69693,8.8392276 10.835323,8.9317495 9.50144,9.7610496 C 8.7678044,10.217164 7.8549919,11.203028 7.4729678,11.951857 6.8059879,13.259245 6.7783787,14.115792 6.7783787,33.500759 c 0,19.627646 0.020044,20.228801 0.7228794,21.680665 0.7763213,1.603667 1.9749226,2.57768 3.6794619,2.99002 0.586143,0.141792 25.592589,0.233366 55.56988,0.203497 54.29805,-0.0541 54.50883,-0.05704 55.73769,-0.778934 z M 21.176121,46.261596 c 0.254662,-0.101907 0.558933,-0.08938 0.676158,0.02783 0.117225,0.117228 -0.09113,0.200604 -0.463021,0.185286 -0.410966,-0.01693 -0.494559,-0.10052 -0.213137,-0.213134 z m 76.067563,-3.022208 -1.03614,-1.146528 1.146528,1.03614 c 1.068726,0.965828 1.308682,1.256916 1.03614,1.256916 -0.06071,0 -0.576651,-0.515938 -1.146528,-1.146528 z M 74.539563,42.769019 c 0.01693,-0.410969 0.10052,-0.494559 0.213134,-0.213138 0.101907,0.25466 0.08938,0.55893 -0.02783,0.676159 -0.117228,0.117224 -0.200604,-0.09114 -0.185286,-0.463021 z m 18.271592,-0.0588 c -0.43881,-0.559526 -0.426332,-0.572004 0.133194,-0.133195 0.58764,0.460859 0.774517,0.750556 0.484167,0.750556 -0.07326,0 -0.351067,-0.277812 -0.617361,-0.617361 z m 18.327535,-0.203136 c -0.13125,-0.643756 -0.0821,-0.875722 0.1388,-0.654833 0.18813,0.188129 0.27959,0.636728 0.20325,0.996886 -0.1028,0.485006 -0.19151,0.396297 -0.34205,-0.342053 z m -91.632461,-0.09084 c 0.01693,-0.410969 0.100521,-0.494559 0.213137,-0.213138 0.101907,0.25466 0.08937,0.558931 -0.02785,0.676159 -0.117225,0.117224 -0.200604,-0.09114 -0.185287,-0.463021 z m 7.380483,0.243529 c 0,-0.17327 0.260579,-0.415028 0.579065,-0.537241 0.484177,-0.185798 0.506003,-0.134176 0.133193,0.315034 -0.508045,0.612154 -0.712258,0.675866 -0.712258,0.222207 z m 66.648297,-3.477326 -0.855243,-0.970139 0.970139,0.855244 c 0.906741,0.799354 1.131919,1.085033 0.855243,1.085033 -0.06319,0 -0.499752,-0.436562 -0.970139,-0.970138 z m -4.938889,-1.058334 -0.855243,-0.970139 0.970139,0.855244 c 0.906741,0.799355 1.131919,1.085034 0.855243,1.085034 -0.06319,0 -0.499752,-0.436562 -0.970139,-0.970139 z M 19.153451,37.830129 c 0.01693,-0.410966 0.100521,-0.494559 0.213137,-0.213137 0.101907,0.254662 0.08937,0.558932 -0.02785,0.676158 -0.117225,0.117225 -0.200604,-0.09113 -0.185287,-0.463021 z m 79.781771,-0.852547 c 0,-0.679097 0.0726,-0.956909 0.161335,-0.617361 0.08873,0.339549 0.08873,0.895174 0,1.234723 -0.08873,0.339548 -0.161335,0.06174 -0.161335,-0.617362 z m -7.490178,-0.838748 c 0,-0.07326 0.277812,-0.351069 0.617361,-0.617361 0.559527,-0.43881 0.572004,-0.426333 0.133195,0.133193 -0.460859,0.587639 -0.750556,0.774516 -0.750556,0.484168 z m -2.645833,-0.92514 c 0.351186,-0.388056 0.717895,-0.705556 0.814909,-0.705556 0.09701,0 -0.110945,0.3175 -0.462132,0.705556 -0.351186,0.388055 -0.717895,0.705555 -0.814909,0.705555 -0.09701,0 0.110945,-0.3175 0.462132,-0.705555 z M 18.800674,33.596796 c 0.01693,-0.410966 0.100521,-0.49456 0.213136,-0.213137 0.101908,0.254661 0.08937,0.558932 -0.02785,0.676157 -0.117226,0.117225 -0.200604,-0.09113 -0.185286,-0.46302 z m 74.761036,0.07259 c 0,-0.07326 0.277813,-0.351068 0.617362,-0.617361 0.559526,-0.43881 0.572004,-0.426332 0.133194,0.133193 -0.460858,0.587639 -0.750556,0.774517 -0.750556,0.484168 z m -40.541591,-3.24759 c 0.01693,-0.410966 0.10052,-0.49456 0.213134,-0.213137 0.101907,0.254661 0.08938,0.558932 -0.02783,0.676157 -0.117228,0.117225 -0.200604,-0.09113 -0.185286,-0.46302 z m 27.163888,-0.352778 c 0.01693,-0.410966 0.10052,-0.494559 0.213134,-0.213137 0.101907,0.254662 0.08938,0.558932 -0.02783,0.676158 -0.117228,0.117225 -0.200604,-0.09114 -0.185286,-0.463021 z M 42.481694,29.307999 c 1.3012,-0.06768 3.5237,-0.06813 4.938889,-9.88e-4 1.415189,0.06713 0.350573,0.12251 -2.365816,0.12306 -2.716389,5.65e-4 -3.874273,-0.05438 -2.573073,-0.122059 z m 37.674461,-4.42217 c 0,-0.411489 -0.412513,-0.604833 -1.499305,-0.702719 l -1.499306,-0.13504 1.510376,-0.06163 c 1.077179,-0.04396 1.570295,0.0945 1.719276,0.482748 0.114897,0.29941 0.109912,0.643368 -0.01108,0.764352 -0.120978,0.120984 -0.219964,-0.03548 -0.219964,-0.347709 z M 63.315867,24.024436 c 0.536244,-0.08109 1.329994,-0.07892 1.763889,0.0048 0.433896,0.08374 -0.0048,0.150081 -0.974989,0.147432 -0.970139,-0.0026 -1.325143,-0.07116 -0.7889,-0.152247 z"
         id="path3712"
         inkscape:connector-curvature="0" />
      <path
         style="fill:#a2afc4;stroke-width:0.35277778"
         d="m 24.167355,46.240645 c 1.317757,-0.06806 3.381507,-0.06755 4.586111,0.0011 1.204605,0.06868 0.12644,0.124365 -2.395921,0.123748 -2.522361,-7.06e-4 -3.507946,-0.05681 -2.19019,-0.12487 z M 36.69506,45.180911 c 1.999106,-0.063 5.174106,-0.06274 7.055554,7.06e-4 1.881453,0.0633 0.24582,0.11485 -3.634736,0.114536 -3.880555,-3.11e-4 -5.419923,-0.05211 -3.420818,-0.115104 z m 69.48257,-0.338945 c 0.43882,-0.08438 1.07382,-0.08118 1.41111,0.0071 0.33729,0.0883 -0.0218,0.157339 -0.79786,0.153423 -0.77611,-0.0039 -1.05207,-0.07616 -0.61325,-0.160542 z M 48.406156,44.605499 c 0,-0.07326 0.277812,-0.351067 0.617361,-0.617361 0.559527,-0.43881 0.572004,-0.426332 0.133195,0.133194 -0.460859,0.58764 -0.750556,0.774517 -0.750556,0.484167 z m 19.995857,-0.126365 c 5.379656,-0.09734 6.081416,-0.178157 6.241549,-0.718806 0.136271,-0.460086 0.162687,-0.436492 0.10796,0.09642 -0.06935,0.675333 -0.336723,0.706124 -6.241552,0.718806 l -6.169092,0.01326 6.061135,-0.109671 z m 9.09792,-0.169475 c -0.09961,-0.259577 -0.134546,-3.722049 -0.07764,-7.694379 l 0.103477,-7.22242 0.08047,7.496528 0.08047,7.496528 h 1.227264 1.227265 l 0.107428,-6.967361 0.107424,-6.967361 -0.01178,7.055555 -0.01178,7.055556 -1.325753,0.109657 c -0.864891,0.07154 -1.388706,-0.0544 -1.506858,-0.362303 z m 8.212472,0.180069 c 0.436563,-0.08409 1.150938,-0.08409 1.5875,0 0.436563,0.08408 0.07937,0.152883 -0.79375,0.152883 -0.873125,0 -1.230312,-0.0688 -0.79375,-0.152883 z m 8.344955,-0.544785 c -0.667495,-0.788384 -0.667241,-0.789721 0.03771,-0.197739 0.414912,0.348428 1.514002,0.651045 2.645833,0.728494 l 1.93609,0.132482 -1.973795,0.06526 c -1.659153,0.05485 -2.080927,-0.06127 -2.645833,-0.728494 z m 16.98953,-0.0152 c 0.13248,-0.347917 0.32974,-0.543708 0.43835,-0.435092 0.10862,0.108617 2.3e-4,0.393273 -0.24086,0.632577 -0.34842,0.345814 -0.38894,0.305294 -0.19749,-0.197485 z m -80.138533,-6.42299 c 4.94e-4,-2.910417 0.05513,-4.054098 0.121423,-2.541515 0.06629,1.512584 0.06588,3.893834 -8.82e-4,5.291667 -0.0668,1.397834 -0.121035,0.160265 -0.120541,-2.750152 z M 65.493194,33.27342 c 2.01e-4,-5.044722 0.04975,-7.059414 0.110106,-4.477093 0.06035,2.58232 0.06019,6.70982 -3.53e-4,9.172222 -0.06057,2.462401 -0.109954,0.349593 -0.109753,-4.695129 z m 30.140183,8.378472 c -0.43881,-0.559525 -0.426332,-0.572003 0.133195,-0.133195 0.339548,0.266294 0.617361,0.544107 0.617361,0.617361 0,0.29035 -0.289698,0.103473 -0.750556,-0.484166 z m -76.127148,-0.29398 c 0.01693,-0.410967 0.100521,-0.494561 0.213137,-0.213138 0.101907,0.25466 0.08937,0.55893 -0.02785,0.676158 -0.117225,0.117225 -0.200604,-0.09114 -0.185287,-0.46302 z m 83.888261,-0.0588 c -0.43881,-0.559525 -0.42633,-0.572003 0.13319,-0.133193 0.33955,0.266293 0.61736,0.544105 0.61736,0.617359 0,0.290351 -0.28969,0.103474 -0.75055,-0.484166 z M 89.988932,39.535221 c -0.438809,-0.559525 -0.426332,-0.572003 0.133195,-0.133193 0.58764,0.460858 0.774517,0.750554 0.484167,0.750554 -0.07326,0 -0.351067,-0.277812 -0.617362,-0.617361 z m 1.951761,-1.940277 -0.672038,-0.79375 0.79375,0.672037 c 0.745927,0.631549 0.954348,0.915463 0.672038,0.915463 -0.06694,0 -0.424131,-0.357188 -0.79375,-0.79375 z m 14.564907,-0.175327 4.65361,-0.109447 0.13778,-1.312822 0.13778,-1.312821 0.0593,1.499305 0.0593,1.499306 -4.8507,-0.07704 -4.85069,-0.07704 z M 19.153451,36.771796 c 0.01693,-0.410966 0.100521,-0.49456 0.213137,-0.213137 0.101907,0.254661 0.08937,0.558932 -0.02785,0.676157 -0.117225,0.117225 -0.200604,-0.09113 -0.185287,-0.46302 z M 50.8756,36.998402 c 0,-0.182577 0.156933,-0.428947 0.348739,-0.547489 0.199975,-0.123592 0.259115,0.01801 0.138645,0.331958 -0.234523,0.611158 -0.487384,0.722978 -0.487384,0.215531 z m 51.38796,-1.667116 c -0.12935,-0.129352 -0.23275,-0.407164 -0.22978,-0.617361 0.003,-0.210197 0.13901,-0.17143 0.30231,0.08615 0.21895,0.34537 1.08887,0.437988 3.31347,0.352778 1.65911,-0.06355 2.94246,0.0035 2.85187,0.149038 -0.20366,0.327183 -5.91317,0.354091 -6.23787,0.0294 z M 52.002707,34.331749 c 0.0072,-0.582083 0.08626,-0.7775 0.175698,-0.434258 0.08944,0.343241 0.08356,0.819491 -0.01309,1.058333 -0.09662,0.238842 -0.169799,-0.04199 -0.16261,-0.624075 z M 18.828525,32.391471 c 0,-0.485069 0.08007,-0.683507 0.177936,-0.440972 0.09786,0.242535 0.09786,0.63941 0,0.881945 -0.09787,0.242534 -0.177936,0.0441 -0.177936,-0.440973 z M 101.14643,30.98036 c 0.35119,-0.388055 0.7179,-0.705555 0.81491,-0.705555 0.097,0 -0.11094,0.3175 -0.46213,0.705555 -0.35119,0.388056 -0.7179,0.705556 -0.81491,0.705556 -0.097,0 0.11095,-0.3175 0.46213,-0.705556 z m -68.968052,0.219585 c 0,-0.07326 0.277813,-0.351069 0.617361,-0.617361 0.559526,-0.43881 0.572003,-0.426332 0.133193,0.133193 -0.460858,0.587639 -0.750554,0.774516 -0.750554,0.484168 z m 45.251638,-5.511251 c 0,-0.873125 0.0688,-1.230313 0.152883,-0.79375 0.08409,0.436562 0.08409,1.150937 0,1.5875 -0.08409,0.436562 -0.152883,0.07937 -0.152883,-0.79375 z m 2.781839,0.352777 c 0,-0.485069 0.08007,-0.683506 0.177938,-0.440972 0.09786,0.242535 0.09786,0.63941 0,0.881945 -0.09786,0.242534 -0.177938,0.0441 -0.177938,-0.440973 z m -37.77507,-0.911342 c 0.01693,-0.410966 0.100521,-0.494559 0.213135,-0.213137 0.101907,0.254662 0.08938,0.558933 -0.02784,0.676158 -0.117228,0.117225 -0.200603,-0.09114 -0.185285,-0.463021 z M 41.025674,23.36624 c 0.01693,-0.410966 0.100521,-0.494559 0.213135,-0.213137 0.101906,0.254662 0.08938,0.558933 -0.02784,0.676158 -0.117228,0.117225 -0.200603,-0.09113 -0.185286,-0.463021 z m -3.819442,-3.145602 c 0.0039,-0.776111 0.07616,-1.052072 0.160541,-0.613248 0.08438,0.438825 0.08118,1.073825 -0.0071,1.411111 -0.0883,0.337287 -0.157338,-0.02175 -0.153422,-0.797863 z"
         id="path3710"
         inkscape:connector-curvature="0" />
      <path
         style="fill:#8b9bba;stroke-width:0.35277778"
         d="m 21.443705,43.239388 c -0.201379,-1.551764 -0.906993,-10.143295 -0.906993,-11.043521 0,-0.417552 0.799003,-0.509951 4.409722,-0.509951 h 4.409722 v 6.526389 6.526388 h -3.85894 -3.858939 z m 7.480437,-4.586111 0.09715,-5.55625 h -3.939723 -3.939723 l 0.238723,3.96875 c 0.131298,2.182812 0.333822,4.728305 0.450055,5.65665 l 0.211333,1.687904 3.392515,-0.100404 3.392515,-0.1004 z m 7.222986,5.118259 c 1.309688,-0.06788 3.452813,-0.06788 4.7625,0 1.309688,0.06788 0.238125,0.123412 -2.38125,0.123412 -2.619375,0 -3.690937,-0.05553 -2.38125,-0.123412 z m 54.900138,-3.177981 c -0.43881,-0.559526 -0.426332,-0.572003 0.133195,-0.133193 0.339548,0.266292 0.617361,0.544104 0.617361,0.617361 0,0.290348 -0.289698,0.10347 -0.750556,-0.484168 z M 30.767267,30.136159 c 0,-0.07625 0.24637,-0.233187 0.547489,-0.348737 0.313946,-0.120472 0.45555,-0.06133 0.331958,0.138646 -0.207171,0.335211 -0.879447,0.49581 -0.879447,0.210091 z m 6.418774,-7.798854 c 0.0072,-0.582083 0.08625,-0.7775 0.175698,-0.434258 0.08944,0.343241 0.08356,0.819491 -0.01307,1.058333 -0.09664,0.238842 -0.169817,-0.04199 -0.162628,-0.624075 z"
         id="path3708"
         inkscape:connector-curvature="0" />
      <path
         style="fill:#7589b2;stroke-width:0.35277778"
         d="m 19.859007,44.532908 c 0.01693,-0.410969 0.100521,-0.49456 0.213137,-0.213138 0.101907,0.25466 0.08937,0.55893 -0.02785,0.676158 -0.117225,0.117225 -0.200604,-0.09114 -0.185287,-0.46302 z m 1.438962,-0.49977 c 0,-0.48507 0.08007,-0.683507 0.177936,-0.440972 0.09786,0.242534 0.09786,0.639409 0,0.881944 -0.09787,0.242535 -0.177936,0.0441 -0.177936,-0.440972 z m 0.532657,-1.310711 c -0.116233,-0.928345 -0.318757,-3.473838 -0.450055,-5.65665 l -0.238723,-3.96875 h 3.939723 3.939723 l -0.09715,5.55625 -0.09715,5.55625 -3.392515,0.1004 -3.392515,0.100404 z m 6.259151,0.384052 c 0.247081,-0.643883 -0.351112,-1.542786 -1.026676,-1.542786 -0.675565,0 -1.273758,0.898903 -1.026677,1.542786 0.12112,0.315634 0.583125,0.573881 1.026677,0.573881 0.443551,0 0.905556,-0.258247 1.026676,-0.573881 z m 59.549112,-2.336536 c -0.04092,-2.085798 0.06491,-3.792361 0.235183,-3.792361 0.170268,0 0.527456,0.277813 0.79375,0.617362 0.436587,0.556691 0.424744,0.570816 -0.120491,0.143734 -0.561224,-0.439601 -0.612902,-0.211508 -0.719353,3.175 l -0.114691,3.648627 z m -43.73065,3.010518 c 0.533577,-0.08083 1.406701,-0.08083 1.940278,0 0.533576,0.08083 0.09701,0.146963 -0.970139,0.146963 -1.067153,0 -1.503715,-0.06614 -0.970139,-0.146963 z m -12.85434,-1.046642 c 0.254662,-0.101907 0.558932,-0.08938 0.676158,0.02783 0.117224,0.117228 -0.09113,0.200603 -0.463021,0.185286 -0.410966,-0.01693 -0.494559,-0.100521 -0.213137,-0.213135 z m 75.655501,-0.0035 c 0.34324,-0.08944 0.81949,-0.08356 1.05833,0.01305 0.23884,0.09664 -0.042,0.169816 -0.62408,0.162627 -0.58208,-0.0072 -0.7775,-0.08626 -0.43425,-0.175698 z M 92.105599,41.651888 c -0.43881,-0.559525 -0.426332,-0.572003 0.133195,-0.133195 0.587639,0.460858 0.774516,0.750556 0.484166,0.750556 -0.07325,0 -0.351067,-0.277812 -0.617361,-0.617361 z M 20.971335,40.152582 c 0,-0.679097 0.0726,-0.956909 0.161333,-0.617361 0.08873,0.339549 0.08873,0.895174 0,1.234722 -0.08873,0.339549 -0.161333,0.06174 -0.161333,-0.617361 z m -1.465106,-0.205787 c 0.01693,-0.410966 0.100521,-0.494559 0.213137,-0.213136 0.101907,0.254661 0.08937,0.558932 -0.02785,0.676157 -0.117225,0.117225 -0.200604,-0.09113 -0.185287,-0.463021 z m 74.363259,-0.0588 c -0.43881,-0.559525 -0.426332,-0.572003 0.133195,-0.133193 0.339548,0.266292 0.617361,0.544105 0.617361,0.617361 0,0.290348 -0.289698,0.103471 -0.750556,-0.484168 z m -42.966036,-2.05787 c 0.01693,-0.410966 0.10052,-0.494559 0.213134,-0.213137 0.101907,0.254662 0.08938,0.558932 -0.02783,0.676158 -0.117228,0.117225 -0.200604,-0.09113 -0.185286,-0.463021 z M 20.625676,35.74286 c 0.0039,-0.776111 0.07616,-1.052072 0.160542,-0.613248 0.08438,0.438825 0.08118,1.073825 -0.0071,1.411111 -0.0883,0.337287 -0.157338,-0.02175 -0.153423,-0.797863 z m 67.087046,-5.997222 c -3.14e-4,-3.880555 0.05123,-5.516187 0.114536,-3.634738 0.06331,1.88145 0.06356,5.05645 7.06e-4,7.055556 -0.06313,1.999106 -0.114931,0.459738 -0.115242,-3.420818 z m -67.480746,2.557639 -0.04804,-0.970139 4.674305,0.07667 4.674306,0.07667 -4.474739,0.110086 c -4.301277,0.105818 -4.480613,0.140453 -4.626264,0.893469 -0.127468,0.659015 -0.159151,0.629366 -0.199566,-0.186756 z m 58.076209,-5.452978 c 0.438824,-0.08438 1.073824,-0.08118 1.411111,0.0071 0.337288,0.0883 -0.02177,0.157337 -0.797863,0.153422 -0.776111,-0.0039 -1.052072,-0.07616 -0.613248,-0.160541 z M 35.811871,21.45536 c 0,-1.067152 0.06613,-1.503715 0.146963,-0.970138 0.08083,0.533576 0.08083,1.406701 0,1.940277 -0.08083,0.533577 -0.146963,0.09701 -0.146963,-0.970139 z m 2.275535,-4.466971 c 0.242535,-0.09787 0.63941,-0.09787 0.881944,0 0.242535,0.09786 0.0441,0.177936 -0.440972,0.177936 -0.485069,0 -0.683507,-0.08007 -0.440972,-0.177936 z"
         id="path3706"
         inkscape:connector-curvature="0" />
      <path
         style="fill:#577099;stroke-width:0.35277778"
         d="m 20.598963,45.848144 c -0.329475,-0.212548 -0.635794,-2.457291 -1.040631,-7.625881 -0.563777,-7.197775 -0.5618,-7.333438 0.114137,-7.830986 0.539821,-0.397353 1.898567,-0.491751 6.313573,-0.438628 l 5.62572,0.06769 0.834822,-1.195685 c 0.459152,-0.657626 1.48129,-2.273025 2.271418,-3.589774 1.36301,-2.271457 1.426683,-2.503426 1.243047,-4.528589 -0.245101,-2.703017 0.365616,-3.484266 2.723714,-3.484266 1.87848,0 2.363034,0.543834 3.365727,3.777482 0.560652,1.808075 0.620713,2.546319 0.344414,4.233334 -0.184066,1.123843 -0.33558,2.162413 -0.336706,2.307934 -0.0011,0.145521 1.81325,0.264583 4.031936,0.264583 4.175817,0 5.63662,0.304116 6.421191,1.336786 0.615389,0.809988 0.598113,2.254001 -0.03701,3.093705 -0.284868,0.376633 -0.522993,1.249758 -0.529166,1.940277 -0.0062,0.69052 -0.244295,1.563645 -0.529167,1.940278 -0.284868,0.376633 -0.522993,1.260662 -0.529167,1.964508 -0.0063,0.720413 -0.253213,1.480559 -0.56491,1.739246 -0.314868,0.261316 -0.475008,0.760417 -0.37127,1.157114 0.28678,1.096642 -0.67975,2.955432 -1.851949,3.561599 -0.865639,0.44764 -2.395294,0.551572 -8.053486,0.547197 -3.841684,-0.0028 -7.214022,-0.150378 -7.494083,-0.327572 -0.367519,-0.23253 -0.615679,-0.108327 -0.891877,0.446374 -0.363447,0.729925 -0.639212,0.772964 -5.48802,0.856516 -2.80794,0.04838 -5.315457,-0.04758 -5.57226,-0.213244 z m 8.757193,-7.812228 v -6.702778 h -4.626167 -4.626167 l 0.207779,1.499306 c 0.114279,0.824618 0.394709,3.840868 0.623179,6.702777 l 0.4154,5.203472 h 4.002988 4.002988 z m 18.004074,5.461638 c 1.113073,-0.575592 1.730904,-2.095549 1.105863,-2.72059 -0.274539,-0.274541 -0.137996,-0.672627 0.484441,-1.41235 0.973526,-1.156972 1.067855,-1.679954 0.425761,-2.360573 -0.35294,-0.374118 -0.351459,-0.500202 0.0074,-0.631595 0.246616,-0.09029 0.676377,-0.605032 0.955022,-1.143872 0.425186,-0.822222 0.430685,-1.083566 0.03418,-1.625791 -0.412284,-0.563836 -0.365453,-0.730228 0.367898,-1.30708 0.904163,-0.711193 1.101951,-1.970962 0.417015,-2.655898 -0.290629,-0.290631 -2.039214,-0.423334 -5.578125,-0.423334 h -5.154796 l 0.448846,-2.557638 c 0.604492,-3.44454 0.58922,-3.818347 -0.247371,-6.054336 -0.748496,-2.000534 -1.48637,-2.565805 -2.803553,-2.147748 -0.619662,0.196673 -0.705556,0.533765 -0.705556,2.768948 0,2.404001 -0.09255,2.700767 -1.670289,5.356088 -0.918659,1.546091 -2.347409,3.48994 -3.175,4.319665 l -1.504711,1.508589 v 5.282383 c 0,5.239517 0.0064,5.282474 0.79375,5.293601 0.436563,0.0062 1.101904,0.244299 1.478538,0.529167 1.010515,0.764317 12.836711,0.749751 14.320675,-0.01764 z m 56.73889,0.899855 c -3.54764,-1.073012 -5.627893,-5.53482 -4.560476,-9.781471 0.844416,-3.359454 3.032296,-5.147482 6.298596,-5.147482 3.14566,0 4.92437,1.939928 5.2696,5.747223 l 0.19175,2.114681 h -4.6351 c -4.42435,0 -4.63511,0.0326 -4.63511,0.716887 0,1.187265 0.91439,2.999236 1.90791,3.780741 1.29097,1.015477 3.21508,1.256862 5.41223,0.67897 l 1.85208,-0.487133 v 0.964776 c 0,0.847192 -0.19102,1.012875 -1.56733,1.359436 -1.77383,0.446656 -4.15784,0.469646 -5.53415,0.05337 z m 4.46634,-10.153854 c -0.33613,-1.820807 -1.42843,-2.910417 -2.9176,-2.910417 -1.65075,0 -2.53381,0.553957 -3.12018,1.957343 -0.9299,2.225555 -0.86583,2.27599 2.89135,2.27599 h 3.39065 z m -46.048193,0.08819 V 24.277583 h 1.411111 1.411111 v 8.995833 8.995833 h 4.586111 4.586111 v 1.058333 1.058334 h -5.997222 -5.997222 z m 15.169444,2.645833 v -7.408333 h 1.234722 1.234722 v 7.408333 7.408334 H 78.921433 77.686711 Z M 85.095044,33.62619 V 22.866472 h 1.234722 1.234722 v 6.879166 c 0,3.783542 0.119063,6.877799 0.264584,6.876127 0.145521,-0.0017 1.613958,-1.579473 3.263194,-3.506225 2.787283,-3.256296 3.091843,-3.504705 4.321528,-3.524739 0.727604,-0.01185 1.322916,0.04446 1.322916,0.125134 0,0.08068 -1.273986,1.616535 -2.831076,3.413017 -1.557095,1.796483 -2.787407,3.390303 -2.734028,3.541824 0.05338,0.15152 1.455804,1.750975 3.116502,3.554343 3.936305,4.274469 3.881628,4.160797 2.001263,4.160797 -1.517936,0 -1.610438,-0.07019 -4.871516,-3.696213 -1.828309,-2.032916 -3.443262,-3.699791 -3.588783,-3.704166 -0.145521,-0.0044 -0.264584,1.65892 -0.264584,3.696212 v 3.704167 h -1.234722 -1.234722 z m -7.408333,-8.113889 c 0,-1.175926 0.0588,-1.234722 1.234722,-1.234722 1.175925,0 1.234722,0.0588 1.234722,1.234722 0,1.175926 -0.0588,1.234722 -1.234722,1.234722 -1.175925,0 -1.234722,-0.0588 -1.234722,-1.234722 z"
         id="path3704"
         inkscape:connector-curvature="0" />
    </g>
    <g
       id="g3804"
       transform="matrix(1,0,0,1.1365072,-2.3816023,-6.9277969)">
      <path
         style="fill:#ededed;stroke-width:0.35277778"
         d="m 147.05751,61.707097 0.0786,-5.732639 0.10678,5.55625 0.10679,5.55625 h 34.21048 34.21049 V 49.977236 32.867515 H 181.5624 147.35415 l -0.11173,4.145139 -0.11172,4.145138 -0.0759,-4.321527 -0.0759,-4.321528 h 34.57222 34.57223 v 17.462499 17.4625 H 181.55112 146.9789 Z m 47.72282,-0.617361 c -0.11991,-0.194028 -0.0593,-0.352778 0.13475,-0.352778 0.19403,0 0.45089,0.15875 0.57081,0.352778 0.11991,0.194028 0.0593,0.352778 -0.13475,0.352778 -0.19403,0 -0.45089,-0.15875 -0.57081,-0.352778 z m -35.73817,-4.7625 c 0.007,-0.582083 0.0863,-0.777499 0.1757,-0.434258 0.0894,0.343241 0.0836,0.819491 -0.0131,1.058333 -0.0966,0.238842 -0.16982,-0.04199 -0.16263,-0.624075 z"
         id="path3816"
         inkscape:connector-curvature="0" />
      <path
         style="fill:#c7c7c7;stroke-width:0.35277778"
         d="m 180.76153,62.604119 c 0.43882,-0.08438 1.07382,-0.08118 1.41111,0.0071 0.33729,0.0883 -0.0218,0.157339 -0.79786,0.153423 -0.77612,-0.0039 -1.05208,-0.07616 -0.61325,-0.160542 z M 165.13006,49.44807 c 0,-7.082014 0.0471,-9.979201 0.10462,-6.438194 0.0575,3.541006 0.0575,9.335381 0,12.876388 -0.0575,3.541007 -0.10462,0.643819 -0.10462,-6.438194 z m 39.51111,0 c 0,-7.082014 0.0471,-9.979201 0.10462,-6.438194 0.0575,3.541006 0.0575,9.335381 0,12.876388 -0.0575,3.541007 -0.10462,0.643819 -0.10462,-6.438194 z m -23.70065,10.338861 c 0.34324,-0.08944 0.81949,-0.08356 1.05833,0.01305 0.23884,0.09664 -0.042,0.169817 -0.62407,0.162627 -0.58209,-0.0072 -0.77751,-0.08625 -0.43426,-0.175697 z m -4.58494,-8.574972 c 0,-0.873125 0.0688,-1.230313 0.15288,-0.79375 0.0841,0.436562 0.0841,1.150937 0,1.5875 -0.0841,0.436562 -0.15288,0.07937 -0.15288,-0.79375 z m -41.0633,-0.617362 c -0.43881,-0.559525 -0.42634,-0.572003 0.13319,-0.133193 0.33955,0.266293 0.61736,0.544105 0.61736,0.617362 0,0.290348 -0.2897,0.10347 -0.75055,-0.484169 z m 41.05618,-2.381249 c 0.004,-0.776112 0.0762,-1.052073 0.16054,-0.613248 0.0844,0.438824 0.0812,1.073824 -0.007,1.411111 -0.0883,0.337286 -0.15734,-0.02175 -0.15343,-0.797863 z m 9.81667,-1.793287 c 0.0169,-0.410966 0.10052,-0.494559 0.21313,-0.213137 0.10191,0.254661 0.0894,0.558932 -0.0278,0.676158 -0.11723,0.117224 -0.20061,-0.09114 -0.18529,-0.463021 z m 19.88958,-5.10935 c -0.12789,-0.206937 -0.15687,-0.451909 -0.0644,-0.544382 0.0925,-0.09247 0.26214,0.07684 0.37704,0.376249 0.23854,0.621632 0.0352,0.730976 -0.31264,0.168133 z m -45.31743,-1.916808 c 0.45569,-0.485069 0.90791,-0.881944 1.00493,-0.881944 0.097,0 -0.19646,0.396875 -0.65216,0.881944 -0.4557,0.48507 -0.90792,0.881945 -1.00493,0.881945 -0.097,0 0.19646,-0.396875 0.65216,-0.881945 z m 39.51111,0 c 0.4557,-0.485069 0.90792,-0.881944 1.00493,-0.881944 0.097,0 -0.19645,0.396875 -0.65216,0.881944 -0.4557,0.48507 -0.90791,0.881945 -1.00493,0.881945 -0.097,0 0.19646,-0.396875 0.65216,-0.881945 z m -13.78504,-0.793749 -0.85524,-0.970139 0.97014,0.855244 c 0.53357,0.470384 0.97014,0.906947 0.97014,0.970139 0,0.276674 -0.28568,0.0515 -1.08504,-0.855244 z m -10.90941,0.484168 c 0,-0.07326 0.27781,-0.351069 0.61736,-0.617362 0.55953,-0.43881 0.57201,-0.426332 0.1332,0.133194 -0.46086,0.587638 -0.75056,0.774516 -0.75056,0.484168 z"
         id="path3814"
         inkscape:connector-curvature="0" />
      <path
         style="fill:#818181;stroke-width:0.35277778"
         d="m 144.86227,63.93879 v -5.617613 l -1.08204,-0.820582 c -0.59513,-0.451319 -2.06755,-1.693706 -3.27204,-2.760859 -1.20449,-1.067153 -2.90038,-2.528921 -3.76864,-3.248375 l -1.57866,-1.308098 4.85069,-4.819152 4.85069,-4.819153 v -5.073444 -5.073443 h 36.68889 36.68889 V 49.977236 69.556402 H 181.55116 144.86227 Z M 216.12339,49.977236 V 32.514737 h -34.57223 -34.57222 v 4.729774 4.729774 l -3.88055,3.801362 c -2.13431,2.090749 -3.88056,3.991402 -3.88056,4.223674 0,0.432237 2.55161,2.53082 5.77622,4.750684 l 1.8085,1.244991 0.0969,5.72237 0.0969,5.72237 h 34.56348 34.56349 z m -54.1727,2.469445 c 1.8e-4,-5.432778 0.0491,-7.605986 0.10883,-4.829351 0.0597,2.776635 0.0595,7.221635 -3.3e-4,9.877778 -0.0599,2.656144 -0.10868,0.38435 -0.1085,-5.048427 z m 39.51112,0 c 1.7e-4,-5.432778 0.0491,-7.605986 0.10882,-4.829351 0.0597,2.776635 0.0595,7.221635 -3.2e-4,9.877778 -0.0599,2.656144 -0.10868,0.38435 -0.1085,-5.048427 z m -28.34946,0.323379 c 0.0169,-0.410966 0.10052,-0.494559 0.21313,-0.213136 0.10191,0.254661 0.0894,0.558932 -0.0278,0.676157 -0.11723,0.117225 -0.2006,-0.09113 -0.18529,-0.463021 z m 0,-6.349999 c 0.0169,-0.410966 0.10052,-0.494559 0.21313,-0.213137 0.10191,0.254661 0.0894,0.558932 -0.0278,0.676158 -0.11723,0.117224 -0.2006,-0.09114 -0.18529,-0.463021 z m 3.175,0 c 0.0169,-0.410966 0.10052,-0.494559 0.21313,-0.213137 0.10191,0.254661 0.0894,0.558932 -0.0278,0.676158 -0.11723,0.117224 -0.2006,-0.09114 -0.18529,-0.463021 z m 4.65317,-7.09424 c 0.34324,-0.08944 0.81949,-0.08356 1.05833,0.01307 0.23884,0.09663 -0.042,0.169816 -0.62407,0.162626 -0.58209,-0.0072 -0.77751,-0.08625 -0.43426,-0.175698 z"
         id="path3812"
         inkscape:connector-curvature="0" />
      <path
         style="fill:#4e4f4f;stroke-width:0.35277778"
         d="m 189.34013,52.77006 c 0.0169,-0.410966 0.10052,-0.494559 0.21313,-0.213136 0.10191,0.254661 0.0894,0.558932 -0.0278,0.676157 -0.11723,0.117225 -0.20061,-0.09113 -0.18529,-0.463021 z m -16.16667,-1.73449 c 0.004,-0.776111 0.0762,-1.052073 0.16054,-0.613248 0.0844,0.438824 0.0812,1.073824 -0.007,1.411111 -0.0883,0.337286 -0.15734,-0.02175 -0.15343,-0.797863 z m 0,-2.822222 c 0.004,-0.776112 0.0762,-1.052073 0.16054,-0.613248 0.0844,0.438824 0.0812,1.073824 -0.007,1.411111 -0.0883,0.337286 -0.15734,-0.02175 -0.15343,-0.797863 z m 16.16667,-1.793287 c 0.0169,-0.410966 0.10052,-0.494559 0.21313,-0.213137 0.10191,0.254661 0.0894,0.558932 -0.0278,0.676158 -0.11723,0.117224 -0.20061,-0.09114 -0.18529,-0.463021 z"
         id="path3810"
         inkscape:connector-curvature="0" />
      <path
         style="fill:#2d2e2e;stroke-width:0.35277778"
         d="m 175.90672,39.084322 c 0,-0.07326 0.27781,-0.351069 0.61736,-0.617362 0.55953,-0.43881 0.57201,-0.426332 0.1332,0.133194 -0.46086,0.587638 -0.75056,0.774516 -0.75056,0.484168 z"
         id="path3808"
         inkscape:connector-curvature="0" />
      <path
         style="fill:#1a1b1b;stroke-width:0.35277778"
         d="m 179.00812,62.152158 c -1.86121,-0.561047 -3.17641,-1.849427 -4.29258,-4.205048 -1.09958,-2.320578 -1.10188,-2.33794 -1.10188,-8.322651 0,-5.553558 0.0618,-6.134018 0.83593,-7.846357 1.53689,-3.399724 4.75395,-5.382785 7.91288,-4.877652 4.9414,0.790163 7.11778,4.744736 7.09966,12.900398 -0.0112,5.058444 -0.5731,7.484091 -2.27905,9.839084 -1.74968,2.415371 -5.09048,3.442025 -8.17496,2.512226 z m 4.66022,-2.706342 c 0.54523,-0.322072 1.36084,-1.234884 1.81248,-2.028472 0.73888,-1.298316 0.83426,-1.977876 0.95196,-6.782388 0.15316,-6.252108 -0.30335,-8.500319 -2.06962,-10.192519 -0.93839,-0.899034 -1.36681,-1.048534 -3.00476,-1.048534 -1.65392,0 -2.05136,0.142056 -2.96104,1.058334 -1.47481,1.485525 -2.13786,4.347854 -2.13786,9.228976 0,5.407883 0.45976,7.363021 2.12281,9.027273 1.10941,1.110213 1.56095,1.322917 2.80834,1.322917 0.81751,0 1.93247,-0.263515 2.47769,-0.585587 z m -21.51995,-7.175524 c 0,-5.432778 -0.079,-9.877778 -0.17558,-9.877778 -0.0966,0 -0.93,0.536024 -1.85208,1.191165 -1.60488,1.140268 -3.71863,2.336613 -4.12844,2.336613 -0.10665,0 -0.1939,-0.609518 -0.1939,-1.354485 0,-1.061263 0.17183,-1.43354 0.79375,-1.719668 1.49292,-0.686853 4.51511,-3.169965 5.64083,-4.634651 0.73879,-0.961253 1.40147,-1.463418 1.93119,-1.463418 h 0.80645 v 12.7 12.699999 h -1.41111 -1.41111 z m 39.51111,0 c 0,-5.432778 -0.079,-9.877778 -0.17558,-9.877778 -0.0966,0 -0.93,0.536024 -1.85208,1.191165 -1.60487,1.140268 -3.71863,2.336613 -4.12843,2.336613 -0.10665,0 -0.19391,-0.609518 -0.19391,-1.354485 0,-1.061263 0.17183,-1.43354 0.79375,-1.719668 1.49292,-0.686853 4.51511,-3.169965 5.64083,-4.634651 0.73879,-0.961253 1.40147,-1.463418 1.93119,-1.463418 h 0.80645 v 12.7 12.699999 h -1.41111 -1.41111 z"
         id="path3806"
         inkscape:connector-curvature="0" />
    </g>
  </g>
</svg>
