<?xml version="1.0" encoding="UTF-8" standalone="no"?>
<!-- Created with Inkscape (http://www.inkscape.org/) -->

<svg
   xmlns:dc="http://purl.org/dc/elements/1.1/"
   xmlns:cc="http://creativecommons.org/ns#"
   xmlns:rdf="http://www.w3.org/1999/02/22-rdf-syntax-ns#"
   xmlns:svg="http://www.w3.org/2000/svg"
   xmlns="http://www.w3.org/2000/svg"
   xmlns:sodipodi="http://sodipodi.sourceforge.net/DTD/sodipodi-0.dtd"
   xmlns:inkscape="http://www.inkscape.org/namespaces/inkscape"
   width="119.99499mm"
   height="30.367935mm"
   viewBox="0 0 119.99499 30.367935"
   version="1.1"
   id="svg8"
   inkscape:version="0.92.1 r15371"
   sodipodi:docname="tb2.svg">
  <defs
     id="defs2" />
  <sodipodi:namedview
     id="base"
     pagecolor="#ffffff"
     bordercolor="#666666"
     borderopacity="1.0"
     inkscape:pageopacity="0.0"
     inkscape:pageshadow="2"
     inkscape:zoom="1.4"
     inkscape:cx="173.21208"
     inkscape:cy="78.010244"
     inkscape:document-units="mm"
     inkscape:current-layer="layer1"
     showgrid="false"
     fit-margin-top="0"
     fit-margin-left="0"
     fit-margin-right="0"
     fit-margin-bottom="0"
     inkscape:window-width="1366"
     inkscape:window-height="746"
     inkscape:window-x="-8"
     inkscape:window-y="-8"
     inkscape:window-maximized="1" />
  <metadata
     id="metadata5">
    <rdf:RDF>
      <cc:Work
         rdf:about="">
        <dc:format>image/svg+xml</dc:format>
        <dc:type
           rdf:resource="http://purl.org/dc/dcmitype/StillImage" />
        <dc:title></dc:title>
      </cc:Work>
    </rdf:RDF>
  </metadata>
  <g
     inkscape:label="Layer 1"
     inkscape:groupmode="layer"
     id="layer1"
     transform="translate(-18.270366,-19.500556)">
    <g
       transform="translate(32.027806,3.1013614)"
       id="layer1-5"
       inkscape:label="Layer 1">
      <path
         inkscape:connector-curvature="0"
         id="path21"
         d="m 101.98103,46.698444 c -0.39639,-0.0993 -0.92758,-0.36616 -1.06968,-0.537383 -0.12462,-0.150159 -0.0565,-0.439368 0.1193,-0.506848 0.0668,-0.02562 0.33316,0.05039 0.59202,0.168899 1.11862,0.512119 2.24243,0.346875 2.62111,-0.385404 0.0666,-0.128747 0.14762,-0.434431 0.18011,-0.6793 l 0.0591,-0.445215 -0.39647,0.302631 c -0.48231,0.368159 -0.96721,0.50985 -1.543,0.450874 -2.07579,-0.212622 -2.600881,-2.993369 -0.75163,-3.980513 0.47613,-0.254165 1.46903,-0.254805 1.94733,-0.0013 0.18627,0.09874 0.41487,0.264229 0.508,0.367753 l 0.16933,0.188223 0.0423,-0.327382 c 0.04,-0.309641 0.0584,-0.32738 0.33866,-0.32738 h 0.29634 l 0.0227,2.059641 c 0.0139,1.25986 -0.0122,2.189067 -0.0671,2.392945 -0.11248,0.417752 -0.51214,0.879471 -0.9636,1.113233 -0.3937,0.203853 -1.5536,0.284574 -2.10483,0.146481 z m 1.59546,-2.443857 c 0.63886,-0.290158 0.99443,-0.994152 0.81112,-1.60598 -0.38502,-1.28507 -2.16928,-1.511816 -2.78181,-0.353515 -0.66924,1.265563 0.63758,2.564963 1.97069,1.959495 z m -91.272431,1.13489 c -1.56823,-0.55866 -2.00689,-2.663402 -0.80547,-3.86482 0.8237,-0.823699 2.21826,-0.881566 3.08977,-0.128211 0.30731,0.265656 0.32367,0.302011 0.22919,0.509386 -0.13564,0.297699 -0.35283,0.284121 -0.82948,-0.05186 -0.33079,-0.233165 -0.46458,-0.275167 -0.87649,-0.275167 -0.95326,0 -1.58869,0.726323 -1.5159,1.732724 0.0951,1.314454 1.42714,1.954541 2.48562,1.194399 0.40248,-0.289035 0.59819,-0.308089 0.74644,-0.07267 0.13582,0.215682 -0.15828,0.569363 -0.70658,0.849717 -0.52253,0.26718 -1.24687,0.309634 -1.8171,0.106502 z m 10.62023,0.04722 c -0.58505,-0.177965 -1.11663,-0.629294 -1.39812,-1.187066 -0.1928,-0.382041 -0.26001,-1.258568 -0.13162,-1.716693 0.15302,-0.546061 0.59161,-1.088531 1.11368,-1.377466 0.40258,-0.222811 0.54211,-0.254 1.13627,-0.254 0.59101,0 0.73453,0.03169 1.12612,0.248622 1.71916,0.952394 1.50465,3.57019 -0.34853,4.253436 -0.30344,0.111874 -1.17557,0.131187 -1.4978,0.03317 z m 1.29575,-0.712614 c 0.15058,-0.06291 0.39529,-0.252782 0.5438,-0.421929 1.23418,-1.405655 -0.45624,-3.506528 -1.99963,-2.485161 -0.98993,0.655106 -0.87897,2.318156 0.18998,2.847284 0.4063,0.201113 0.87469,0.223243 1.26585,0.05981 z m 20.33713,0.673006 c -0.66456,-0.210723 -1.05833,-0.462604 -1.05833,-0.676971 0,-0.402119 0.20334,-0.438062 0.83393,-0.147407 0.9866,0.454757 1.8754,0.299829 1.8754,-0.326906 0,-0.334708 -0.27598,-0.526767 -1.14731,-0.798433 -0.5057,-0.157671 -0.82322,-0.314183 -1.03927,-0.512284 -0.28695,-0.263117 -0.31076,-0.321031 -0.30682,-0.746343 0.007,-0.746475 0.41669,-1.176322 1.22772,-1.287868 0.43836,-0.06029 1.33017,0.124094 1.66669,0.344589 0.22403,0.146786 0.25894,0.524499 0.0557,0.602492 -0.0748,0.02869 -0.37005,-0.03004 -0.65617,-0.130515 -0.28611,-0.100477 -0.65794,-0.1823 -0.82629,-0.181828 -0.37754,0.0011 -0.75225,0.27561 -0.75225,0.55119 0,0.279965 0.32146,0.502498 1.10078,0.762039 0.89586,0.298347 1.20089,0.514054 1.33886,0.946802 0.37383,1.172543 -0.89478,2.051028 -2.31264,1.601443 z m 10.20233,-0.01627 c -0.83706,-0.362574 -1.016,-0.860422 -1.016,-2.826783 0,-1.476332 0.0317,-1.610233 0.381,-1.610233 0.34738,0 0.38091,0.136798 0.38286,1.5621 0.002,1.607676 0.1,1.946884 0.63419,2.200389 0.5625,0.266925 1.17549,0.07837 1.60239,-0.492883 0.15643,-0.209333 0.17896,-0.389077 0.2169,-1.730435 l 0.0423,-1.496838 h 0.29633 0.29633 v 2.201334 2.201333 h -0.29633 c -0.27157,0 -0.29987,-0.02381 -0.33867,-0.284891 l -0.0423,-0.28489 -0.16933,0.191014 c -0.40955,0.461991 -1.36712,0.640438 -1.98967,0.370783 z m 18.96827,0.02939 c -0.16294,-0.05891 -0.37941,-0.233988 -0.48684,-0.393759 -0.18392,-0.273551 -0.19343,-0.363777 -0.19343,-1.836136 v -1.548448 l -0.26663,-0.02653 c -0.14664,-0.01459 -0.30837,-0.09321 -0.35939,-0.174698 -0.13516,-0.215862 0.0349,-0.438741 0.35939,-0.471031 l 0.26663,-0.02653 v -0.576935 c 0,-0.640821 0.11149,-0.821131 0.45445,-0.73505 0.23531,0.05906 0.30479,0.25821 0.30639,0.878214 l 10e-4,0.4445 0.5715,0.0013 c 0.68276,0.0015 0.80588,0.06383 0.76878,0.388891 -0.0279,0.244028 -0.0301,0.244893 -0.68411,0.269541 l -0.65617,0.02473 v 1.429627 1.429627 l 0.23259,0.182953 c 0.18034,0.141859 0.30245,0.171783 0.5436,0.133221 0.17106,-0.02735 0.3712,-0.02664 0.44475,0.0016 0.16682,0.06402 0.17474,0.401759 0.0126,0.536346 -0.17925,0.148759 -0.97825,0.190428 -1.31526,0.06859 z m -40.84554,-0.112991 c -0.0283,-0.07366 -0.0514,-1.037588 -0.0514,-2.142066 0,-2.108515 0.0177,-2.211342 0.381,-2.211342 0.23491,0 0.381,0.155941 0.381,0.406704 v 0.203504 l 0.28907,-0.253808 c 0.39162,-0.343844 0.82105,-0.472519 1.3833,-0.41449 0.59899,0.06182 1.04597,0.356338 1.28257,0.845096 0.16928,0.34967 0.17992,0.485098 0.15843,2.01642 l -0.023,1.641574 h -0.29634 -0.29633 l -0.0434,-1.481667 c -0.035,-1.194453 -0.0723,-1.534852 -0.19226,-1.756036 -0.31295,-0.576922 -0.95941,-0.752798 -1.57838,-0.429414 -0.60845,0.31789 -0.6836,0.550247 -0.6836,2.113704 0,0.730344 -0.0231,1.388163 -0.0514,1.461821 -0.0324,0.08452 -0.15401,0.133925 -0.3296,0.133925 -0.1756,0 -0.29718,-0.0494 -0.32961,-0.133925 z m 32.09372,0.07748 c -0.0311,-0.03104 -0.0564,-1.420353 -0.0564,-3.087353 0,-2.944258 0.005,-3.033501 0.16934,-3.121535 0.19563,-0.104699 0.45741,5.9e-5 0.54037,0.21624 0.0923,0.24064 0.0595,5.708092 -0.0354,5.885326 -0.0856,0.159927 -0.49432,0.230917 -0.61791,0.107322 z m 17.08645,-0.04551 c -0.0238,-0.06202 -0.0331,-1.064581 -0.0206,-2.227908 l 0.0227,-2.115139 h 0.29634 0.29633 v 2.201334 2.201333 l -0.27575,0.02657 c -0.17207,0.01658 -0.29201,-0.01582 -0.31902,-0.08619 z m 7.88516,-0.03197 c -0.0283,-0.07366 -0.0514,-1.037588 -0.0514,-2.142066 0,-2.108515 0.0177,-2.211342 0.381,-2.211342 0.23492,0 0.381,0.155941 0.381,0.406704 v 0.203504 l 0.28907,-0.253808 c 0.39162,-0.343844 0.82106,-0.472519 1.38331,-0.41449 0.59899,0.06182 1.04596,0.356338 1.28256,0.845096 0.16928,0.34967 0.17992,0.485098 0.15843,2.01642 l -0.023,1.641574 h -0.29633 -0.29633 l -0.0434,-1.481667 c -0.035,-1.194453 -0.0723,-1.534852 -0.19226,-1.756036 -0.31294,-0.576922 -0.95941,-0.752798 -1.57837,-0.429414 -0.60845,0.31789 -0.6836,0.550247 -0.6836,2.113704 0,0.730344 -0.0231,1.388163 -0.0514,1.461821 -0.0324,0.08452 -0.15402,0.133925 -0.32961,0.133925 -0.17559,0 -0.29717,-0.0494 -0.32961,-0.133925 z m -7.90459,-5.297804 c -0.13422,-0.134227 -0.1365,-0.514706 -0.004,-0.647337 0.13969,-0.139688 0.53328,-0.127764 0.65581,0.01987 0.0554,0.06681 0.0887,0.247783 0.0739,0.402167 -0.0243,0.25355 -0.0556,0.283118 -0.32363,0.305735 -0.16318,0.01377 -0.34416,-0.02242 -0.40217,-0.08043 z m -15.91992,-4.767526 c -1.12501,-0.255073 -1.62688,-0.736956 -1.62688,-1.562086 0,-0.633923 0.20499,-1.012396 0.68037,-1.256158 0.4343,-0.222695 0.71381,-0.235422 1.35163,-0.06154 0.77244,0.210575 1.35789,0.01454 1.65135,-0.552953 0.12051,-0.233054 0.067,-0.371009 -1.92636,-4.966691 l -2.05032,-4.726978 -10e-4,-0.641591 c -0.001,-0.577892 0.0227,-0.673373 0.24266,-0.961716 0.64993,-0.852097 2.15041,-0.847019 2.70703,0.0092 0.11591,0.17828 0.79275,1.893006 1.50411,3.8105 l 1.29336,3.486353 1.25464,-3.484411 c 0.69005,-1.916426 1.34671,-3.623544 1.45924,-3.793596 0.40462,-0.611418 1.38954,-0.850491 2.07117,-0.502745 0.65455,0.333926 0.91736,0.863496 0.83407,1.680636 -0.0549,0.538123 -4.42498,11.012389 -4.9412,11.843029 -0.47221,0.759821 -1.08422,1.317146 -1.71052,1.557672 -0.6205,0.238304 -2.01391,0.29973 -2.79285,0.123119 z m -24.73507,-3.264786 c -1.47606,-0.310945 -2.71043,-1.060967 -3.53356,-2.147036 -2.23314,-2.946509 -1.28772,-7.380406 1.91482,-8.980194 0.78174,-0.390509 1.33013,-0.554768 2.11693,-0.634086 2.91595,-0.293958 5.4233,1.296889 6.33022,4.016358 0.20172,0.604888 0.22588,0.804113 0.22588,1.862667 0,1.058554 -0.0242,1.257778 -0.22588,1.862666 -0.31495,0.944383 -0.76503,1.675214 -1.45919,2.369369 -1.12574,1.125746 -2.36684,1.650576 -4.02036,1.700118 -0.53552,0.01605 -1.1425,-0.0064 -1.34886,-0.04986 z m 2.11086,-1.613846 c 1.03104,-0.23746 2.17026,-1.12919 2.64865,-2.073233 0.90586,-1.787629 0.60057,-3.947024 -0.75057,-5.308982 -1.5828,-1.59547 -3.95476,-1.65464 -5.57491,-0.139069 -1.76462,1.650721 -1.84458,4.5257 -0.17598,6.327985 0.95709,1.033775 2.48744,1.507757 3.85281,1.193299 z m 45.42366,1.579535 c -2.35182,-0.46537 -4.02067,-2.004007 -4.63083,-4.269495 -0.23137,-0.859041 -0.24762,-2.498676 -0.0333,-3.356485 0.5113,-2.046205 1.94622,-3.636106 3.85977,-4.276655 0.38499,-0.128872 0.84287,-0.197018 1.524,-0.226816 1.22288,-0.0535 1.97862,0.09391 2.95842,0.577019 1.75448,0.865092 2.97076,2.873232 2.96685,4.898417 -0.002,0.867135 -0.19239,1.287261 -0.72,1.586083 -0.3344,0.189401 -0.36313,0.190843 -3.82944,0.192226 -2.95653,0.0012 -3.4925,0.0198 -3.4925,0.121373 0,0.247759 0.33801,0.894804 0.64488,1.234462 0.5075,0.561743 1.03506,0.786608 1.94639,0.829627 0.94022,0.04438 1.44576,-0.0856 2.2714,-0.584013 0.73571,-0.444115 1.15873,-0.506929 1.68812,-0.250659 0.62016,0.300215 0.89211,1.06338 0.61514,1.726259 -0.24829,0.594227 -1.48941,1.397416 -2.63626,1.706046 -0.70706,0.190278 -2.38796,0.23997 -3.13267,0.09261 z m 3.429,-7.024395 c 0,-0.01838 -0.0759,-0.279245 -0.16873,-0.579703 -0.355,-1.149387 -1.18812,-1.800939 -2.28088,-1.783817 -0.66872,0.01048 -1.07917,0.173654 -1.5663,0.622673 -0.34527,0.318256 -0.71904,1.0008 -0.84411,1.541429 l -0.0539,0.232833 h 2.45694 c 1.35133,0 2.45695,-0.01504 2.45695,-0.03342 z m -77.83596,6.894126 c -0.85391,-0.272846 -1.34341,-0.717932 -1.72562,-1.569045 -0.13807,-0.307451 -0.1544,-0.703503 -0.17715,-4.296833 l -0.0251,-3.958166 h -0.59528 c -0.54505,0 -0.61616,-0.02088 -0.84276,-0.247488 -0.16854,-0.168537 -0.24749,-0.332367 -0.24749,-0.513566 0,-0.577358 0.37659,-0.847613 1.18113,-0.847613 h 0.5122 v -1.488179 -1.48818 l 0.24749,-0.247487 c 0.34519,-0.34519 0.8255,-0.34542 1.21168,-5.92e-4 l 0.2765,0.246906 0.0281,1.483699 0.0281,1.483699 1.60925,0.02623 1.60926,0.02623 0.20416,0.237555 c 0.30558,0.355567 0.28174,0.82511 -0.0563,1.109586 -0.25962,0.218454 -0.26575,0.219193 -1.82033,0.219193 l -1.55984,1.1e-5 0.002,3.577166 c 0.002,3.305384 0.0138,3.603534 0.15947,3.924209 0.3371,0.74227 1.32525,1.063039 2.42314,0.786587 0.32253,-0.08121 0.41106,-0.07208 0.64916,0.06698 0.50252,0.293487 0.52058,0.938474 0.0352,1.256514 -0.59701,0.391176 -2.22209,0.501665 -3.12679,0.212591 z m 8.64319,0.03409 c -0.12747,-0.06917 -0.28983,-0.238047 -0.36081,-0.375292 -0.16539,-0.319845 -3.59309,-9.858386 -3.65643,-10.17505 -0.19617,-0.980841 1.26587,-1.393016 1.68731,-0.475683 0.0705,0.153393 0.74837,2.144787 1.50644,4.425322 l 1.37832,4.146425 1.45495,-4.350976 c 1.61506,-4.829767 1.57484,-4.746209 2.28422,-4.746209 0.74824,0 0.71083,-0.07638 2.30152,4.69887 0.78239,2.348714 1.4484,4.243031 1.48002,4.209592 0.0316,-0.03344 0.69287,-1.946745 1.46944,-4.251795 1.20001,-3.561927 1.44916,-4.225949 1.65987,-4.423833 0.52878,-0.496584 1.43059,-0.110049 1.43059,0.613179 0,0.211009 -3.59745,10.185312 -3.76674,10.443686 -0.33802,0.515884 -1.36448,0.508075 -1.64308,-0.0125 -0.0445,-0.08308 -0.66033,-1.844807 -1.3686,-3.914957 -0.70826,-2.070149 -1.34975,-3.945065 -1.42552,-4.16648 l -0.13777,-0.402571 -1.43423,4.170238 c -1.2345,3.589489 -1.47194,4.208558 -1.70501,4.445404 -0.21455,0.218018 -0.33848,0.274462 -0.59675,0.271777 -0.17928,-0.0019 -0.43026,-0.05998 -0.55774,-0.129147 z m 56.34446,0.01521 c -0.92732,-0.234608 -1.64869,-0.89224 -1.94183,-1.770244 -0.12767,-0.382376 -0.15098,-0.886582 -0.17598,-3.806263 l -0.0288,-3.3655 h -0.21057 c -0.31509,0 -0.84207,-0.299969 -1.05683,-0.601567 -0.20099,-0.282274 -0.30702,-0.928365 -0.2135,-1.300976 0.10111,-0.402868 0.60835,-0.866214 1.06935,-0.976804 l 0.42049,-0.100876 V 19.02002 c 0,-0.788929 0.0261,-0.959065 0.19707,-1.282722 0.60861,-1.152355 2.38393,-1.152355 2.99253,0 0.17126,0.324274 0.19707,0.493397 0.19707,1.291167 v 0.918017 l 0.74083,5.08e-4 c 1.17204,7.62e-4 1.68428,0.223304 2.02759,0.880936 0.18498,0.35435 0.11491,1.125991 -0.13399,1.475545 -0.33515,0.470682 -0.725,0.60638 -1.74206,0.60638 h -0.89237 v 2.633037 c 0,2.863095 0.0283,3.059553 0.47505,3.298647 0.11736,0.06281 0.42822,0.109168 0.69081,0.103021 1.10501,-0.02587 1.83267,0.70992 1.66771,1.686344 -0.079,0.467373 -0.46095,0.869091 -1.03951,1.093221 -0.60377,0.233895 -2.33604,0.306609 -3.04304,0.127736 z m 20.510651,0.06817 c -1.288101,-0.298594 -2.132811,-0.615042 -2.922821,-1.094949 -0.63004,-0.382728 -0.84495,-0.718947 -0.84454,-1.321223 8.5e-4,-0.806942 0.51292,-1.343738 1.28314,-1.344356 0.31137,-2.54e-4 0.5834,0.09656 1.29159,0.459669 1.05602,0.541444 1.902141,0.759382 2.760041,0.710907 0.65579,-0.03706 0.99977,-0.222408 1.13913,-0.613805 0.19462,-0.546628 -0.37672,-0.945434 -2.07154,-1.445984 -2.017711,-0.595909 -3.051861,-1.248407 -3.529021,-2.226637 -0.21589,-0.442604 -0.23551,-0.563865 -0.23558,-1.456467 0,-1.197301 0.17367,-1.710198 0.81851,-2.415752 0.6992,-0.76504 1.49444,-1.149368 2.714081,-1.31167 1.56027,-0.207634 3.98353,0.380452 4.82652,1.171321 0.45906,0.430673 0.50117,1.307235 0.0865,1.80008 -0.47824,0.568356 -1.1116,0.650646 -1.9811,0.257396 -1.22282,-0.55305 -2.43602,-0.756901 -2.94571,-0.49496 -0.33426,0.17178 -0.535561,0.505814 -0.467721,0.776105 0.0882,0.351608 0.618321,0.641318 2.174241,1.188307 1.60587,0.564546 2.31435,0.933479 2.8812,1.500331 0.55438,0.554379 0.75869,1.040916 0.80655,1.920678 0.10122,1.861003 -0.68075,3.067317 -2.40699,3.713141 -0.51791,0.193763 -0.72784,0.220631 -1.89478,0.242514 -0.72178,0.01353 -1.38853,0.0069 -1.48166,-0.01465 z m -48.564931,-0.35592 c -0.36531,-0.19084 -0.49616,-0.321691 -0.687,-0.687002 l -0.23574,-0.451259 8.5e-4,-6.319165 8.4e-4,-6.319165 0.20104,-0.431758 c 0.11058,-0.237466 0.31023,-0.50939 0.44368,-0.604274 0.50194,-0.356895 0.7462,-0.375759 4.39129,-0.339132 2.87741,0.02891 3.5618,0.05882 4.00006,0.174768 2.26222,0.598534 3.48588,2.302749 3.17966,4.428357 -0.15517,1.077064 -0.64703,1.864447 -1.58771,2.541653 l -0.24999,0.179973 0.5917,0.297976 c 1.43168,0.721001 2.15191,1.888768 2.15191,3.489103 0,1.819178 -1.00842,3.20045 -2.7885,3.819499 -1.10841,0.385469 -1.96525,0.455127 -5.605,0.455668 l -3.35583,5.08e-4 -0.45126,-0.235742 z m 7.417,-2.942836 c 0.95798,-0.24952 1.35228,-0.736088 1.29722,-1.600763 -0.0404,-0.634575 -0.25603,-0.973844 -0.78019,-1.227587 -0.57675,-0.279201 -1.20364,-0.342053 -3.41694,-0.342582 l -2.05316,-4.9e-4 v 1.651 1.651 h 2.22587 c 1.73252,0 2.337,-0.02894 2.7272,-0.130578 z m -0.89633,-6.141107 c 0.51507,-0.110465 0.90983,-0.364615 1.17683,-0.757663 0.168,-0.247316 0.1949,-0.376022 0.16845,-0.80592 -0.039,-0.634188 -0.25195,-0.959652 -0.80754,-1.234314 -0.38516,-0.190406 -0.49865,-0.200766 -2.49898,-0.228122 l -2.0955,-0.02866 v 1.572848 1.572847 h 1.81616 c 0.99889,0 2.00715,-0.04096 2.24058,-0.09102 z"
         style="fill:#fefefe;stroke-width:0.08466666" />
    </g>
  </g>
</svg>
