<?xml version="1.0" encoding="UTF-8" standalone="no"?>
<!-- Created with Inkscape (http://www.inkscape.org/) -->

<svg
   xmlns:dc="http://purl.org/dc/elements/1.1/"
   xmlns:cc="http://creativecommons.org/ns#"
   xmlns:rdf="http://www.w3.org/1999/02/22-rdf-syntax-ns#"
   xmlns:svg="http://www.w3.org/2000/svg"
   xmlns="http://www.w3.org/2000/svg"
   xmlns:sodipodi="http://sodipodi.sourceforge.net/DTD/sodipodi-0.dtd"
   xmlns:inkscape="http://www.inkscape.org/namespaces/inkscape"
   width="91.015572mm"
   height="18.305626mm"
   viewBox="0 0 91.015572 18.305626"
   version="1.1"
   id="svg3764"
   inkscape:version="0.92.1 r15371"
   sodipodi:docname="tweet.svg">
  <defs
     id="defs3758" />
  <sodipodi:namedview
     id="base"
     pagecolor="#ffffff"
     bordercolor="#666666"
     borderopacity="1.0"
     inkscape:pageopacity="0.0"
     inkscape:pageshadow="2"
     inkscape:zoom="0.35"
     inkscape:cx="356.23047"
     inkscape:cy="-402.47613"
     inkscape:document-units="mm"
     inkscape:current-layer="layer1"
     showgrid="false"
     fit-margin-top="0"
     fit-margin-left="0"
     fit-margin-right="0"
     fit-margin-bottom="0"
     inkscape:window-width="1920"
     inkscape:window-height="1017"
     inkscape:window-x="-8"
     inkscape:window-y="-8"
     inkscape:window-maximized="1" />
  <metadata
     id="metadata3761">
    <rdf:RDF>
      <cc:Work
         rdf:about="">
        <dc:format>image/svg+xml</dc:format>
        <dc:type
           rdf:resource="http://purl.org/dc/dcmitype/StillImage" />
        <dc:title></dc:title>
      </cc:Work>
    </rdf:RDF>
  </metadata>
  <g
     inkscape:label="Layer 1"
     inkscape:groupmode="layer"
     id="layer1"
     transform="translate(-11.580687,-24.039232)">
    <g
       id="g3777"
       transform="translate(-3.0238095,12.095238)">
      <path
         style="fill:#e8f8fa;stroke-width:0.35277778"
         d="m 15.024488,29.351066 c -0.523345,-1.148617 -0.574949,-16.243614 -0.05663,-16.563956 0.194028,-0.119915 0.352778,-0.04432 0.352778,0.167981 0,0.272319 0.200975,0.278451 0.682363,0.02082 0.966496,-0.517252 48.577909,-0.50592 48.897776,0.01164 0.128094,0.207256 0.494648,0.277226 0.814571,0.155489 0.420522,-0.160016 0.475421,-0.114178 0.198152,0.165448 -0.273294,0.275617 -0.665223,0.279687 -1.363613,0.01416 -1.340563,-0.509682 -48.055269,-0.478894 -48.370944,0.03188 -0.123264,0.199446 -0.446185,0.277414 -0.7176,0.173262 -0.413483,-0.158668 -0.493483,1.056094 -0.493483,7.493246 0,5.592789 0.119953,7.844863 0.440972,8.27908 0.40565,0.548689 2.419019,0.603737 25.135416,0.687224 L 65.23869,30.0781 40.336289,30.16386 15.433888,30.24962 Z m 56.528823,0.628559 c -0.746792,-0.498646 -1.199374,-1.814279 -1.203738,-3.499184 -0.0038,-1.489839 -0.177493,-1.885262 -1.411111,-3.213522 -0.773691,-0.83305 -1.401664,-1.6268 -1.395494,-1.763889 0.0291,-0.646351 1.038218,-1.532651 1.464617,-1.286353 0.255443,0.14755 0.350072,0.141679 0.210284,-0.01305 -0.139792,-0.154727 0.05865,-0.720622 0.440972,-1.257546 0.51768,-0.727017 0.695131,-1.552989 0.695131,-3.23559 0,-2.615444 0.569662,-3.761084 1.587063,-3.191718 0.604001,0.338015 0.595351,0.384711 -0.144597,0.78072 -0.639163,0.342069 -0.776171,0.698034 -0.729252,1.894685 0.124736,3.181339 0.01884,3.597723 -1.23118,4.841854 -1.222791,1.217015 -1.637069,2.009379 -0.804951,1.539585 0.337422,-0.190501 0.344897,-0.144876 0.03182,0.194294 -0.316935,0.343361 -0.138049,0.681279 0.79375,1.49941 1.085857,0.953386 1.202902,1.23894 1.202902,2.934687 0,3.184484 -1.126593,2.987265 17.064365,2.987265 11.939568,0 16.062188,-0.106554 16.378968,-0.423334 0.30196,-0.301962 0.42333,-2.514722 0.42333,-7.717915 0,-6.152878 -0.0854,-7.365487 -0.54586,-7.747609 -0.43211,-0.358622 -0.45136,-0.511438 -0.0923,-0.733318 1.04481,-0.645728 1.31854,1.141979 1.33127,8.694375 0.0104,6.157275 -0.0808,7.551288 -0.53667,8.202083 l -0.54917,0.784051 -16.295969,-0.0054 C 79.274706,30.241206 71.76685,30.122172 71.55336,29.979623 Z M 104.36817,29.6827 c 0.30692,-0.117773 0.55802,-0.375336 0.55802,-0.572363 0,-0.220783 -0.18629,-0.203616 -0.48555,0.04474 -0.35226,0.292351 -4.94305,0.37684 -16.723387,0.307779 -8.930813,-0.05236 -16.164196,0.02387 -16.074185,0.16939 0.19389,0.313467 31.912272,0.362366 32.725102,0.05045 z M 35.013418,28.826556 c -0.07707,-0.231195 -3.219789,-0.426632 -8.584259,-0.533831 -11.454502,-0.228896 -10.402964,-0.118481 -10.402964,-1.092356 0,-0.457223 -0.15875,-0.831314 -0.352778,-0.831314 -0.21368,0 -0.352777,-1.521205 -0.352777,-3.858058 V 18.65294 l 0.987263,0.947641 c 0.542996,0.521202 0.909397,1.10639 0.814226,1.300418 -0.09517,0.194028 0.09556,0.134902 0.423847,-0.13139 0.347282,-0.281701 0.596886,-0.982436 0.596886,-1.675695 0,-1.081167 0.0953,-1.191526 1.028935,-1.191526 0.565914,0 1.109453,0.198438 1.207865,0.440972 0.134652,0.33185 0.271537,0.310025 0.553163,-0.08819 0.205828,-0.291042 0.376664,-0.362479 0.379635,-0.15875 0.0091,0.623166 -0.797381,1.217083 -1.652654,1.217083 -0.726273,0 -0.881125,0.184473 -0.781258,0.930697 0.01657,0.123828 -0.181865,0.359522 -0.440972,0.523765 -0.352316,0.223326 -0.359914,0.299985 -0.03013,0.304025 0.242535,0.003 0.440972,0.226543 0.440972,0.496825 0,0.53125 0.943606,1.032233 1.405981,0.74647 0.156187,-0.09653 0.373053,0.05662 0.481924,0.340336 0.108871,0.283713 0.0216,0.624829 -0.19393,0.758036 -0.221923,0.137156 -0.293523,0.08305 -0.165093,-0.124751 0.126779,-0.205133 -0.160314,-0.440944 -0.651049,-0.534754 -0.587547,-0.112317 -0.877833,-0.009 -0.877833,0.312438 0,0.305092 -0.411726,0.480246 -1.128889,0.480246 -0.878024,0 -1.034814,0.09408 -0.705555,0.423334 0.232833,0.232833 0.423333,0.775474 0.423333,1.205869 0,1.246406 0.376507,1.898575 1.096077,1.898575 0.367297,0 0.667812,-0.15875 0.667812,-0.352778 0,-0.194027 -0.228259,-0.352777 -0.507242,-0.352777 -0.282802,0 -0.484657,-0.299827 -0.456198,-0.67762 0.05034,-0.668308 0.06412,-0.668308 1.002672,0 0.523396,0.372691 1.165248,0.666462 1.426337,0.652825 0.26109,-0.01364 0.157209,-0.168643 -0.230847,-0.344457 -0.499501,-0.226305 -0.293447,-0.261581 0.705556,-0.120789 2.0119,0.283542 2.645833,0.491174 2.645833,0.866591 0,0.180953 -0.15875,0.329005 -0.352778,0.329005 -0.194027,0 -0.352777,0.132292 -0.352777,0.293981 0,0.16169 0.497254,0.293982 1.10501,0.293982 0.936664,0 1.018117,-0.06354 0.53465,-0.417058 -0.313698,-0.229381 -0.466995,-0.520423 -0.340659,-0.646759 0.126336,-0.126336 0.04449,-0.229701 -0.181872,-0.229701 -0.226366,0 -0.411574,-0.15875 -0.411574,-0.352778 0,-0.194028 0.674688,-0.355209 1.499306,-0.35818 0.826055,-0.003 1.309122,-0.126294 1.075773,-0.274625 -0.292976,-0.186233 -0.0483,-0.604332 0.79375,-1.35633 0.669505,-0.597909 1.217282,-0.950578 1.217282,-0.783708 0,0.166869 0.238125,0.303398 0.529167,0.303398 0.658624,0 0.745353,-2.104961 0.08819,-2.140542 -0.242534,-0.01313 -0.08378,-0.196141 0.352778,-0.406688 0.436563,-0.210546 0.806283,-0.715739 0.821601,-1.122651 0.01532,-0.406912 0.107922,-0.541403 0.205787,-0.298869 0.09786,0.242535 0.499192,0.440973 0.891837,0.440973 0.489642,0 0.650113,-0.166228 0.51084,-0.529167 -0.144381,-0.376252 0.02311,-0.521118 0.579618,-0.501316 0.430473,0.01532 0.584241,0.107922 0.341706,0.205787 -0.620671,0.250447 -0.549676,1.413051 0.101548,1.662949 0.62232,0.238807 1.048572,-0.565945 0.733986,-1.385743 -0.11555,-0.301119 -0.06182,-0.455855 0.119388,-0.343859 0.184334,0.113925 0.247279,1.363388 0.142884,2.836279 -0.146284,2.063897 -0.07135,2.747891 0.346837,3.166082 0.666415,0.666415 1.19739,0.675824 1.8406,0.03261 0.384446,-0.384446 0.399084,-0.542151 0.063,-0.678698 -0.326931,-0.132827 -0.303796,-0.272665 0.09134,-0.552113 0.358756,-0.253717 0.387158,-0.375973 0.08819,-0.379636 -0.242535,-0.003 -0.440973,-0.243527 -0.440973,-0.534568 0,-0.291042 0.168119,-0.529167 0.373598,-0.529167 0.205479,0 0.25438,0.198438 0.10867,0.440972 -0.180014,0.299634 -0.07362,0.285789 0.331958,-0.0432 0.52874,-0.428891 0.598166,-0.388614 0.608105,0.352778 0.01088,0.811945 0.02669,0.81649 0.529167,0.152159 0.507395,-0.670837 0.517947,-0.669411 0.517947,0.07002 0,0.415144 0.396875,1.183041 0.881944,1.70644 0.668482,0.721303 0.881945,0.811088 0.881945,0.370954 0,-0.319375 0.233142,-0.580681 0.518094,-0.580681 0.338293,0 0.439917,-0.203728 0.292827,-0.587038 -0.150442,-0.392046 -0.08952,-0.503139 0.183421,-0.334455 0.260885,0.161237 0.33766,0.06749 0.212289,-0.259223 -0.108019,-0.281493 -0.04899,-0.602911 0.131187,-0.714264 0.180172,-0.111352 0.611979,0.428215 0.959572,1.199039 0.589934,1.308239 1.230387,1.854129 1.230387,1.048719 0,-0.194028 0.211667,-0.352778 0.470371,-0.352778 0.258704,0 0.482389,-0.198437 0.49708,-0.440972 0.01469,-0.242534 0.263578,-1.155347 0.553084,-2.028472 0.386036,-1.164249 0.535674,-1.359038 0.561253,-0.730602 0.06194,1.521691 0.846578,3.200046 1.496039,3.200046 0.337627,0 0.71198,0.15875 0.831896,0.352778 0.312985,0.506421 1.586481,0.435911 1.592902,-0.08819 0.0039,-0.317679 0.09192,-0.304354 0.314858,0.04766 0.246354,0.388994 0.394143,0.330397 0.724755,-0.287361 0.33655,-0.62885 0.51259,-0.695248 0.928388,-0.350167 0.282201,0.234205 0.615089,0.32383 0.73975,0.199167 0.124665,-0.124663 0.03209,-0.22666 -0.205733,-0.22666 -0.237818,0 -0.326894,-0.170701 -0.197954,-0.379334 0.14986,-0.242474 0.482061,-0.113548 0.920764,0.357345 0.377476,0.405173 0.5906,0.891555 0.473612,1.080848 -0.120266,0.194594 0.02434,0.253202 0.332754,0.134856 0.300005,-0.115122 0.458755,-0.349611 0.352777,-0.521085 -0.105977,-0.171474 0.05369,-0.21723 0.354803,-0.10168 0.63596,0.244041 0.744072,1.192939 0.135915,1.192939 -0.226363,0 -0.327755,0.08382 -0.225312,0.186258 0.102439,0.102443 0.639459,0.01395 1.193369,-0.196644 0.786868,-0.299166 0.896236,-0.451427 0.500116,-0.696244 -0.734321,-0.453835 -0.181085,-0.825358 1.146161,-0.769696 0.631747,0.02649 1.982067,0.07035 3.000713,0.09746 2.004706,0.05335 2.105205,0.11781 1.354321,0.868695 -0.273769,0.273769 -0.414006,0.818055 -0.311633,1.209523 0.278638,1.065519 0.809396,0.857534 0.809396,-0.317174 0,-0.565914 0.197019,-1.094608 0.437822,-1.174876 0.312127,-0.104042 0.255665,-0.328099 -0.196678,-0.78044 -0.348974,-0.348975 -0.554079,-0.844071 -0.455789,-1.100213 0.106257,-0.2769 -0.0056,-0.394976 -0.275967,-0.291237 -0.250077,0.09596 -0.661321,-0.07451 -0.913878,-0.378819 -0.383967,-0.462651 -0.373958,-0.520589 0.06107,-0.353652 0.310857,0.119288 0.52027,-0.0059 0.52027,-0.311068 0,-0.280892 -0.211667,-0.429489 -0.470373,-0.330215 -0.313835,0.12043 -0.461102,-0.09621 -0.442517,-0.650995 0.01531,-0.457322 0.107921,-0.633056 0.205785,-0.390521 0.226777,0.562011 0.853857,0.57985 0.736502,0.02095 -0.04851,-0.231011 0.229305,-0.466337 0.617361,-0.522946 0.388055,-0.05661 0.507118,-0.01312 0.264583,0.09664 -0.715828,0.323955 -0.505488,0.669937 0.407286,0.669937 0.466541,0 0.759788,-0.143146 0.651658,-0.318101 -0.108127,-0.174956 0.04003,-0.492456 0.329237,-0.705556 0.289207,-0.2131 0.610009,-0.625579 0.712896,-0.916621 0.102892,-0.291042 0.406457,0.502708 0.674593,1.763889 l 0.487524,2.293055 0.209695,-3.527777 c 0.171376,-2.88312 0.206368,-2.446205 0.191481,2.390941 -0.01598,5.193011 -0.08495,5.89075 -0.562473,5.690619 -0.299342,-0.125454 -0.782383,-0.233202 -1.073425,-0.239439 -0.291041,-0.0062 -0.639596,-0.181168 -0.774569,-0.388736 -0.134969,-0.207568 -0.371772,-0.251025 -0.526228,-0.09657 -0.154453,0.154455 -0.01094,0.431868 0.318946,0.616475 0.329872,0.184606 0.518421,0.54764 0.418994,0.806742 -0.140779,0.366863 -1.17174,0.447009 -4.659654,0.362236 -2.463384,-0.05987 -5.048973,-0.211112 -5.745759,-0.336089 -0.696785,-0.124977 -1.847723,-0.06685 -2.557639,0.129164 -0.852487,0.235384 -1.290757,0.23722 -1.290757,0.0054 0,-0.193043 -0.674688,-0.324274 -1.499306,-0.291626 -2.355596,0.09326 -2.450591,0.0626 -2.204861,-0.711626 0.242109,-0.762817 -0.33776,-0.989722 -0.676157,-0.264584 -0.16463,0.352778 -0.246945,0.352778 -0.411574,0 -0.335382,-0.718675 -0.950716,-0.501694 -0.75033,0.264584 0.163892,0.626723 0.01082,0.705555 -1.369966,0.705555 -0.85496,0 -1.554473,0.15875 -1.554473,0.352778 0,0.476098 -5.548411,0.464488 -5.707221,-0.01194 z m 22.023193,-0.237024 c -0.436562,-0.08409 -1.150937,-0.08409 -1.5875,0 -0.436562,0.08409 -0.07937,0.152883 0.79375,0.152883 0.873125,0 1.230313,-0.0688 0.79375,-0.152883 z m 3.976804,-0.30303 c -0.577656,-0.301208 -1.172968,-0.736792 -1.322917,-0.967965 -0.201295,-0.310327 -0.341873,-0.315601 -0.53722,-0.02015 -0.145521,0.22009 -0.582083,0.479487 -0.970139,0.576438 -0.388056,0.09695 -0.03087,0.194692 0.79375,0.2172 0.824618,0.02251 1.499306,0.199673 1.499306,0.393701 0,0.194028 0.357187,0.3518 0.793749,0.350604 0.71386,-0.0019 0.688037,-0.05729 -0.256529,-0.549823 z M 28.373417,27.427388 c 0,-0.194028 -0.485619,-0.352778 -1.079153,-0.352778 -0.629603,0 -0.988327,0.146959 -0.861125,0.352778 0.119916,0.194028 0.605535,0.352778 1.079154,0.352778 0.473618,0 0.861124,-0.15875 0.861124,-0.352778 z m 4.938889,0 c -0.683951,-0.442003 -1.058333,-0.442003 -1.058333,0 0,0.194028 0.357187,0.350347 0.79375,0.347376 0.641857,-0.0044 0.692488,-0.07084 0.264583,-0.347376 z m 3.175,0 c 0,-0.194028 -0.15875,-0.352778 -0.352778,-0.352778 -0.194028,0 -0.352778,0.15875 -0.352778,0.352778 0,0.194028 0.15875,0.352778 0.352778,0.352778 0.194028,0 0.352778,-0.15875 0.352778,-0.352778 z m 3.880555,0 c 0,-0.194028 -0.326869,-0.352778 -0.726375,-0.352778 -0.399506,0 -0.628263,0.15875 -0.508347,0.352778 0.119916,0.194028 0.446785,0.352778 0.726376,0.352778 0.279591,0 0.508346,-0.15875 0.508346,-0.352778 z m 1.763889,0 c 0,-0.194028 -0.15875,-0.352778 -0.352777,-0.352778 -0.194028,0 -0.352778,0.15875 -0.352778,0.352778 0,0.194028 0.15875,0.352778 0.352778,0.352778 0.194027,0 0.352777,-0.15875 0.352777,-0.352778 z m 6.35,0 c 0,-0.194028 -0.15875,-0.352778 -0.352778,-0.352778 -0.194027,0 -0.352777,0.15875 -0.352777,0.352778 0,0.194028 0.15875,0.352778 0.352777,0.352778 0.194028,0 0.352778,-0.15875 0.352778,-0.352778 z m 1.513329,-0.352778 c 0.116931,-0.447143 0.01083,-0.705555 -0.289709,-0.705555 -0.260818,0 -0.450298,0.3175 -0.421067,0.705555 0.02923,0.388056 0.1596,0.705556 0.289708,0.705556 0.130108,0 0.319588,-0.3175 0.421068,-0.705556 z m 1.308893,-0.07055 c 0,-0.569884 -0.10432,-0.671791 -0.392595,-0.383516 -0.215925,0.215927 -0.285934,0.565177 -0.155568,0.776111 0.364909,0.590437 0.548163,0.45919 0.548163,-0.392595 z m 4.938889,0.423333 c 0,-0.406582 -0.847114,-0.406582 -2.116666,0 -0.749223,0.239943 -0.656315,0.28774 0.617361,0.317613 0.824618,0.01934 1.499305,-0.123585 1.499305,-0.317613 z M 22.728973,26.721832 c 0,-0.449327 -1.421381,-0.449327 -2.116667,0 -0.393612,0.254372 -0.190281,0.343358 0.79375,0.347376 0.727604,0.003 1.322917,-0.153348 1.322917,-0.347376 z m 24.165277,0 c 0.119916,-0.194027 0.04991,-0.352777 -0.155569,-0.352777 -0.205478,0 -0.373597,0.15875 -0.373597,0.352777 0,0.194028 0.07001,0.352778 0.155569,0.352778 0.08556,0 0.253681,-0.15875 0.373597,-0.352778 z m -8.653272,-0.338998 c 0.285423,-0.180507 0.443923,-0.403221 0.352223,-0.494921 -0.0917,-0.0917 -0.474631,0.05842 -0.850959,0.333596 -0.752631,0.550337 -0.331684,0.686499 0.498736,0.161325 z m 5.134829,-0.298426 c -0.108615,-0.108616 -0.393274,-2.24e-4 -0.632575,0.240871 -0.345817,0.348409 -0.305295,0.38893 0.197483,0.197483 0.347917,-0.132479 0.543708,-0.329738 0.435092,-0.438354 z M 29.43175,26.016277 c 0,-0.194028 -0.238125,-0.352778 -0.529166,-0.352778 -0.291042,0 -0.529167,0.15875 -0.529167,0.352778 0,0.194028 0.238125,0.352778 0.529167,0.352778 0.291041,0 0.529166,-0.15875 0.529166,-0.352778 z m -0.352777,-1.193578 c 0,-0.07438 -0.3175,-0.218272 -0.705556,-0.31975 -0.388055,-0.101479 -0.705555,-0.04062 -0.705555,0.135244 0,0.175863 0.3175,0.31975 0.705555,0.31975 0.388056,0 0.705556,-0.06086 0.705556,-0.135244 z m 4.409722,-2.3342 c 0.119916,-0.194028 0.04991,-0.352778 -0.155569,-0.352778 -0.205479,0 -0.373598,0.15875 -0.373598,0.352778 0,0.194028 0.07001,0.352778 0.155569,0.352778 0.08556,0 0.253682,-0.15875 0.373598,-0.352778 z m 29.809722,0 c 0,-0.194028 -0.15875,-0.352778 -0.352778,-0.352778 -0.194028,0 -0.352778,0.15875 -0.352778,0.352778 0,0.194028 0.15875,0.352778 0.352778,0.352778 0.194028,0 0.352778,-0.15875 0.352778,-0.352778 z M 31.281636,21.901351 c -0.243744,-0.09827 -0.354561,-0.322042 -0.246261,-0.497275 0.1083,-0.175233 -0.04946,-0.224065 -0.35058,-0.108515 -0.819958,0.314647 -0.659452,0.844089 0.246261,0.81231 0.436562,-0.01532 0.594323,-0.108252 0.35058,-0.20652 z m -14.020719,6.58437 c 0.119916,-0.194028 0.288035,-0.352778 0.373598,-0.352778 0.08556,0 0.155569,0.15875 0.155569,0.352778 0,0.194028 -0.168119,0.352778 -0.373598,0.352778 -0.205478,0 -0.275484,-0.15875 -0.155569,-0.352778 z M 66.167774,21.04799 c 0.02593,-4.155428 0.152047,-6.803423 0.280267,-5.884433 0.286138,2.050803 0.198318,12.914038 -0.106867,13.219222 -0.121295,0.121294 -0.199323,-3.179361 -0.1734,-7.334789 z m 16.886198,6.379398 c 0,-0.194028 0.15875,-0.352778 0.352778,-0.352778 0.194028,0 0.352778,0.15875 0.352778,0.352778 0,0.194028 -0.15875,0.352778 -0.352778,0.352778 -0.194028,0 -0.352778,-0.15875 -0.352778,-0.352778 z m 11.1125,-0.705556 c -0.119916,-0.194027 0.108839,-0.352777 0.508346,-0.352777 0.399506,0 0.726376,0.15875 0.726376,0.352777 0,0.194028 -0.228755,0.352778 -0.508346,0.352778 -0.27959,0 -0.60646,-0.15875 -0.726376,-0.352778 z M 78.115083,25.310721 c 0,-0.194028 0.3175,-0.352778 0.705556,-0.352778 0.388055,0 0.705555,0.15875 0.705555,0.352778 0,0.194028 -0.3175,0.352778 -0.705555,0.352778 -0.388056,0 -0.705556,-0.15875 -0.705556,-0.352778 z m 2.674497,-0.228907 c -0.291811,-0.760444 -0.132423,-0.870912 0.408795,-0.283328 0.240605,0.261215 0.296926,0.561792 0.125162,0.667949 -0.171764,0.106156 -0.412048,-0.06692 -0.533957,-0.384621 z m 2.969948,0.228907 c 0,-0.194028 0.15875,-0.352778 0.352777,-0.352778 0.194028,0 0.352778,0.15875 0.352778,0.352778 0,0.194028 -0.15875,0.352778 -0.352778,0.352778 -0.194027,0 -0.352777,-0.15875 -0.352777,-0.352778 z m 3.527777,0 c 0,-0.194028 0.3175,-0.352778 0.705556,-0.352778 0.388055,0 0.705555,0.15875 0.705555,0.352778 0,0.194028 -0.3175,0.352778 -0.705555,0.352778 -0.388056,0 -0.705556,-0.15875 -0.705556,-0.352778 z m 3.383019,0.05118 c -0.102521,-0.16588 0.269381,-0.284942 0.826446,-0.264583 0.557064,0.02036 0.939704,0.15608 0.850314,0.301601 -0.222278,0.36185 -1.446957,0.334813 -1.67676,-0.03702 z m -13.205096,-1.10951 c 0,-0.48507 0.08007,-0.683507 0.177937,-0.440972 0.09786,0.242534 0.09786,0.639409 0,0.881944 -0.09786,0.242535 -0.177937,0.0441 -0.177937,-0.440972 z m 11.585966,0.331958 c 0,-0.205479 0.15875,-0.275485 0.352778,-0.155569 0.194028,0.119916 0.352778,0.288034 0.352778,0.373597 0,0.08556 -0.15875,0.155569 -0.352778,0.155569 -0.194028,0 -0.352778,-0.168119 -0.352778,-0.373597 z m 5.997222,0.02082 c 0,-0.194028 0.15875,-0.352778 0.352778,-0.352778 0.194028,0 0.352778,0.15875 0.352778,0.352778 0,0.194027 -0.15875,0.352777 -0.352778,0.352777 -0.194028,0 -0.352778,-0.15875 -0.352778,-0.352777 z M 57.80463,24.33518 c -0.566392,-0.38783 -0.872677,-1.442088 -0.48803,-1.679814 0.520602,-0.321748 0.399059,-1.793168 -0.188383,-2.280704 -0.598759,-0.496924 -0.368445,-1.981248 0.431546,-2.781241 0.399701,-0.399699 0.571056,-0.407213 0.910639,-0.03993 0.318703,0.344697 0.319106,0.396722 0.0018,0.218512 -0.572999,-0.321709 -1.018487,0.494086 -0.458727,0.840036 0.33667,0.208075 0.26573,0.392935 -0.282081,0.735048 -0.686506,0.428731 -0.69462,0.491053 -0.130884,1.005488 0.403863,0.368546 0.617551,1.155902 0.651495,2.400511 0.02776,1.018646 0.02367,1.849653 -0.0091,1.846682 -0.03281,-0.003 -0.229966,-0.122034 -0.438147,-0.264584 z m 21.721564,-0.103612 c 0,-0.205479 0.15875,-0.275485 0.352778,-0.155569 0.194028,0.119916 0.352778,0.288035 0.352778,0.373598 0,0.08556 -0.15875,0.155569 -0.352778,0.155569 -0.194028,0 -0.352778,-0.168119 -0.352778,-0.373598 z m -30.91776,-0.929012 c 0.134352,-0.134352 0.597372,-0.293546 1.028935,-0.353765 0.622688,-0.08689 0.675428,-0.03758 0.255492,0.238874 -0.599199,0.394468 -1.658782,0.489246 -1.284427,0.114891 z m 6.576094,0.105631 c 0,-0.07626 0.246369,-0.233187 0.54749,-0.348737 0.313944,-0.120472 0.455549,-0.06133 0.331957,0.138645 -0.207173,0.335211 -0.879447,0.495811 -0.879447,0.210092 z m 24.833089,-0.419374 c 0.117775,-0.306911 0.214133,-0.63067 0.214133,-0.719464 0,-0.08879 0.221463,0.04325 0.492139,0.293436 0.57501,0.531478 0.402862,0.984047 -0.374315,0.984047 -0.353025,0 -0.470383,-0.197281 -0.331957,-0.558019 z m 3.036355,0.272212 c 0,-0.230861 0.15875,-0.419748 0.352778,-0.419748 0.194028,0 0.352778,-0.3175 0.352778,-0.705556 0,-0.482312 0.235186,-0.705555 0.743299,-0.705555 0.504162,0 0.680187,-0.164465 0.547133,-0.511201 -0.131113,-0.341673 -0.02663,-0.446146 0.315034,-0.315034 0.555633,0.213216 0.70423,0.826235 0.200283,0.826235 -0.171005,0 -0.806005,0.506387 -1.411111,1.125304 -0.605106,0.618917 -1.100194,0.936417 -1.100194,0.705555 z m 4.983889,-0.300728 c 0.379289,-0.459484 0.388169,-0.618845 0.041,-0.735687 -0.243744,-0.08203 -0.353437,-0.294342 -0.243762,-0.471797 0.270461,-0.437615 1.921655,-0.411725 1.921655,0.03013 0,0.194027 -0.238125,0.352777 -0.529167,0.352777 -0.29398,0 -0.529167,0.313581 -0.529167,0.705556 0,0.415641 -0.235186,0.705555 -0.57236,0.705555 -0.492602,0 -0.504892,-0.08174 -0.08819,-0.586535 z m 6.310401,-0.207215 c 0.0044,-0.641857 0.07084,-0.692488 0.347376,-0.264583 0.442003,0.683951 0.442003,1.058333 0,1.058333 -0.194027,0 -0.350347,-0.357187 -0.347376,-0.79375 z m -43.463213,0.199985 c 0.254659,-0.101907 0.55893,-0.08937 0.676158,0.02785 0.117225,0.117225 -0.09114,0.200604 -0.46302,0.185286 -0.410969,-0.01693 -0.49456,-0.100521 -0.213138,-0.213136 z M 92.254046,22.63549 c 0.01693,-0.410966 0.10052,-0.494559 0.213134,-0.213137 0.101907,0.254662 0.08938,0.558933 -0.02783,0.676158 -0.117228,0.117225 -0.200604,-0.09113 -0.185286,-0.463021 z m 4.261181,-0.499769 c 0,-0.485069 0.08007,-0.683507 0.177938,-0.440972 0.09786,0.242535 0.09786,0.63941 0,0.881945 -0.09786,0.242534 -0.177938,0.0441 -0.177938,-0.440973 z m -6.02507,-0.08819 c -0.03182,-0.705691 0.271163,-0.772115 1.030482,-0.225903 0.452222,0.325303 0.442711,0.353048 -0.0654,0.190805 -0.327014,-0.104417 -0.671668,-3.3e-4 -0.765898,0.231305 -0.09423,0.231635 -0.183864,0.143341 -0.199182,-0.196207 z m -54.60968,-0.640315 c 0.03473,-0.461 0.313364,-0.682602 0.85829,-0.682602 0.44378,0 0.806872,0.15875 0.806872,0.352778 0,0.194028 0.03969,0.468461 0.08819,0.609852 0.04851,0.141391 -0.337724,0.289812 -0.858291,0.329824 -0.740452,0.05691 -0.935292,-0.07584 -0.895066,-0.609852 z m 42.107031,0.199343 c 0.111686,-0.291042 0.339845,-0.529167 0.507023,-0.529167 0.167181,0 0.212587,0.238125 0.100905,0.529167 -0.111686,0.291041 -0.339845,0.529166 -0.507023,0.529166 -0.167181,0 -0.212587,-0.238125 -0.100905,-0.529166 z M 98.672277,20.72461 c 0,-0.873125 0.0688,-1.230312 0.152883,-0.79375 0.08409,0.436563 0.08409,1.150938 0,1.5875 -0.08409,0.436563 -0.152883,0.07937 -0.152883,-0.79375 z m -16.235666,0.324521 c 0.339548,-0.197769 0.627422,-0.708879 0.639724,-1.1358 0.02212,-0.767526 0.02607,-0.766965 0.353462,0.05011 0.412672,1.029912 0.159589,1.469838 -0.837618,1.455998 -0.694627,-0.0096 -0.710385,-0.04716 -0.155568,-0.370307 z m 12.99555,-0.110818 c -0.310116,-0.373671 -0.267487,-0.535606 0.186909,-0.709975 0.323765,-0.12424 0.671777,-0.142779 0.773355,-0.0412 0.101583,0.101581 -0.0402,0.187123 -0.315072,0.190095 -0.414888,0.0045 -0.418476,0.05691 -0.02113,0.30868 0.290742,0.184223 0.341055,0.388308 0.128168,0.519881 -0.192758,0.119131 -0.531259,-0.0012 -0.752225,-0.267483 z M 39.122148,19.956155 c -0.53465,-1.11052 -0.560009,-1.453868 -0.175875,-2.38125 0.546109,-1.318423 0.830979,-1.357051 1.364962,-0.185084 0.550638,1.208518 0.524047,1.302054 -0.296151,1.041734 -0.485698,-0.154155 -0.705556,-0.06339 -0.705556,0.291262 0,0.73717 0.930515,0.993376 1.428514,0.393324 0.231972,-0.279508 0.640453,-0.508197 0.907738,-0.508197 0.267283,0 0.48597,-0.3175 0.48597,-0.705556 0,-0.388055 0.176768,-0.705555 0.392818,-0.705555 0.235797,0 0.330728,0.423047 0.237488,1.058333 -0.09958,0.678476 -0.0021,1.058333 0.271592,1.058333 0.234808,0 0.509952,0.3175 0.61143,0.705556 0.114076,0.436227 0.01082,0.705555 -0.270487,0.705555 -0.250248,0 -0.537814,-0.316699 -0.639036,-0.703775 -0.388552,-1.485823 -2.083425,-1.164555 -2.717649,0.515139 -0.243821,0.645742 -0.333747,0.587534 -0.895758,-0.579819 z m 12.309399,0.592066 c 0.111683,-0.291041 0.04265,-0.529166 -0.153398,-0.529166 -0.196049,0 -0.697251,-0.3175 -1.113779,-0.705556 -0.416531,-0.388055 -0.588081,-0.705555 -0.381225,-0.705555 0.206857,0 0.555299,0.215918 0.774318,0.479818 0.529286,0.637754 2.084059,0.316805 2.533502,-0.522988 0.362504,-0.677347 1.388007,-0.925206 1.388007,-0.335475 0,0.179801 0.277813,0.39951 0.617361,0.488243 0.339549,0.08873 0.101424,0.179749 -0.529166,0.202257 -1.100328,0.03927 -2.557639,1.067633 -2.557639,1.804811 0,0.194028 -0.175733,0.352778 -0.390522,0.352778 -0.214785,0 -0.299144,-0.238125 -0.187459,-0.529167 z m 42.59816,-0.272522 c 0.575095,-1.105673 0.63531,-1.137821 0.572632,-0.305721 -0.03051,0.404926 -0.263786,0.816173 -0.51841,0.91388 -0.369588,0.141824 -0.38052,0.01918 -0.05422,-0.608159 z m -48.213466,0.127969 c 0.370792,-0.599954 -0.198677,-1.363145 -1.160703,-1.55555 -0.645237,-0.129048 -0.976866,-0.430478 -1.013856,-0.921531 -0.03023,-0.401365 0.09391,-0.729754 0.275882,-0.729754 0.305907,0 0.472652,0.513051 0.372629,1.146527 -0.100228,0.634779 1.343672,0.195637 1.55596,-0.473223 0.162482,-0.511936 0.441657,-0.683548 0.911923,-0.560571 0.372764,0.09748 0.901745,-0.04676 1.175515,-0.320526 0.563747,-0.563748 2.474643,-0.693474 2.135659,-0.144985 -0.119916,0.194028 -0.526159,0.352778 -0.902764,0.352778 -0.376605,0 -0.684736,0.15875 -0.684736,0.352777 0,0.194028 -0.595312,0.363936 -1.322916,0.377573 -1.061226,0.01989 -1.183349,0.08477 -0.617362,0.327983 0.603326,0.259258 0.616105,0.30678 0.08819,0.327983 -0.339549,0.01364 -0.617361,0.20206 -0.617361,0.418717 0,0.22735 0.315428,0.311437 0.745945,0.198854 0.731267,-0.191231 0.730057,-0.178157 -0.06149,0.664411 -0.814253,0.866732 -1.246887,1.131338 -0.880515,0.538537 z m 43.071758,-0.05319 c 0.247827,-0.400988 1.221528,-0.443811 1.221528,-0.05372 0,0.152738 -0.320932,0.30188 -0.713179,0.331427 -0.39225,0.02955 -0.621005,-0.09542 -0.508349,-0.277705 z m -52.59785,-0.849375 c -0.672796,-0.508877 -0.671917,-0.518143 0.05017,-0.529166 0.423094,-0.0065 0.734954,0.21332 0.734954,0.517947 0,0.642883 0.04909,0.642181 -0.78512,0.01122 z m 25.420768,0.16517 c -0.119917,-0.194028 -0.04991,-0.352778 0.155568,-0.352778 0.205479,0 0.373598,0.15875 0.373598,0.352778 0,0.194028 -0.07001,0.352778 -0.155568,0.352778 -0.08556,0 -0.253682,-0.15875 -0.373598,-0.352778 z m 0.967076,0.177213 c 0.143839,-0.158777 0.08471,-0.501728 -0.131388,-0.762115 -0.301241,-0.362971 -0.259369,-0.473431 0.179451,-0.473431 0.674059,0 0.767588,0.904346 0.131388,1.270461 -0.242534,0.139573 -0.323285,0.12386 -0.179451,-0.03491 z m 22.781204,-0.606882 c 0.188129,-0.188129 0.636728,-0.279593 0.996886,-0.203252 0.485006,0.102804 0.396297,0.191514 -0.342053,0.342054 -0.643756,0.131254 -0.875722,0.08209 -0.654833,-0.138802 z m -63.553372,-0.15829 c -0.369324,-0.369324 -0.274789,-0.889264 0.117592,-0.646759 0.194028,0.119916 0.352778,0.04054 0.352778,-0.176389 0,-0.21693 0.151817,-0.30059 0.337371,-0.185911 0.185553,0.114678 0.247944,0.441547 0.138645,0.726375 -0.213229,0.555667 -0.567564,0.661507 -0.946386,0.282684 z m 6.82037,5.71e-4 c 0,-0.204646 0.950564,-1.176497 1.150728,-1.176497 0.473129,0 0.02888,1.036583 -0.503969,1.175926 -0.355717,0.09302 -0.646759,0.09328 -0.646759,5.71e-4 z m 1.940278,-0.823719 c -0.119916,-0.194028 -0.03139,-0.352778 0.196714,-0.352778 0.2449,0 0.337025,-0.29719 0.224963,-0.725717 -0.149145,-0.570332 -0.09022,-0.643089 0.275214,-0.339807 0.255746,0.212251 0.383491,0.697573 0.283878,1.078495 -0.196267,0.750529 -0.633339,0.901961 -0.980769,0.339807 z m 19.78026,0.03997 c -0.106331,-0.172043 0.04305,-0.508981 0.331957,-0.748751 0.43713,-0.362786 0.525282,-0.310292 0.525282,0.312805 0,0.756838 -0.501346,1.011795 -0.857239,0.435946 z m 32.772678,-0.05769 c -0.335213,-0.542391 0.123948,-0.89234 0.576735,-0.439555 0.253358,0.253358 0.259443,0.450683 0.01849,0.599597 -0.197527,0.122078 -0.46538,0.05006 -0.595231,-0.160042 z m 15.384635,-0.188071 c 0.01693,-0.410966 0.10052,-0.494559 0.213134,-0.213137 0.101907,0.254662 0.08938,0.558933 -0.02783,0.676158 -0.117228,0.117225 -0.200604,-0.09114 -0.185286,-0.463021 z M 60.389852,17.373221 c 0.112572,-0.588874 0.401927,-0.881944 0.870769,-0.881944 0.495352,0 0.639099,0.16436 0.488039,0.558019 -0.117774,0.306911 -0.214132,0.703786 -0.214132,0.881945 0,0.178158 -0.295487,0.323925 -0.656636,0.323925 -0.510184,0 -0.619033,-0.196702 -0.48804,-0.881945 z m 27.558008,0.264584 c -0.438809,-0.559526 -0.426331,-0.572003 0.133195,-0.133193 0.58764,0.460858 0.774517,0.750554 0.484167,0.750554 -0.07326,0 -0.351067,-0.277813 -0.617362,-0.617361 z M 55.537306,17.020444 c 0,-0.291042 0.09071,-0.529167 0.201587,-0.529167 0.110871,0 0.439713,0.238125 0.730755,0.529167 0.470369,0.47037 0.447971,0.529166 -0.201588,0.529166 -0.414373,0 -0.730754,-0.229102 -0.730754,-0.529166 z m 3.75298,0 c 0.111686,-0.291042 0.265451,-0.529167 0.341708,-0.529167 0.07625,0 0.138645,0.238125 0.138645,0.529167 0,0.291041 -0.153769,0.529166 -0.341708,0.529166 -0.187935,0 -0.250327,-0.238125 -0.138645,-0.529166 z m 24.832236,0.190168 c -0.285422,-0.180507 -0.427108,-0.420037 -0.314854,-0.53229 0.112253,-0.112252 0.404904,0.03787 0.650338,0.333596 0.508918,0.613205 0.411336,0.670998 -0.335484,0.198694 z m -62.80466,-0.366557 c 0,-0.194028 0.238125,-0.352778 0.529166,-0.352778 0.291042,0 0.529167,0.15875 0.529167,0.352778 0,0.194028 -0.238125,0.352778 -0.529167,0.352778 -0.291041,0 -0.529166,-0.15875 -0.529166,-0.352778 z m 2.12747,0.176389 c 0,-0.194028 0.153889,-0.590903 0.341974,-0.881945 0.188086,-0.291041 0.341974,-0.370416 0.341974,-0.176389 0,0.194028 -0.153888,0.590903 -0.341974,0.881945 -0.188085,0.291041 -0.341974,0.370416 -0.341974,0.176389 z m 3.285932,-0.367993 c -0.114895,-0.29941 -0.109912,-0.643368 0.01107,-0.764352 0.120984,-0.120983 0.219971,0.05398 0.219971,0.388813 0,0.370338 0.159523,0.510192 0.407285,0.357066 0.252342,-0.155955 0.311525,-0.09677 0.155569,0.15557 -0.338831,0.548239 -0.54454,0.512716 -0.793895,-0.137097 z m 1.289375,0.170784 c 0,-0.205479 0.15875,-0.275485 0.352778,-0.155569 0.194028,0.119916 0.352778,0.288034 0.352778,0.373598 0,0.08556 -0.15875,0.155569 -0.352778,0.155569 -0.194028,0 -0.352778,-0.16812 -0.352778,-0.373598 z m 23.988889,0.02082 c 0,-0.194028 0.15875,-0.352778 0.352778,-0.352778 0.194027,0 0.352777,0.15875 0.352777,0.352778 0,0.194028 -0.15875,0.352778 -0.352777,0.352778 -0.194028,0 -0.352778,-0.15875 -0.352778,-0.352778 z m 28.575,0.0588 c 0,-0.16169 0.238125,-0.293982 0.529166,-0.293982 0.291042,0 0.529167,0.132292 0.529167,0.293982 0,0.16169 -0.238125,0.293982 -0.529167,0.293982 -0.291041,0 -0.529166,-0.132292 -0.529166,-0.293982 z m 4.938888,-0.0588 c 0,-0.194028 0.3175,-0.352778 0.705556,-0.352778 0.388055,0 0.705555,0.15875 0.705555,0.352778 0,0.194028 -0.3175,0.352778 -0.705555,0.352778 -0.388056,0 -0.705556,-0.15875 -0.705556,-0.352778 z m 5.291667,0 c 0,-0.194028 0.357187,-0.350347 0.79375,-0.347376 0.641858,0.0044 0.692489,0.07084 0.264583,0.347376 -0.683951,0.442003 -1.058333,0.442003 -1.058333,0 z m 11.288887,0 c 0,-0.194028 0.15875,-0.352778 0.35278,-0.352778 0.19403,0 0.35278,0.15875 0.35278,0.352778 0,0.194028 -0.15875,0.352778 -0.35278,0.352778 -0.19403,0 -0.35278,-0.15875 -0.35278,-0.352778 z M 28.726195,16.138499 c 0,-0.194028 0.15875,-0.352778 0.352778,-0.352778 0.194027,0 0.352777,0.15875 0.352777,0.352778 0,0.194028 -0.15875,0.352778 -0.352777,0.352778 -0.194028,0 -0.352778,-0.15875 -0.352778,-0.352778 z m -1.763889,-1.411111 c 0,-0.194028 0.238125,-0.352778 0.529167,-0.352778 0.291041,0 0.529166,0.15875 0.529166,0.352778 0,0.194028 -0.238125,0.352778 -0.529166,0.352778 -0.291042,0 -0.529167,-0.15875 -0.529167,-0.352778 z M 88.345639,12.612761 102.98592,12.426641 88.874805,12.246731 74.763694,12.06682 89.363251,12.00058 c 12.710579,-0.05767 14.513539,-0.0011 13.934719,0.43712 -0.55441,0.41975 -3.06726,0.491548 -15.12872,0.432266 L 73.705361,12.79888 Z M 17.018383,12.016956 c 0.254661,-0.101907 0.558932,-0.08937 0.676157,0.02785 0.117225,0.117225 -0.09113,0.200604 -0.463021,0.185286 -0.410966,-0.01693 -0.494559,-0.100521 -0.213136,-0.213136 z m 10.036968,-0.01216 c 0.536244,-0.08109 1.329994,-0.07892 1.763889,0.0048 0.433894,0.08374 -0.0049,0.150081 -0.97499,0.147432 -0.970138,-0.0026 -1.325143,-0.07116 -0.788899,-0.152247 z m 22.749316,0.0042 c 0.436562,-0.08409 1.150937,-0.08409 1.5875,0 0.436562,0.08408 0.07937,0.152883 -0.79375,0.152883 -0.873125,0 -1.230313,-0.0688 -0.79375,-0.152883 z m 9.172222,-0.0093 c 0.824618,-0.07427 2.173993,-0.07427 2.998611,0 0.824618,0.07427 0.149931,0.13504 -1.499305,0.13504 -1.649237,0 -2.323924,-0.06077 -1.499306,-0.13504 z"
         id="path3791"
         inkscape:connector-curvature="0" />
      <path
         style="fill:#d6f3f5;stroke-width:0.35277778"
         d="m 15.285817,29.126274 c -0.174875,-0.326793 -0.317955,-4.006391 -0.317955,-8.176884 0,-6.423008 0.08479,-7.667501 0.554365,-8.137081 0.493311,-0.493311 3.249068,-0.554365 25.022023,-0.554365 21.772954,0 24.528713,0.06105 25.022023,0.554365 0.470228,0.470228 0.553547,1.71507 0.548965,8.202083 -0.0028,4.206245 -0.136779,7.854852 -0.297349,8.108016 -0.234915,0.370382 -5.16787,0.47375 -25.253031,0.529166 -23.082579,0.06369 -24.985015,0.02415 -25.279041,-0.5253 z m 25.434822,-0.287775 c 0,-0.194028 0.699513,-0.352778 1.554473,-0.352778 1.38079,0 1.533858,-0.07883 1.369966,-0.705555 -0.200386,-0.766278 0.414948,-0.983259 0.75033,-0.264584 0.164629,0.352778 0.246944,0.352778 0.411574,0 0.338397,-0.725138 0.918266,-0.498233 0.676157,0.264584 -0.24573,0.774228 -0.150735,0.804889 2.204861,0.711626 0.824618,-0.03265 1.499306,0.09858 1.499306,0.291626 0,0.23181 0.43827,0.229974 1.290757,-0.0054 0.709916,-0.196018 1.860854,-0.254142 2.557639,-0.129164 0.696786,0.124977 3.282375,0.276217 5.745759,0.336089 3.487914,0.08477 4.518875,0.0046 4.659654,-0.362237 0.09943,-0.259101 -0.08912,-0.622135 -0.418994,-0.806742 -0.329875,-0.184607 -0.473399,-0.46202 -0.318946,-0.616474 0.154456,-0.154454 0.391259,-0.110998 0.526228,0.09657 0.134973,0.207568 0.483528,0.3825 0.774569,0.388737 0.291042,0.0062 0.777974,0.115477 1.082072,0.242757 0.490008,0.205092 0.56309,-0.596264 0.64244,-7.0445 0.08227,-6.685108 0.03737,-7.315462 -0.552905,-7.762902 -0.531329,-0.40276 -4.780047,-0.488924 -24.566326,-0.498203 -15.838006,-0.0074 -24.154514,0.112209 -24.60625,0.35397 -0.636811,0.340811 -0.682363,0.800042 -0.682363,6.879167 0,4.107466 0.130329,6.513977 0.352777,6.513977 0.194028,0 0.352778,0.374091 0.352778,0.831314 0,0.973875 -1.051538,0.86346 10.402964,1.092356 5.36447,0.107199 8.507194,0.302636 8.584259,0.533831 0.15881,0.476431 5.707221,0.488041 5.707221,0.01194 z m 14.728472,-0.248967 c 0.436563,-0.08409 1.150938,-0.08409 1.5875,0 0.436563,0.08409 0.07937,0.152883 -0.79375,0.152883 -0.873125,0 -1.230312,-0.0688 -0.79375,-0.152883 z m 5.027084,-0.103811 c 0,-0.194028 -0.674688,-0.371193 -1.499306,-0.3937 -0.824618,-0.02251 -1.181806,-0.120247 -0.79375,-0.217199 0.388056,-0.09695 0.824618,-0.356349 0.970139,-0.576439 0.195347,-0.295447 0.335925,-0.290173 0.53722,0.02015 0.149949,0.231173 0.745261,0.666757 1.322917,0.967965 0.944566,0.492529 0.970389,0.547869 0.256529,0.549824 -0.436562,0.0012 -0.793749,-0.156578 -0.793749,-0.350606 z M 23.081751,27.39799 c 0,-0.145521 0.198437,-0.345102 0.440972,-0.443513 0.333693,-0.1354 0.314722,-0.266621 -0.07798,-0.539384 -0.285422,-0.198249 -0.412045,-0.467358 -0.281382,-0.598021 0.130662,-0.130662 0.494591,0.01946 0.808732,0.333596 0.31414,0.314141 0.450107,0.571164 0.30215,0.571164 -0.147958,0 0.02046,0.211667 0.374256,0.470371 0.586384,0.428774 0.545551,0.47037 -0.46174,0.47037 -0.607756,0 -1.10501,-0.119062 -1.10501,-0.264583 z m 3.351388,0.0294 c -0.127202,-0.205819 0.231522,-0.352778 0.861125,-0.352778 0.593534,0 1.079153,0.15875 1.079153,0.352778 0,0.194028 -0.387506,0.352778 -0.861124,0.352778 -0.473619,0 -0.959238,-0.15875 -1.079154,-0.352778 z m 5.820834,0 c 0,-0.442003 0.374382,-0.442003 1.058333,0 0.427905,0.276533 0.377274,0.343007 -0.264583,0.347376 -0.436563,0.003 -0.79375,-0.153348 -0.79375,-0.347376 z m 3.527777,0 c 0,-0.194028 0.15875,-0.352778 0.352778,-0.352778 0.194028,0 0.352778,0.15875 0.352778,0.352778 0,0.194028 -0.15875,0.352778 -0.352778,0.352778 -0.194028,0 -0.352778,-0.15875 -0.352778,-0.352778 z m 3.351389,0 c -0.119916,-0.194028 0.108841,-0.352778 0.508347,-0.352778 0.399506,0 0.726375,0.15875 0.726375,0.352778 0,0.194028 -0.228755,0.352778 -0.508346,0.352778 -0.279591,0 -0.60646,-0.15875 -0.726376,-0.352778 z m 2.293056,0 c 0,-0.194028 0.15875,-0.352778 0.352778,-0.352778 0.194027,0 0.352777,0.15875 0.352777,0.352778 0,0.194028 -0.15875,0.352778 -0.352777,0.352778 -0.194028,0 -0.352778,-0.15875 -0.352778,-0.352778 z m 6.35,0 c 0,-0.194028 0.15875,-0.352778 0.352777,-0.352778 0.194028,0 0.352778,0.15875 0.352778,0.352778 0,0.194028 -0.15875,0.352778 -0.352778,0.352778 -0.194027,0 -0.352777,-0.15875 -0.352777,-0.352778 z m 1.508108,-0.352778 c -0.02923,-0.388055 0.160249,-0.705555 0.421067,-0.705555 0.300532,0 0.40664,0.258412 0.289709,0.705555 -0.10148,0.388056 -0.29096,0.705556 -0.421068,0.705556 -0.130108,0 -0.260476,-0.3175 -0.289708,-0.705556 z m 1.471506,0.32204 c -0.130366,-0.210934 -0.06036,-0.560184 0.155568,-0.776111 0.288275,-0.288275 0.392595,-0.186368 0.392595,0.383516 0,0.851785 -0.183254,0.983032 -0.548163,0.392595 z m 3.370386,0.03074 c 1.269552,-0.406582 2.116666,-0.406582 2.116666,0 0,0.194028 -0.674687,0.336953 -1.499305,0.317613 -1.273676,-0.02987 -1.366584,-0.07767 -0.617361,-0.317613 z m 6.977729,-0.264583 c -0.197764,-0.762508 0.0283,-1.499306 0.460001,-1.499306 0.17786,0 0.323381,0.47625 0.323381,1.058333 0,1.146997 -0.523798,1.441847 -0.783382,0.440973 z M 17.651438,26.516591 c -0.117772,-0.306911 -0.214132,-0.910161 -0.214132,-1.340556 0,-0.430395 -0.1905,-0.973036 -0.423333,-1.205869 -0.329259,-0.329259 -0.01105,-0.423334 1.431931,-0.423334 1.269792,0 1.778877,0.123597 1.613206,0.391658 -0.140999,0.228142 -0.733783,0.311862 -1.419844,0.20053 -1.084035,-0.175915 -1.14471,-0.138165 -0.762255,0.474243 0.228542,0.365954 0.488243,0.592659 0.577113,0.503788 0.08887,-0.08887 0.538679,0.0855 0.999574,0.387491 0.480721,0.31498 1.169545,0.45873 1.615661,0.33717 0.721538,-0.196608 0.729436,-0.181903 0.109426,0.203725 -0.531349,0.330483 -0.864485,0.299704 -1.626194,-0.150248 -0.908357,-0.53658 -1.409729,-0.472604 -1.409729,0.179884 0,0.16169 0.238125,0.293982 0.529166,0.293982 0.291042,0 0.529167,0.15875 0.529167,0.352777 0,0.575461 -1.317109,0.40103 -1.549757,-0.205241 z m 2.960868,0.205241 c 0.695286,-0.449327 2.116667,-0.449327 2.116667,0 0,0.194028 -0.595313,0.350347 -1.322917,0.347376 -0.984031,-0.004 -1.187362,-0.093 -0.79375,-0.347376 z m 25.752778,0 c 0,-0.194027 0.168119,-0.352777 0.373597,-0.352777 0.205479,0 0.275485,0.15875 0.155569,0.352777 -0.119916,0.194028 -0.288034,0.352778 -0.373597,0.352778 -0.08556,0 -0.155569,-0.15875 -0.155569,-0.352778 z m -8.622842,-0.500323 c 0.376328,-0.275177 0.75926,-0.425296 0.850959,-0.333596 0.194155,0.194154 -0.715553,0.820583 -1.203183,0.828517 -0.182605,0.003 -0.0241,-0.219743 0.352224,-0.494921 z m 5.00099,0.10377 c 0.239301,-0.241095 0.52396,-0.349487 0.632575,-0.240871 0.108616,0.108616 -0.08718,0.305875 -0.435092,0.438354 -0.502778,0.191447 -0.5433,0.150926 -0.197483,-0.197483 z M 28.373417,26.016277 c 0,-0.194028 0.238125,-0.352778 0.529167,-0.352778 0.291041,0 0.529166,0.15875 0.529166,0.352778 0,0.194028 -0.238125,0.352778 -0.529166,0.352778 -0.291042,0 -0.529167,-0.15875 -0.529167,-0.352778 z M 54.83175,25.869286 c 0,-0.274873 -0.198437,-0.57984 -0.440972,-0.677705 -0.254286,-0.102606 -0.168945,-0.189727 0.201588,-0.205787 0.714488,-0.03097 1.74009,0.823296 1.39851,1.164874 -0.405208,0.40521 -1.159126,0.222193 -1.159126,-0.281382 z M 24.845639,25.527683 c 0,-0.0747 0.436563,-0.419924 0.970139,-0.767167 0.760262,-0.494766 0.871555,-0.510965 0.514443,-0.07488 -0.37241,0.454767 -0.37241,0.58989 0,0.739316 0.250633,0.100564 0.01913,0.195377 -0.514443,0.210695 -0.533576,0.01532 -0.970139,-0.03327 -0.970139,-0.107965 z m 9.260417,-0.39188 c -0.242535,-0.275472 -0.420074,-1.023496 -0.394532,-1.662276 l 0.04644,-1.161417 0.221503,1.234722 c 0.205462,1.145304 0.306514,1.227937 1.395376,1.141021 1.048817,-0.08372 1.116913,-0.03674 0.6392,0.440972 -0.660991,0.660992 -1.330018,0.663438 -1.907987,0.007 z m 5.203472,0.174918 c 0,-0.194028 0.15875,-0.352778 0.352778,-0.352778 0.194028,0 0.352778,0.15875 0.352778,0.352778 0,0.194028 -0.15875,0.352778 -0.352778,0.352778 -0.194028,0 -0.352778,-0.15875 -0.352778,-0.352778 z m 3.407098,-0.158422 c -0.131112,-0.341673 -0.02664,-0.446147 0.315035,-0.315035 0.28116,0.107891 0.5112,0.337932 0.5112,0.511201 0,0.507161 -0.61211,0.361833 -0.826235,-0.196166 z m 5.235958,0.158422 c -0.123657,-0.200081 0.172725,-0.352778 0.684735,-0.352778 0.49652,0 0.902765,0.15875 0.902765,0.352778 0,0.194028 -0.308131,0.352778 -0.684736,0.352778 -0.376605,0 -0.782849,-0.15875 -0.902764,-0.352778 z m 11.751909,-0.240987 c 0.25466,-0.101907 0.558931,-0.08937 0.676159,0.02785 0.117224,0.117225 -0.09114,0.200604 -0.463021,0.185286 -0.410969,-0.01693 -0.494559,-0.100521 -0.213138,-0.213136 z M 27.667862,24.616238 c 0,-0.187939 0.238125,-0.250329 0.529166,-0.138646 0.291042,0.111683 0.529167,0.265451 0.529167,0.341706 0,0.07625 -0.238125,0.138645 -0.529167,0.138645 -0.291041,0 -0.529166,-0.153767 -0.529166,-0.341705 z m 18.697222,-0.01107 c 0,-0.194028 0.149381,-0.352778 0.331957,-0.352778 0.182577,0 0.430071,0.15875 0.549987,0.352778 0.119916,0.194027 -0.02946,0.352777 -0.331958,0.352777 -0.302492,0 -0.549986,-0.15875 -0.549986,-0.352777 z m 11.821611,-0.0058 c 0.121871,-0.197193 0.369365,-0.267199 0.549988,-0.155569 0.489316,0.302414 0.398078,0.5141 -0.221587,0.5141 -0.302493,0 -0.450272,-0.161339 -0.328401,-0.358532 z m -19.9355,-0.523413 c 0,-0.291042 0.06239,-0.529167 0.138645,-0.529167 0.07626,0 0.230023,0.238125 0.341706,0.529167 0.111684,0.291042 0.04929,0.529167 -0.138645,0.529167 -0.187938,0 -0.341706,-0.238125 -0.341706,-0.529167 z M 27.656891,23.261938 c 0.436423,-0.641762 0.871616,-1.088719 0.967096,-0.993239 0.09548,0.09548 -0.261593,0.620557 -0.793496,1.166839 l -0.967096,0.993239 z m 13.244643,0.644963 c -0.117437,-0.190018 -0.03037,-0.687715 0.193488,-1.105994 0.324804,-0.606902 0.469513,-0.661814 0.716467,-0.271874 0.170202,0.268748 0.309457,0.647383 0.309457,0.84141 0,0.194028 -0.136475,0.137392 -0.303278,-0.125858 -0.211417,-0.333659 -0.376369,-0.360373 -0.544585,-0.08819 -0.132718,0.214743 -0.143193,0.549191 -0.02328,0.743219 0.119916,0.194028 0.138654,0.352778 0.04164,0.352778 -0.09701,0 -0.272475,-0.155469 -0.389912,-0.345487 z m 7.406325,-0.356028 c -0.123592,-0.199976 0.01801,-0.259118 0.331958,-0.138645 0.611158,0.234523 0.722978,0.487382 0.215531,0.487382 -0.182577,0 -0.428947,-0.156932 -0.547489,-0.348737 z m 3.172502,-0.004 c -0.475301,-0.204244 -0.532867,-0.313042 -0.176389,-0.333384 0.432372,-0.02467 0.441615,-0.08567 0.05053,-0.333476 -0.308603,-0.19554 -0.348594,-0.38365 -0.112571,-0.529519 0.201334,-0.124432 0.43193,-0.104588 0.512434,0.0441 0.217026,0.400835 0.597803,1.508921 0.508674,1.480265 -0.04242,-0.01364 -0.394624,-0.16123 -0.78268,-0.327983 z m 5.468056,-0.03774 c 0,-0.214787 -0.238125,-0.299144 -0.529167,-0.187461 -0.825958,0.316951 -0.623954,0.01372 0.440972,-0.661964 0.533577,-0.338545 0.784109,-0.416833 0.556733,-0.173974 -0.227372,0.24286 -0.329449,0.660343 -0.22684,0.927741 0.102613,0.267399 0.09021,0.486179 -0.02757,0.486179 -0.117775,0 -0.214132,-0.175734 -0.214132,-0.390521 z M 20.729899,23.033184 c 0,-0.282507 0.134881,-0.430287 0.299736,-0.328401 0.164854,0.101885 0.208402,0.333027 0.09677,0.513648 -0.285264,0.461568 -0.396508,0.409595 -0.396508,-0.185247 z m 24.95748,-0.397694 c 0.01693,-0.410966 0.100521,-0.494559 0.213136,-0.213137 0.101908,0.254662 0.08938,0.558933 -0.02785,0.676158 -0.117226,0.117225 -0.200604,-0.09113 -0.185286,-0.463021 z m -9.200073,-0.146991 c 0,-0.194028 0.168119,-0.352778 0.373598,-0.352778 0.205478,0 0.275484,0.15875 0.155569,0.352778 -0.119916,0.194028 -0.288035,0.352778 -0.373598,0.352778 -0.08556,0 -0.155569,-0.15875 -0.155569,-0.352778 z m 23.445216,-0.376248 c -0.127893,-0.206937 -0.156874,-0.451909 -0.0644,-0.544382 0.09247,-0.09247 0.262135,0.07684 0.377031,0.376249 0.238542,0.621632 0.03524,0.730976 -0.312631,0.168133 z M 18.848417,21.794015 c 0,-0.187938 0.238125,-0.250329 0.529167,-0.138645 0.291042,0.111683 0.529167,0.265451 0.529167,0.341706 0,0.07625 -0.238125,0.138645 -0.529167,0.138645 -0.291042,0 -0.529167,-0.153767 -0.529167,-0.341706 z m 14.872369,-0.363849 c 0,-0.48507 0.08007,-0.683507 0.177936,-0.440972 0.09786,0.242534 0.09786,0.639409 0,0.881944 -0.09786,0.242535 -0.177936,0.0441 -0.177936,-0.440972 z m 17.583186,0 c 0,-0.194028 0.16812,-0.352778 0.373599,-0.352778 0.205479,0 0.275484,0.15875 0.155568,0.352778 -0.119916,0.194028 -0.288036,0.352778 -0.373599,0.352778 -0.08556,0 -0.155568,-0.15875 -0.155568,-0.352778 z m -5.820833,-0.352778 c -0.119916,-0.194028 -0.05489,-0.352778 0.144497,-0.352778 0.19939,0 0.273158,-0.277812 0.163931,-0.617361 -0.157262,-0.488868 -0.125038,-0.513883 0.154822,-0.120186 0.194379,0.273447 0.271745,0.710009 0.171923,0.970139 -0.216902,0.56524 -0.34512,0.589501 -0.635173,0.120186 z m 8.351721,-0.212632 c 0.316149,-0.31615 0.74397,-0.516705 0.950712,-0.445676 0.206741,0.07103 -0.05193,0.329696 -0.57482,0.574818 -0.878635,0.411888 -0.907133,0.402097 -0.375892,-0.129142 z m 3.361323,0.09504 c -0.09927,-0.258704 0.02734,-0.470371 0.2814,-0.470371 0.254046,0 0.380676,0.211667 0.281401,0.470371 -0.226826,0.591099 -0.335975,0.591099 -0.562801,0 z M 18.613232,20.56374 c 0,-0.282507 0.134881,-0.430288 0.299736,-0.328402 0.164855,0.101886 0.208403,0.333028 0.09677,0.513648 -0.285265,0.461569 -0.396509,0.409596 -0.396509,-0.185246 z m 21.401852,0.0053 c 0,-0.279591 0.143945,-0.59731 0.319878,-0.706042 0.175933,-0.108733 0.236793,0.120023 0.135244,0.508347 -0.215411,0.823731 -0.455122,0.927857 -0.455122,0.197695 z M 29.784528,20.048453 c 0,-0.371887 -0.198437,-0.756229 -0.440972,-0.854094 -0.263434,-0.106298 -0.192418,-0.189149 0.176389,-0.205787 0.43076,-0.01943 0.617361,0.238722 0.617361,0.854094 0,0.485069 -0.07937,0.881944 -0.176389,0.881944 -0.09701,0 -0.176389,-0.304271 -0.176389,-0.676157 z M 42.21524,19.750835 c -0.411887,-0.878635 -0.402097,-0.907133 0.129143,-0.375894 0.316149,0.31615 0.516704,0.74397 0.445676,0.950712 -0.07103,0.206741 -0.329697,-0.05193 -0.574819,-0.574818 z m 6.200364,0.732788 c 0.254662,-0.101907 0.558933,-0.08937 0.676158,0.02785 0.117225,0.117225 -0.09114,0.200604 -0.463021,0.185286 -0.410966,-0.01693 -0.494559,-0.100521 -0.213137,-0.213136 z M 20.237749,19.774119 c 0.514154,-1.051954 1.0602,-1.333967 1.551823,-0.801461 0.317956,0.344397 0.300153,0.381618 -0.07914,0.16547 -0.321269,-0.18308 -0.723255,0.01121 -1.170205,0.565607 -0.620069,0.769125 -0.647062,0.775406 -0.302474,0.07038 z m 16.955112,-0.41898 c 0,-0.194028 0.15875,-0.450891 0.352778,-0.570807 0.194028,-0.119915 0.352778,-0.05928 0.352778,0.13475 0,0.194027 -0.15875,0.45089 -0.352778,0.570806 -0.194028,0.119916 -0.352778,0.05928 -0.352778,-0.134749 z M 44.513,19.079861 c 0.242535,-0.09787 0.63941,-0.09787 0.881945,0 0.242534,0.09786 0.0441,0.177936 -0.440973,0.177936 -0.485069,0 -0.683506,-0.08007 -0.440972,-0.177936 z m 15.454362,-0.08624 c -0.108733,-0.175933 0.120022,-0.236793 0.508346,-0.135244 0.823732,0.215411 0.927858,0.455122 0.197696,0.455122 -0.27959,0 -0.597309,-0.143945 -0.706042,-0.319878 z m -31.78484,-0.409148 c -0.127893,-0.206937 -0.156874,-0.451908 -0.0644,-0.544381 0.09247,-0.09247 0.262137,0.07684 0.377032,0.376248 0.238542,0.621632 0.03523,0.730976 -0.312631,0.168133 z m 3.624599,-1.078638 c 0.239301,-0.241095 0.52396,-0.349487 0.632575,-0.240871 0.108616,0.108615 -0.08717,0.305875 -0.435092,0.438354 -0.502778,0.191447 -0.5433,0.150926 -0.197483,-0.197483 z m -5.55037,-1.014558 c -0.208611,-0.389792 -0.23258,-0.705556 -0.05356,-0.705556 0.178224,0 0.407073,0.3175 0.508551,0.705556 0.101479,0.388056 0.12558,0.705556 0.05356,0.705556 -0.07202,0 -0.300871,-0.3175 -0.508551,-0.705556 z M 24.01251,16.314888 c 0.111683,-0.291042 0.364264,-0.529167 0.561291,-0.529167 0.206482,0 0.172196,0.224158 -0.08094,0.529167 -0.241543,0.291042 -0.494124,0.529167 -0.561291,0.529167 -0.06717,0 -0.03075,-0.238125 0.08094,-0.529167 z m -6.222426,12.170833 c 0,-0.194028 -0.07001,-0.352778 -0.155569,-0.352778 -0.08556,0 -0.253682,0.15875 -0.373598,0.352778 -0.119915,0.194028 -0.04991,0.352778 0.155569,0.352778 0.205479,0 0.373598,-0.15875 0.373598,-0.352778 z m 53.852984,1.146528 c -0.09001,-0.145521 7.143372,-0.221746 16.074185,-0.16939 11.780337,0.06906 16.371127,-0.01543 16.723387,-0.307779 0.29926,-0.248359 0.48555,-0.265526 0.48555,-0.04474 0,0.197027 -0.2511,0.45459 -0.55802,0.572363 -0.81283,0.311915 -32.531212,0.263016 -32.725102,-0.05045 z m 9.294237,-2.85162 c 0,-0.16169 0.231144,-0.293982 0.513648,-0.293982 0.282508,0 0.431888,0.132292 0.331957,0.293982 -0.09993,0.161689 -0.331071,0.293981 -0.513648,0.293981 -0.182576,0 -0.331957,-0.132292 -0.331957,-0.293981 z m 10.517188,-1.710895 c 0.254659,-0.101907 0.55893,-0.08937 0.676158,0.02785 0.117225,0.117225 -0.09114,0.200604 -0.463021,0.185286 -0.410968,-0.01693 -0.494559,-0.100521 -0.213137,-0.213136 z m -2.728225,-0.783828 c -0.02712,-0.826305 -0.0095,-0.831778 0.677704,-0.209907 0.796029,0.720395 0.973832,1.190987 0.210696,0.557638 -0.380005,-0.315375 -0.537301,-0.30493 -0.677707,0.045 -0.100563,0.250633 -0.195375,0.0739 -0.210693,-0.39273 z m 7.788959,-0.739074 c 0,-0.485069 0.08007,-0.683507 0.177938,-0.440972 0.09786,0.242535 0.09786,0.63941 0,0.881945 -0.09786,0.242534 -0.177938,0.0441 -0.177938,-0.440973 z m -13.658176,-0.03322 c -0.131208,-0.212299 -0.612023,-0.314607 -1.068475,-0.22735 -0.456456,0.08726 -0.745981,0.02283 -0.643386,-0.143168 0.268489,-0.434424 1.908782,-0.37274 1.908782,0.07178 0,0.205478 0.183279,0.260325 0.407285,0.121881 0.252342,-0.155956 0.311524,-0.09677 0.155568,0.155569 -0.313224,0.506811 -0.45721,0.510845 -0.759774,0.02129 z m 8.193218,-1.965853 c -0.544597,-0.544597 -0.215311,-1.528703 0.511514,-1.528703 0.57319,0 0.703799,-0.164064 0.562067,-0.706043 -0.101547,-0.388323 -0.04069,-0.617079 0.135244,-0.508346 0.586754,0.362634 0.329311,1.277976 -0.414119,1.472387 -0.505841,0.13228 -0.680593,0.396157 -0.562193,0.848917 0.184541,0.705692 0.137227,0.791528 -0.232513,0.421788 z m 5.43711,-0.676157 c 0.01693,-0.410966 0.100521,-0.494559 0.213134,-0.213137 0.101907,0.254662 0.08938,0.558933 -0.02783,0.676158 -0.117228,0.117225 -0.200603,-0.09114 -0.185286,-0.463021 z M 83.759528,20.589366 c 0,-0.07438 0.317718,-0.218329 0.706042,-0.319878 0.388324,-0.101549 0.617079,-0.04069 0.508346,0.135244 -0.189883,0.307237 -1.214388,0.463002 -1.214388,0.184634 z m 4.896964,-1.198756 c -0.116219,-0.701047 -0.06445,-1.030151 0.131265,-0.834438 0.177744,0.177746 0.264104,0.698671 0.191911,1.157612 -0.111082,0.706148 -0.160771,0.656462 -0.323176,-0.323174 z m 6.160883,0.436841 c -0.114896,-0.29941 -0.109911,-0.643368 0.01108,-0.764352 0.120978,-0.120983 0.219964,0.03138 0.219964,0.338595 0,0.30721 0.198438,0.638636 0.440972,0.7365 0.345391,0.139368 0.342992,0.183973 -0.01108,0.205788 -0.248627,0.01532 -0.54605,-0.217121 -0.660943,-0.516531 z m -13.88007,0.05841 c 0,-0.07326 0.277813,-0.351069 0.617361,-0.617361 0.559527,-0.43881 0.572005,-0.426333 0.133195,0.133193 -0.460858,0.587638 -0.750556,0.774516 -0.750556,0.484168 z m 13.108478,-0.572363 c 0,-0.485069 0.08007,-0.683507 0.177938,-0.440972 0.09786,0.242535 0.09786,0.63941 0,0.881944 -0.09786,0.242535 -0.177938,0.0441 -0.177938,-0.440972 z m -15.9307,0 -1.5875,-0.246808 1.675695,-0.05298 c 0.921632,-0.02914 1.675694,0.105765 1.675694,0.299793 0,0.194028 -0.03969,0.328935 -0.08819,0.299793 -0.04851,-0.02914 -0.80257,-0.164049 -1.675695,-0.299793 z M 90.991472,18.96072 c 0.119916,-0.194027 0.288036,-0.352777 0.373599,-0.352777 0.08556,0 0.155568,0.15875 0.155568,0.352777 0,0.194028 -0.16812,0.352778 -0.373599,0.352778 -0.205479,0 -0.275484,-0.15875 -0.155568,-0.352778 z m 2.137435,-1.245941 c -0.376633,-0.284871 -0.515134,-0.517947 -0.307778,-0.517947 0.207352,0 0.574633,0.238125 0.816176,0.529166 0.549346,0.661923 0.376534,0.658109 -0.508398,-0.01122 z m 3.638398,0.09941 c 0.266294,-0.339549 0.821919,-0.598946 1.234722,-0.576439 0.71289,0.03887 0.715148,0.04963 0.045,0.214351 -0.388055,0.09539 -0.94368,0.354783 -1.234722,0.576438 -0.460223,0.350503 -0.466086,0.322576 -0.045,-0.21435 z m -9.48,-0.264584 C 86.96935,17.344126 86.925839,17.205476 87.17829,17.20223 c 0.231083,-0.003 0.518266,0.153348 0.638182,0.347375 0.270686,0.437983 0.148562,0.437983 -0.529167,0 z m 2.728147,-0.04378 c 0.239303,-0.241095 0.52396,-0.349487 0.632577,-0.240871 0.108616,0.108615 -0.08717,0.305875 -0.435092,0.438354 -0.502779,0.191447 -0.543299,0.150926 -0.197485,-0.197483 z m -9.849848,-0.197212 c 0.25466,-0.101907 0.55893,-0.08937 0.676159,0.02785 0.117224,0.117225 -0.09114,0.200604 -0.463021,0.185286 -0.410969,-0.01693 -0.494559,-0.100521 -0.213138,-0.213136 z M 79.438,12.346491 c 4.317118,-0.05612 11.381493,-0.05612 15.698611,0 4.317118,0.05612 0.78493,0.102046 -7.849306,0.102046 -8.634236,0 -12.166423,-0.04592 -7.849305,-0.102046 z m 23.98889,0.03059 c 0.24253,-0.09787 0.63941,-0.09787 0.88194,0 0.24254,0.09786 0.0441,0.177936 -0.44097,0.177936 -0.48507,0 -0.68351,-0.08007 -0.44097,-0.177936 z"
         id="path3789"
         inkscape:connector-curvature="0" />
      <path
         style="fill:#a6e2ed;stroke-width:0.35277778"
         d="m 19.977101,29.634426 c 1.687929,-0.06453 4.545429,-0.06483 6.35,-6.71e-4 1.804571,0.06415 0.423538,0.116948 -3.068962,0.117318 -3.4925,3.69e-4 -4.968967,-0.05212 -3.281038,-0.116647 z m 19.949788,-0.0018 c 4.317118,-0.05612 11.381493,-0.05612 15.698611,0 4.317118,0.05613 0.784931,0.102045 -7.849305,0.102045 -8.634236,0 -12.166424,-0.04592 -7.849306,-0.102045 z m 41.172299,-3.287018 c -0.127893,-0.206937 -0.156873,-0.451908 -0.0644,-0.544381 0.09247,-0.09247 0.262135,0.07684 0.377032,0.376248 0.238541,0.621632 0.03524,0.730976 -0.312632,0.168133 z M 21.935223,25.782639 c 0.242535,-0.09786 0.63941,-0.09786 0.881944,0 0.242535,0.09786 0.0441,0.177936 -0.440972,0.177936 -0.485069,0 -0.683507,-0.08007 -0.440972,-0.177936 z m -2.734028,-0.471918 c -0.291042,-0.188085 -0.370417,-0.341973 -0.176389,-0.341973 0.194028,0 0.590903,0.153888 0.881945,0.341973 0.291041,0.188086 0.370416,0.341974 0.176388,0.341974 -0.194027,0 -0.590902,-0.153888 -0.881944,-0.341974 z m 4.586111,0.217534 c 0,-0.07438 0.317719,-0.218329 0.706042,-0.319878 0.388324,-0.101549 0.61708,-0.04069 0.508347,0.135244 -0.189883,0.307237 -1.214389,0.463002 -1.214389,0.184634 z m 58.95481,-1.011284 c -0.02988,-0.708487 -0.224239,-0.970139 -0.720612,-0.970139 -0.373828,0 -0.752288,0.277813 -0.841018,0.617361 -0.151201,0.578587 -0.163904,0.577892 -0.202258,-0.01107 -0.04898,-0.752223 0.778435,-1.139122 1.634772,-0.764415 0.339548,0.148576 0.703467,0.255921 0.808711,0.238543 0.105241,-0.01738 0.217276,0.312606 0.248966,0.733296 0.04196,0.556957 -0.02434,0.632303 -0.243815,0.277162 -0.239378,-0.387322 -0.336677,-0.350094 -0.472627,0.180837 -0.121342,0.473876 -0.183113,0.386056 -0.212119,-0.301572 z m -64.952032,-0.08819 c -0.253135,-0.305009 -0.287421,-0.529167 -0.08094,-0.529167 0.197027,0 0.449607,0.238125 0.56129,0.529167 0.111684,0.291041 0.148106,0.529166 0.08094,0.529166 -0.06717,0 -0.319748,-0.238125 -0.561291,-0.529166 z m 32.652712,0.0067 c 0.59272,-0.45222 0.613643,-0.570068 0.155621,-0.876543 -0.321021,-0.214804 -0.363901,-0.356204 -0.109016,-0.359481 0.231084,-0.003 0.522563,0.160302 0.647732,0.362829 0.260707,0.421831 -0.438527,1.395658 -1.002114,1.395658 -0.207356,0 -0.06886,-0.235108 0.307777,-0.522462 z m 2.227287,-0.0949 c -0.447855,-0.57106 -0.431253,-0.578547 0.221389,-0.09982 0.388056,0.284645 0.771702,0.562457 0.852548,0.617361 0.08084,0.0549 -0.01878,0.09982 -0.221389,0.09982 -0.202608,0 -0.586254,-0.277812 -0.852548,-0.617361 z m 25.147922,-0.08819 c 0,-0.48507 0.08007,-0.683507 0.177938,-0.440972 0.09786,0.242534 0.09786,0.639409 0,0.881944 -0.09786,0.242535 -0.177938,0.0441 -0.177938,-0.440972 z M 92.93175,24.82475 c 0,-0.07326 0.277812,-0.351068 0.617361,-0.617361 0.559526,-0.43881 0.572004,-0.426332 0.133195,0.133193 -0.460859,0.587639 -0.750556,0.774517 -0.750556,0.484168 z m 5.42363,-3.570973 c 7.05e-4,-2.134306 0.0589,-2.961947 0.12912,-1.839202 0.07022,1.122744 0.06957,2.868994 -0.0014,3.880555 -0.07105,1.011561 -0.128506,0.09295 -0.127709,-2.041353 z m -62.854601,0.440972 -0.07181,-3.086805 1.146527,0.05286 c 1.046722,0.04826 1.063287,0.06553 0.1903,0.198479 -0.938316,0.142893 -0.958449,0.19973 -1.074722,3.033948 l -0.118493,2.888327 z m -14.930835,1.896345 0.839582,-0.645606 -0.829883,-0.581272 c -0.456436,-0.3197 -0.666152,-0.581272 -0.466036,-0.581272 0.200115,0 0.669893,0.223787 1.043951,0.497304 0.667384,0.488003 0.667622,0.511096 0.01275,1.234722 -0.367045,0.40558 -0.841187,0.733888 -1.05365,0.729574 -0.212463,-0.0043 -0.0085,-0.298367 0.453286,-0.65345 z m 6.427778,0.05998 c 0.256873,-0.427738 0.542977,-0.70177 0.635786,-0.608961 0.09281,0.09281 -0.117359,0.442777 -0.467041,0.777706 -0.607462,0.581832 -0.61498,0.574314 -0.168745,-0.168745 z m 31.425394,-1.003821 c -0.03496,-0.97984 -0.22177,-1.972595 -0.415106,-2.206121 -0.193333,-0.233526 -0.104267,-0.210227 0.197925,0.05177 0.398682,0.345657 0.512583,0.950997 0.415107,2.206121 l -0.134338,1.729753 z m 2.141273,1.241368 c -0.524912,-0.210993 -0.77748,-0.59174 -0.745709,-1.124171 l 0.04804,-0.805118 0.152883,0.79375 c 0.08409,0.436563 0.3706,0.79375 0.636693,0.79375 0.266097,0 0.581925,0.15875 0.701841,0.352778 0.252772,0.408993 0.251061,0.40897 -0.79375,-0.01099 z m 28.117348,-0.841553 c 0.3663,-0.997582 1.653371,-1.162299 1.943336,-0.248703 0.122852,0.387074 0.573049,0.771584 1.000439,0.854468 l 0.777071,0.150697 -0.781339,0.04804 c -0.455588,0.02801 -0.938763,-0.246112 -1.158939,-0.657513 -0.485867,-0.90785 -1.558759,-0.955485 -1.324271,-0.0588 0.09839,0.376224 -0.01813,0.64676 -0.278515,0.64676 -0.304786,0 -0.361519,-0.234551 -0.177782,-0.734954 z m 8.212413,-0.558565 c 0,-0.679097 0.0726,-0.95691 0.161335,-0.617361 0.08873,0.339549 0.08873,0.895174 0,1.234722 -0.08873,0.339549 -0.161335,0.06174 -0.161335,-0.617361 z m -13.134622,0.572363 c 0,-0.07326 0.277812,-0.351069 0.617361,-0.617361 0.559526,-0.438811 0.572004,-0.426333 0.133194,0.133193 -0.460858,0.587638 -0.750555,0.774516 -0.750555,0.484168 z m 8.847296,-0.29025 c -0.01531,-0.329907 -0.305665,-0.761642 -0.645213,-0.959411 -0.339549,-0.197769 -0.438362,-0.364408 -0.219583,-0.370308 0.582147,-0.0157 1.285652,0.951117 1.074536,1.476717 -0.11714,0.291635 -0.191805,0.239306 -0.20974,-0.146998 z M 39.485917,22.488499 c -0.119916,-0.194028 -0.04991,-0.352778 0.155569,-0.352778 0.205479,0 0.373598,0.15875 0.373598,0.352778 0,0.194028 -0.07001,0.352778 -0.155569,0.352778 -0.08556,0 -0.253682,-0.15875 -0.373598,-0.352778 z m 3.550459,-0.249369 c -0.191447,-0.502778 -0.150926,-0.543299 0.197483,-0.197483 0.241095,0.239301 0.349487,0.52396 0.240871,0.632576 -0.108616,0.108616 -0.305875,-0.08718 -0.438354,-0.435093 z m 5.180791,0.349468 c 0.533576,-0.08083 1.406701,-0.08083 1.940278,0 0.533576,0.08083 0.09701,0.146964 -0.970139,0.146964 -1.067153,0 -1.503715,-0.06613 -0.970139,-0.146964 z m 5.997222,0 c 0.533576,-0.08083 1.406701,-0.08083 1.940278,0 0.533576,0.08083 0.09701,0.146964 -0.970139,0.146964 -1.067153,0 -1.503715,-0.06613 -0.970139,-0.146964 z m 23.900694,0.121032 c 0,-0.380992 1.401308,-3.043353 1.601841,-3.043353 0.09701,0 -0.163852,0.674687 -0.579703,1.499305 -0.817795,1.62167 -1.022138,1.930352 -1.022138,1.544048 z M 51.495428,22.160098 c -0.111633,-0.180621 -0.04162,-0.428115 0.155568,-0.549987 0.197193,-0.121872 0.358532,0.02591 0.358532,0.328402 0,0.619663 -0.211688,0.710903 -0.5141,0.221585 z m 33.675211,-0.292295 c 0,-0.147355 0.357187,-0.487343 0.79375,-0.755528 0.790931,-0.485878 0.791361,-0.484926 0.121711,0.267918 -0.718989,0.808316 -0.915461,0.912964 -0.915461,0.48761 z m 2.116666,-0.04712 c 0,-0.173269 0.26058,-0.415028 0.579064,-0.537243 0.48418,-0.185796 0.506003,-0.134174 0.133195,0.315035 -0.508046,0.612156 -0.712259,0.675866 -0.712259,0.222208 z m 6.457216,-0.349936 c -0.267906,-0.428985 -0.281294,-0.793197 -0.04156,-1.130484 0.287997,-0.405191 0.31986,-0.390934 0.17158,0.07677 -0.100157,0.315906 -0.0067,0.749822 0.207786,0.964259 0.214436,0.214438 0.315084,0.464687 0.223661,0.556111 -0.09143,0.09142 -0.344085,-0.118572 -0.561467,-0.466658 z m -74.588349,0.223998 c -0.02476,-0.04851 -0.08309,-0.458392 -0.129608,-0.910856 -0.06678,-0.649509 0.05504,-0.786147 0.578806,-0.64918 0.417778,0.109251 0.796892,-0.07596 1.023965,-0.500256 0.535329,-1.00027 1.04135,-0.816955 0.567141,0.205456 -0.265001,0.571354 -0.698918,0.880156 -1.239274,0.881945 -0.5936,0.002 -0.773397,0.154149 -0.628433,0.531919 0.160733,0.418864 0.01118,0.800967 -0.172597,0.440972 z m 28.888719,-0.161311 c 0.438825,-0.08438 1.073825,-0.08118 1.411111,0.0071 0.337287,0.0883 -0.02175,0.157337 -0.797863,0.153422 -0.776111,-0.0039 -1.052072,-0.07616 -0.613248,-0.160541 z m 5.997223,0 c 0.438823,-0.08438 1.073823,-0.08118 1.411111,0.0071 0.337287,0.0883 -0.02177,0.157337 -0.797864,0.153422 -0.776111,-0.0039 -1.052071,-0.07616 -0.613247,-0.160542 z m 5.756377,-0.503119 c -0.01662,-0.344062 0.323194,-0.643341 0.843417,-0.742788 0.479196,-0.09161 0.78733,-0.03074 0.684735,0.135263 -0.102591,0.165999 -0.402061,0.301816 -0.66548,0.301816 -0.263423,0 -0.559022,0.198438 -0.656886,0.440972 -0.112942,0.279898 -0.188109,0.230491 -0.205786,-0.135263 z m 20.632328,-0.409118 c 0.132478,-0.347917 0.329738,-0.543708 0.438354,-0.435092 0.108617,0.108615 2.26e-4,0.393274 -0.240869,0.632575 -0.348411,0.345817 -0.388931,0.305295 -0.197485,-0.197483 z m 16.227777,-0.145959 c -0.191445,-0.502779 -0.150925,-0.5433 0.197485,-0.197484 0.241096,0.239301 0.349487,0.52396 0.24087,0.632576 -0.108617,0.108616 -0.305876,-0.08718 -0.438355,-0.435092 z M 29.236364,20.341094 C 29.106,20.13016 29.176006,19.78091 29.391933,19.564983 c 0.288275,-0.288275 0.392595,-0.186367 0.392595,0.383516 0,0.851786 -0.183253,0.983032 -0.548164,0.392595 z m 57.622912,-0.674817 c -0.08543,-0.582083 -0.02406,-1.058333 0.136349,-1.058333 0.160426,0 0.29168,0.47625 0.29168,1.058333 0,0.582083 -0.06136,1.058333 -0.136348,1.058333 -0.07499,0 -0.206248,-0.47625 -0.291681,-1.058333 z m 4.308585,0.923089 c 0,-0.07438 0.317718,-0.218329 0.706042,-0.319878 0.388324,-0.101549 0.617079,-0.04069 0.508346,0.135244 -0.189883,0.307237 -1.214388,0.463002 -1.214388,0.184634 z M 46.365084,20.238639 c 0,-0.07326 0.277812,-0.351068 0.617361,-0.617361 0.559525,-0.43881 0.572003,-0.426332 0.133193,0.133193 -0.460858,0.587639 -0.750554,0.774517 -0.750554,0.484168 z m 5.997222,0 c 0,-0.07326 0.277812,-0.351068 0.617361,-0.617361 0.559527,-0.43881 0.572004,-0.426332 0.133195,0.133193 -0.460859,0.587639 -0.750556,0.774517 -0.750556,0.484168 z m 3.835555,-0.484168 c -0.43881,-0.559525 -0.426332,-0.572003 0.133195,-0.133193 0.587639,0.460858 0.774516,0.750554 0.484166,0.750554 -0.07325,0 -0.351067,-0.277812 -0.617361,-0.617361 z m 27.249811,-0.176389 c 0.0308,-0.597312 0.08085,-0.640965 0.202258,-0.176388 0.218832,0.837395 1.068236,0.781669 1.34432,-0.08819 0.123165,-0.388055 0.375645,-0.705555 0.561072,-0.705555 0.185427,0 0.0771,0.396875 -0.240736,0.881944 -0.743603,1.134885 -1.92375,1.190636 -1.866914,0.08819 z M 22.756824,19.46049 c 0.01693,-0.410966 0.10052,-0.494559 0.213136,-0.213137 0.101907,0.254662 0.08937,0.558933 -0.02785,0.676158 -0.117225,0.117225 -0.200603,-0.09114 -0.185286,-0.463021 z m 66.299771,-0.0588 c 0.0028,-0.339549 0.166543,-0.855486 0.363495,-1.146528 0.265681,-0.392606 0.299935,-0.278805 0.132744,0.440972 -0.262061,1.128185 0.384185,1.332174 1.117617,0.352778 0.420522,-0.561549 0.444239,-0.545602 0.262329,0.176389 -0.249992,0.992218 -1.884666,1.145902 -1.876185,0.176389 z M 81.163926,19.3135 c 0.221658,-0.291042 0.481055,-0.846666 0.576439,-1.234722 0.164726,-0.670146 0.175482,-0.667888 0.214351,0.045 0.02251,0.412805 -0.23689,0.96843 -0.576438,1.234722 -0.536925,0.421086 -0.564854,0.415223 -0.214352,-0.045 z m -32.77037,-0.233638 c 0.242534,-0.09787 0.639409,-0.09787 0.881944,0 0.242535,0.09786 0.0441,0.177936 -0.440972,0.177936 -0.485069,0 -0.683507,-0.08007 -0.440972,-0.177936 z m 5.997222,0 c 0.242535,-0.09787 0.63941,-0.09787 0.881944,0 0.242535,0.09786 0.0441,0.177936 -0.440972,0.177936 -0.485069,0 -0.683507,-0.08007 -0.440972,-0.177936 z m 23.967002,-0.02656 c -1.511123,-0.118414 -1.685487,-0.217591 -1.5875,-0.902948 0.06165,-0.431177 0.384747,-0.794513 0.734356,-0.825813 0.437621,-0.03918 0.463991,-0.0062 0.08819,0.110458 -0.294845,0.09149 -0.536081,0.392831 -0.536081,0.669646 0,0.350742 0.421418,0.5033 1.39029,0.5033 0.76466,0 1.488405,0.15875 1.608321,0.352777 0.119916,0.194028 0.168973,0.324164 0.109015,0.289191 -0.05996,-0.03497 -0.872927,-0.123449 -1.806596,-0.196612 z m 16.690636,-0.125607 c 0,-0.175863 0.265314,-0.31975 0.589584,-0.31975 0.324269,0 0.919582,-0.277813 1.322916,-0.617361 0.726821,-0.611879 0.72765,-0.610626 0.09313,0.141218 -0.680121,0.805869 -2.005627,1.33187 -2.005627,0.795893 z M 32.701659,18.71625 c 0.343241,-0.08944 0.819491,-0.08356 1.058333,0.01307 0.238842,0.09663 -0.04199,0.169817 -0.624075,0.162628 -0.582083,-0.0072 -0.7775,-0.08625 -0.434258,-0.175698 z M 58.38738,18.402157 c 0.01693,-0.410966 0.10052,-0.494559 0.213134,-0.213137 0.101907,0.254661 0.08938,0.558932 -0.02783,0.676158 -0.117228,0.117224 -0.200604,-0.09114 -0.185286,-0.463021 z m -35.305629,-0.02077 c 0,-0.189281 0.246882,-0.652302 0.548628,-1.028935 0.517305,-0.645691 0.524647,-0.634434 0.128603,0.197157 -0.514283,1.079864 -0.677231,1.279998 -0.677231,0.831778 z m 4.188334,-0.743583 c -0.43881,-0.559526 -0.426332,-0.572003 0.133193,-0.133193 0.587639,0.460858 0.774516,0.750554 0.484168,0.750554 -0.07326,0 -0.351069,-0.277813 -0.617361,-0.617361 z m 57.350619,0.114355 c 0.376633,-0.30543 1.091008,-0.539077 1.5875,-0.519217 0.829955,0.0332 0.814931,0.0571 -0.186415,0.296483 -0.59902,0.143204 -1.313395,0.376852 -1.5875,0.519217 -0.274105,0.142365 -0.190218,0.0089 0.186415,-0.296483 z m -4.388954,0.01158 c 0,-0.07626 0.246369,-0.233187 0.54749,-0.348738 0.313944,-0.120472 0.455549,-0.06133 0.331957,0.138646 -0.207173,0.335211 -0.879447,0.495811 -0.879447,0.210092 z M 91.697027,17.54961 c -0.976351,-0.248439 -0.990014,-0.272114 -0.176388,-0.305636 0.485069,-0.01999 1.120069,0.117551 1.411111,0.305636 0.600406,0.388013 0.290145,0.388013 -1.234723,0 z M 33.4005,17.296932 c 0.533577,-0.08083 1.406702,-0.08083 1.940278,0 0.533577,0.08083 0.09701,0.146964 -0.970139,0.146964 -1.067152,0 -1.503715,-0.06613 -0.970139,-0.146964 z m 45.706771,0.01169 c 0.254659,-0.101907 0.55893,-0.08937 0.676158,0.02785 0.117225,0.117225 -0.09114,0.200604 -0.463021,0.185286 -0.410968,-0.01693 -0.494559,-0.100521 -0.213137,-0.213136 z m -53.079759,-0.65147 c -0.136347,-0.355316 -0.448944,-0.46292 -0.915051,-0.314984 -0.47018,0.14923 -0.626883,0.09352 -0.466569,-0.165875 0.380915,-0.616333 1.197933,-0.456576 1.610859,0.314983 0.20768,0.388056 0.287659,0.705556 0.177729,0.705556 -0.109931,0 -0.293066,-0.242857 -0.406968,-0.53968 z"
         id="path3787"
         inkscape:connector-curvature="0" />
      <path
         style="fill:#53cceb;stroke-width:0.35277778"
         d="m 81.290083,26.059473 c 0,-0.170271 0.228593,-0.499299 0.50799,-0.731175 0.279392,-0.231876 0.575271,-0.767251 0.65751,-1.189724 0.10951,-0.562551 0.162384,-0.480161 0.19757,0.307842 0.02642,0.591784 -0.142459,1.266472 -0.375292,1.499305 -0.496933,0.496934 -0.987778,0.553458 -0.987778,0.113752 z M 19.201195,25.044012 c -1.016128,-0.462447 -1.112188,-0.589392 -0.542589,-0.717044 0.380673,-0.08531 0.75109,0.02175 0.823148,0.237931 0.07206,0.216174 0.355911,0.393044 0.630784,0.393044 0.274872,0 0.499768,0.15875 0.499768,0.352778 0,0.194028 -0.03969,0.339828 -0.08819,0.324001 -0.04851,-0.01583 -0.64382,-0.281647 -1.322917,-0.59071 z m 3.527778,0.266709 c 0,-0.194028 0.224896,-0.352778 0.499768,-0.352778 0.274873,0 0.580287,-0.198437 0.678699,-0.440972 0.134549,-0.331598 0.269886,-0.309744 0.545645,0.08811 0.276031,0.398247 0.217244,0.5884 -0.237726,0.768955 -0.902141,0.358015 -1.486386,0.333128 -1.486386,-0.06331 z m 55.38611,-0.705555 c 0,-0.194028 0.238125,-0.352778 0.529167,-0.352778 0.291041,0 0.529166,-0.15875 0.529166,-0.352778 0,-0.194028 -0.238125,-0.352778 -0.529166,-0.352778 -0.609815,0 -0.661176,-0.308177 -0.176389,-1.058333 0.227983,-0.352778 0.343775,-0.382176 0.347377,-0.08819 0.0086,0.704959 0.610873,0.509008 0.813174,-0.264584 0.10148,-0.388055 0.04062,-0.705555 -0.135245,-0.705555 -0.175863,0 -0.319751,-0.15875 -0.319751,-0.352778 0,-0.194028 0.238125,-0.352778 0.529167,-0.352778 0.291042,0 0.529167,-0.168119 0.529167,-0.373597 0,-0.205479 -0.156933,-0.276609 -0.348739,-0.158067 -0.201961,0.124821 -0.257905,-0.02117 -0.132923,-0.346868 0.209007,-0.54466 0.897654,-0.605588 0.877295,-0.07762 -0.0055,0.143513 -0.275897,1.171419 -0.600812,2.284236 -0.324912,1.112816 -0.644811,2.221741 -0.710883,2.464275 -0.142222,0.522082 -1.200605,0.599829 -1.200605,0.08819 z m 3.2307,-0.352778 c 0,-0.48507 0.08007,-0.683507 0.177938,-0.440972 0.09786,0.242534 0.09786,0.639409 0,0.881944 -0.09786,0.242535 -0.177938,0.0441 -0.177938,-0.440972 z m 3.241746,-0.0206 c 1.181551,-0.92941 3.86226,-0.857321 4.045518,0.108789 0.10275,0.541696 -0.194561,0.617361 -2.425781,0.617361 h -2.54289 z m 1.994221,0.217804 c 0,-0.08556 -0.15875,-0.253682 -0.352778,-0.373598 -0.194028,-0.119916 -0.352778,-0.04991 -0.352778,0.155569 0,0.205479 0.15875,0.373598 0.352778,0.373598 0.194028,0 0.352778,-0.07001 0.352778,-0.155569 z m 3.241519,-0.210952 c -0.424642,-0.395613 -0.772075,-0.951238 -0.772075,-1.234722 0,-0.580299 0.901252,-0.702214 1.232225,-0.166687 0.123592,0.199976 -0.01803,0.259118 -0.331957,0.138646 -0.664778,-0.2551 -0.725089,0.337165 -0.08816,0.865768 0.496517,0.412075 1.864353,0.193495 2.715669,-0.433964 0.459687,-0.338811 0.465596,-0.308962 0.045,0.227341 -0.418193,0.533233 -0.406174,0.617361 0.08819,0.617361 0.314797,0 0.57236,-0.141766 0.57236,-0.315035 0,-0.173268 0.274077,-0.420208 0.609061,-0.548753 0.442619,-0.169848 0.377609,0.01265 -0.237882,0.667812 -1.049486,1.117127 -2.742533,1.197632 -3.832437,0.182233 z m 7.589369,0.439017 c 0.247748,-0.15748 0.475198,-1.364841 0.547267,-2.905015 l 0.123321,-2.635537 0.07009,2.910417 c 0.06178,2.565124 -0.0032,2.909775 -0.547264,2.905014 -0.419996,-0.0037 -0.481827,-0.09155 -0.193417,-0.274879 z M 21.086796,23.607249 c 0.818848,-0.904817 0.748235,-1.086065 -0.650879,-1.670652 -0.679097,-0.283745 -1.232291,-0.712207 -1.22932,-0.952138 0.0037,-0.301714 0.10265,-0.282611 0.320763,0.06195 0.271605,0.429062 0.383727,0.429062 0.808087,0 0.271,-0.274002 0.597924,-0.775998 0.726499,-1.115547 0.128575,-0.339548 0.397504,-0.617361 0.597622,-0.617361 0.414258,0 0.482865,0.468948 0.121477,0.830335 -0.449198,0.449198 -0.362163,1.811584 0.13915,2.178153 0.418947,0.306342 0.390248,0.487146 -0.182069,1.147033 -0.373676,0.430852 -0.804458,0.783368 -0.957292,0.783368 -0.152834,0 -0.01515,-0.290313 0.305962,-0.645139 z m 5.169955,0.376951 c 0,-0.240552 0.15875,-0.437368 0.352777,-0.437368 0.194028,0 0.352778,-0.15875 0.352778,-0.352777 0,-0.194028 -0.436562,-0.355209 -0.970139,-0.35818 -0.533576,-0.003 -1.208264,-0.159384 -1.499305,-0.347584 -0.372299,-0.240744 0.07216,-0.329966 1.499305,-0.300974 1.11566,0.02267 2.028472,0.10663 2.028472,0.186592 0,0.07996 -0.396875,0.573395 -0.881944,1.096521 -0.485069,0.523125 -0.881944,0.754322 -0.881944,0.51377 z m 7.874026,-1.848479 c 0,-1.26118 0.06403,-1.777118 0.142283,-1.146527 0.07825,0.63059 0.07825,1.662465 0,2.293055 -0.07826,0.63059 -0.142283,0.114653 -0.142283,-1.146528 z m 50.157917,0.705556 c 0.762332,-0.842365 0.754539,-0.840855 1.002623,-0.194355 0.131113,0.341673 0.02663,0.446146 -0.315034,0.315034 -0.281161,-0.107891 -0.5112,-0.02043 -0.5112,0.194355 0,0.214787 -0.183353,0.390521 -0.407455,0.390521 -0.231066,0 -0.131036,-0.305438 0.231066,-0.705555 z M 23.081751,22.488499 c 0,-0.194028 0.15875,-0.352778 0.352777,-0.352778 0.194028,0 0.352778,0.15875 0.352778,0.352778 0,0.194028 -0.15875,0.352778 -0.352778,0.352778 -0.194027,0 -0.352777,-0.15875 -0.352777,-0.352778 z m 62.673218,-0.159846 c -0.101184,-0.26368 0.150111,-0.772146 0.558433,-1.129925 0.408323,-0.357779 0.626375,-0.452069 0.484558,-0.209534 -0.141817,0.242534 -0.08973,0.440972 0.115747,0.440972 0.591703,0 0.435528,0.49716 -0.300585,0.956871 -0.536211,0.334869 -0.711835,0.322921 -0.858153,-0.05838 z m 8.014628,0.231197 c 0.09566,-0.154785 0.02565,-0.511972 -0.155568,-0.79375 -0.274496,-0.426796 -0.381032,-0.43242 -0.638182,-0.03369 -0.195026,0.302403 -0.390673,0.34597 -0.531365,0.118325 -0.122477,-0.198171 -0.02325,-0.453244 0.220486,-0.56683 0.275104,-0.128201 0.305958,-0.274554 0.08136,-0.38592 -0.198998,-0.09867 -0.319931,-0.852733 -0.268742,-1.675695 0.05119,-0.822961 0.0025,-1.297856 -0.108557,-1.055321 -0.110896,0.242534 -0.435892,0.440972 -0.722217,0.440972 -0.286326,0 -0.422477,-0.15875 -0.30256,-0.352778 0.119916,-0.194028 -0.03883,-0.352778 -0.352778,-0.352778 -0.313944,0 -0.481549,0.144424 -0.372452,0.320943 0.326555,0.528379 -0.190148,1.443338 -0.81182,1.437544 -0.434502,-0.004 -0.466224,-0.07735 -0.126696,-0.292787 0.249107,-0.158063 0.356686,-0.538165 0.23907,-0.844672 -0.27917,-0.727506 0.915381,-1.114781 2.513679,-0.814938 1.077133,0.202071 1.737163,0.899466 0.851274,0.899466 -0.194027,0 -0.352777,0.3175 -0.352777,0.705555 0,0.865944 0.694552,0.949466 0.733407,0.08819 0.01531,-0.339549 0.104987,-0.427725 0.199266,-0.195947 0.09428,0.231778 0.01683,0.710285 -0.172134,1.063348 -0.242379,0.452887 -0.197171,0.842122 0.153508,1.321706 0.591792,0.80932 0.635349,1.250476 0.123465,1.250476 -0.205479,0 -0.295328,-0.126642 -0.199665,-0.281427 z M 28.061562,21.341971 c -0.02251,-0.339548 -0.279048,-0.617361 -0.570089,-0.617361 -0.291042,0 -0.529167,-0.15875 -0.529167,-0.352778 0,-0.194027 0.334485,-0.352777 0.743299,-0.352777 0.488812,0 0.679022,-0.167503 0.555561,-0.489238 -0.126125,-0.328674 0.01035,-0.437437 0.415828,-0.331401 0.681234,0.178146 0.836568,1.526194 0.175862,1.526194 -0.235238,0 -0.500305,0.277813 -0.589038,0.617361 -0.153651,0.587963 -0.163282,0.587963 -0.202256,0 z m -3.00179,-0.469825 c -0.300276,-0.782505 -0.277333,-0.853091 0.277291,-0.853091 0.41001,0 0.919688,0.700254 0.919688,1.263575 0,0.416831 -1.012787,0.06951 -1.196979,-0.410484 z m 62.751359,0.293436 c 0.122855,-0.242534 0.05525,-0.440972 -0.150227,-0.440972 -0.205479,0 -0.373599,-0.15875 -0.373599,-0.352778 0,-0.194027 0.238125,-0.352777 0.529167,-0.352777 0.642186,0 0.696295,-1.082578 0.08819,-1.764514 -0.375147,-0.420697 -0.348816,-0.424781 0.176389,-0.02736 0.767105,0.580466 0.794971,1.790786 0.06203,2.694586 -0.305428,0.376634 -0.454812,0.48635 -0.331957,0.243816 z M 22.376195,20.569041 c 0,-0.302492 0.15875,-0.549986 0.352778,-0.549986 0.194028,0 0.352778,0.149381 0.352778,0.331958 0,0.182577 -0.15875,0.43007 -0.352778,0.549986 -0.194028,0.119916 -0.352778,-0.02946 -0.352778,-0.331958 z m 1.411111,-0.902764 c 0,-0.194028 0.15875,-0.352778 0.352778,-0.352778 0.194028,0 0.352778,0.15875 0.352778,0.352778 0,0.194028 -0.15875,0.352778 -0.352778,0.352778 -0.194028,0 -0.352778,-0.15875 -0.352778,-0.352778 z m 71.26111,0.02584 c 0,-0.179816 0.47625,-0.564524 1.058334,-0.854905 0.903308,-0.450631 1.058333,-0.454416 1.058333,-0.02584 0,0.27617 -0.238125,0.502128 -0.529167,0.502128 -0.291041,0 -0.529166,0.15875 -0.529166,0.352778 0,0.194028 -0.238125,0.352778 -0.529167,0.352778 -0.291042,0 -0.529167,-0.147123 -0.529167,-0.326939 z M 23.105627,19.237273 c -0.01313,-0.138938 0.237753,-0.801256 0.557522,-1.471819 0.817657,-1.714645 1.650969,-1.808796 3.223735,-0.364231 0.72058,0.661842 1.111707,1.204108 0.869172,1.205035 -0.242535,9.27e-4 -0.440972,-0.157064 -0.440972,-0.351092 0,-0.194028 -0.15875,-0.352778 -0.352778,-0.352778 -0.194028,0 -0.352778,0.3175 -0.352778,0.705556 0,0.388055 -0.154781,0.705555 -0.343958,0.705555 -0.194028,0 -0.251694,-0.461325 -0.132292,-1.058333 0.182061,-0.910305 0.106814,-1.058333 -0.537986,-1.058333 -0.412309,0 -0.749653,0.15875 -0.749653,0.352777 0,0.194028 -0.213865,0.352778 -0.475257,0.352778 -0.261391,0 -0.647522,0.357188 -0.858068,0.79375 -0.210546,0.436563 -0.393556,0.680073 -0.406687,0.541135 z m 61.535845,-0.276552 c 0.119916,-0.194027 0.288036,-0.352777 0.373599,-0.352777 0.08556,0 0.155568,0.15875 0.155568,0.352777 0,0.194028 -0.16812,0.352778 -0.373599,0.352778 -0.205479,0 -0.275484,-0.15875 -0.155568,-0.352778 z m -6.526389,-0.679688 c 0,-0.179801 -0.277812,-0.399511 -0.617361,-0.488244 -0.339549,-0.08873 0.176389,-0.15813 1.146528,-0.154214 0.970139,0.0039 1.406701,0.07592 0.970139,0.160002 -0.436563,0.08409 -0.79375,0.300592 -0.79375,0.481125 0,0.180533 -0.15875,0.328242 -0.352778,0.328242 -0.194028,0 -0.352778,-0.14711 -0.352778,-0.326911 z m 19.62798,-0.202256 c -0.111682,-0.291042 -0.04929,-0.529167 0.138646,-0.529167 0.187938,0 0.341707,0.238125 0.341707,0.529167 0,0.291042 -0.06239,0.529167 -0.138645,0.529167 -0.07626,0 -0.230022,-0.238125 -0.341708,-0.529167 z M 85.611611,17.659209 c 0.339548,-0.08873 0.895173,-0.08873 1.234722,0 0.339549,0.08873 0.06174,0.161334 -0.617361,0.161334 -0.679097,0 -0.95691,-0.0726 -0.617361,-0.161334 z"
         id="path3785"
         inkscape:connector-curvature="0" />
      <path
         style="fill:#37cef0;stroke-width:0.35277778"
         d="m 20.612306,25.310721 c 0,-0.194028 -0.238125,-0.352778 -0.529167,-0.352778 -0.291041,0 -0.529166,-0.15875 -0.529166,-0.352777 0,-0.194028 0.338567,-0.352778 0.752371,-0.352778 0.413803,0 1.058106,-0.352516 1.431782,-0.783368 0.572317,-0.659887 0.601016,-0.840691 0.182069,-1.147033 -0.570265,-0.416988 -0.560724,-2.02282 0.01316,-2.214114 0.210975,-0.07033 0.45173,0.158734 0.535011,0.50902 0.166099,0.698619 0.06749,0.863695 1.042034,-1.744366 0.19938,-0.533576 0.581375,-0.970139 0.848877,-0.970139 0.267502,0 0.486367,-0.15875 0.486367,-0.352778 0,-0.194027 0.337344,-0.352777 0.749653,-0.352777 0.6448,0 0.720047,0.148028 0.537986,1.058333 -0.119402,0.597008 -0.06174,1.058333 0.132292,1.058333 0.189177,0 0.343958,-0.3175 0.343958,-0.705555 0,-0.905337 0.285222,-0.891406 1.105149,0.05398 0.846419,0.975929 0.833269,1.357133 -0.04681,1.357133 -0.388056,0 -0.705556,0.15875 -0.705556,0.352777 0,0.194028 0.238125,0.352778 0.529167,0.352778 0.293981,0 0.529166,0.313581 0.529166,0.705556 0,0.741981 -0.239933,0.807804 -2.645833,0.725852 -1.062573,-0.03619 -1.280409,0.04116 -0.881944,0.313194 0.291041,0.198693 0.965729,0.363692 1.499305,0.366663 0.533577,0.003 0.970139,0.105994 0.970139,0.22894 0,0.278468 -1.854716,1.89211 -2.175463,1.892698 -0.129352,2.36e-4 -0.327789,-0.198007 -0.440972,-0.440542 -0.16463,-0.352778 -0.246945,-0.352778 -0.411574,0 -0.113183,0.242535 -0.430683,0.440972 -0.705556,0.440972 -0.274872,0 -0.499768,0.15875 -0.499768,0.352778 0,0.194028 -0.47625,0.352778 -1.058334,0.352778 -0.582083,0 -1.058333,-0.15875 -1.058333,-0.352778 z m 3.175,-2.822222 c 0,-0.194028 -0.15875,-0.352778 -0.352778,-0.352778 -0.194027,0 -0.352777,0.15875 -0.352777,0.352778 0,0.194028 0.15875,0.352778 0.352777,0.352778 0.194028,0 0.352778,-0.15875 0.352778,-0.352778 z m 2.469445,-1.205869 c 0,-0.563321 -0.509678,-1.263575 -0.919688,-1.263575 -0.554624,0 -0.577567,0.07059 -0.277291,0.853091 0.184192,0.479997 1.196979,0.827315 1.196979,0.410484 z m -1.763889,-1.616353 c 0,-0.194028 -0.15875,-0.352778 -0.352778,-0.352778 -0.194028,0 -0.352778,0.15875 -0.352778,0.352778 0,0.194028 0.15875,0.352778 0.352778,0.352778 0.194028,0 0.352778,-0.15875 0.352778,-0.352778 z m 57.149999,4.586111 c 0,-0.388056 0.15875,-0.705556 0.352778,-0.705556 0.194027,0 0.352777,0.3175 0.352777,0.705556 0,0.388055 -0.15875,0.705555 -0.352777,0.705555 -0.194028,0 -0.352778,-0.3175 -0.352778,-0.705555 z m 2.116667,-0.01603 c 0,-0.536668 1.764756,-2.217357 2.039637,-1.942476 0.12814,0.128142 0.01602,0.367082 -0.249177,0.530978 -0.271382,0.167724 -0.384345,0.552893 -0.258407,0.881086 0.123063,0.320701 0.07779,0.492883 -0.100608,0.382627 -0.178396,-0.110256 -0.424074,-0.03913 -0.545945,0.158066 -0.289687,0.468725 -0.8855,0.461808 -0.8855,-0.01028 z m 2.116666,-0.0048 c 0,-0.205479 0.15875,-0.275485 0.352778,-0.155569 0.194028,0.119915 0.352778,0.288034 0.352778,0.373597 0,0.08556 -0.15875,0.155567 -0.352778,0.155567 -0.194028,0 -0.352778,-0.168119 -0.352778,-0.373598 z M 97.165083,22.31211 c 0,-1.803086 -0.113069,-2.293055 -0.529167,-2.293055 -0.291041,0 -0.529166,-0.15875 -0.529166,-0.352778 0,-0.194028 0.238125,-0.352778 0.529166,-0.352778 0.293981,0 0.529167,-0.31358 0.529167,-0.705555 0,-0.775311 0.551155,-0.966301 0.763531,-0.264584 0.260495,0.860703 -0.116971,6.261806 -0.437617,6.261806 -0.179254,0 -0.325914,-1.031875 -0.325914,-2.293056 z m -19.05,1.5875 c 0,-0.194028 0.238125,-0.352778 0.529167,-0.352778 0.291041,0 0.529166,0.15875 0.529166,0.352778 0,0.194028 -0.238125,0.352778 -0.529166,0.352778 -0.291042,0 -0.529167,-0.15875 -0.529167,-0.352778 z m 11.63459,-0.184914 c -0.245435,-0.29573 -0.348082,-0.635853 -0.22811,-0.755827 0.256219,-0.256218 1.29352,0.532821 1.29352,0.983937 0,0.485933 -0.574975,0.362827 -1.06541,-0.22811 z m 2.758743,0.114359 c 0.232834,-0.232834 0.423334,-0.867834 0.423334,-1.411111 0,-0.752593 -0.16799,-0.987778 -0.705556,-0.987778 -0.388055,0 -0.705555,-0.15875 -0.705555,-0.352778 0,-0.194028 0.259192,-0.352778 0.57598,-0.352778 0.683489,0 1.961208,1.368874 1.688934,1.809425 -0.10444,0.168983 0.0082,0.307242 0.250229,0.307242 0.245904,0 0.105928,0.311347 -0.317207,0.705555 -0.832933,0.775998 -1.968839,1.040903 -1.210159,0.282223 z M 78.820639,22.135721 c 0,-0.388055 0.223262,-0.705555 0.496139,-0.705555 0.322457,0 0.43155,0.246993 0.311634,0.705555 -0.10148,0.388056 -0.324743,0.705556 -0.49614,0.705556 -0.171397,0 -0.311633,-0.3175 -0.311633,-0.705556 z M 19.553973,21.077388 c 0,-0.194028 0.15875,-0.352778 0.352778,-0.352778 0.194027,0 0.352777,0.15875 0.352777,0.352778 0,0.194028 -0.15875,0.352778 -0.352777,0.352778 -0.194028,0 -0.352778,-0.15875 -0.352778,-0.352778 z m 67.204166,0 c 0.119916,-0.194028 0.456152,-0.352778 0.747194,-0.352778 0.291041,0 0.431055,0.15875 0.311139,0.352778 -0.119916,0.194028 -0.456152,0.352778 -0.747194,0.352778 -0.291042,0 -0.431056,-0.15875 -0.311139,-0.352778 z m -7.055556,-0.705556 c 0.119916,-0.194027 0.288036,-0.352777 0.373599,-0.352777 0.08556,0 0.155568,0.15875 0.155568,0.352777 0,0.194028 -0.16812,0.352778 -0.373599,0.352778 -0.205479,0 -0.275484,-0.15875 -0.155568,-0.352778 z m 4.068163,-0.764351 c 0.0062,-0.258704 0.222109,-0.748183 0.479866,-1.087732 0.548534,-0.722606 3.012888,-0.852833 3.671693,-0.194028 0.595785,0.595785 0.527188,1.693334 -0.105833,1.693334 -0.299149,0 -0.529167,-0.315947 -0.529167,-0.726851 0,-0.624197 -0.186838,-0.711388 -1.322916,-0.617361 -0.854629,0.07073 -1.322917,0.286398 -1.322917,0.609258 0,0.274873 -0.198438,0.565914 -0.440972,0.646759 -0.242535,0.08085 -0.435924,-0.06468 -0.429754,-0.323379 z m 9.161004,-0.293982 c 0,-0.388055 0.15875,-0.705555 0.352777,-0.705555 0.194028,0 0.352778,0.3175 0.352778,0.705555 0,0.388056 -0.15875,0.705556 -0.352778,0.705556 -0.194027,0 -0.352777,-0.3175 -0.352777,-0.705556 z M 80.380103,19.191261 c -0.123112,-0.320825 -0.524354,-0.583317 -0.891652,-0.583317 -0.367295,0 -0.667812,-0.15875 -0.667812,-0.352778 0,-0.194028 0.635,-0.352778 1.411111,-0.352778 1.52939,0 1.657226,0.174337 0.880431,1.200678 -0.458195,0.605393 -0.530278,0.614077 -0.732078,0.0882 z m 9.023869,-0.23054 c 0,-0.194027 0.15875,-0.352777 0.352778,-0.352777 0.194027,0 0.352777,0.15875 0.352777,0.352777 0,0.194028 -0.15875,0.352778 -0.352777,0.352778 -0.194028,0 -0.352778,-0.15875 -0.352778,-0.352778 z M 77.233139,18.255166 c -0.119916,-0.194028 0.02946,-0.352778 0.331957,-0.352778 0.302492,0 0.549987,0.15875 0.549987,0.352778 0,0.194028 -0.14938,0.352778 -0.331957,0.352778 -0.182576,0 -0.430071,-0.15875 -0.549987,-0.352778 z m 13.405555,0 c -0.119916,-0.194028 0.03883,-0.352778 0.352778,-0.352778 0.313944,0 0.472694,0.15875 0.352778,0.352778 -0.119917,0.194028 -0.278667,0.352778 -0.352778,0.352778 -0.07411,0 -0.232862,-0.15875 -0.352778,-0.352778 z"
         id="path3783"
         inkscape:connector-curvature="0" />
      <path
         style="fill:#2284ac;stroke-width:0.35277778"
         d="m 34.516897,24.556413 c -0.140399,-0.227172 -0.107351,-0.321619 0.07344,-0.209883 0.189744,0.117268 0.36077,-0.927385 0.404538,-2.470987 0.102459,-3.613455 0.434096,-3.745023 0.434096,-0.172216 0,2.705243 -0.34209,3.775342 -0.912076,2.853086 z m 4.616242,0.04875 c -0.379892,-0.614679 0.183193,-1.139078 0.733078,-0.682714 0.271632,0.225434 0.40688,0.550643 0.300552,0.722686 -0.257344,0.416391 -0.763684,0.39681 -1.03363,-0.03997 z m 0.881945,-0.155569 c 0,-0.08556 -0.15875,-0.253682 -0.352778,-0.373598 -0.194028,-0.119916 -0.352778,-0.04991 -0.352778,0.155569 0,0.205479 0.15875,0.373598 0.352778,0.373598 0.194028,0 0.352778,-0.07001 0.352778,-0.155569 z m 3.108854,0.267359 c 0.254661,-0.101907 0.558932,-0.08937 0.676157,0.02785 0.117225,0.117225 -0.09113,0.200604 -0.463021,0.185286 -0.410966,-0.01693 -0.494559,-0.100521 -0.213136,-0.213136 z m 5.117144,0.01129 c 0.126336,-0.126336 -0.03046,-0.419938 -0.348441,-0.652449 -0.483888,-0.353828 -0.397311,-0.396208 0.53105,-0.259954 0.610056,0.08954 1.022069,0.303765 0.915584,0.476061 -0.25642,0.414896 0.07678,0.395589 1.01775,-0.05897 0.744354,-0.359581 0.747272,-0.353583 0.08577,0.176389 -0.644131,0.516055 -2.696075,0.813287 -2.201714,0.318926 z m 4.634357,-0.636207 c -0.97645,-0.97645 -1.262543,-3.242335 -0.36594,-2.898276 0.274983,0.105521 0.594286,-0.05392 0.709556,-0.354313 0.149634,-0.389938 0.05183,-0.485634 -0.341905,-0.334543 -0.303319,0.116394 -0.466764,0.07454 -0.363213,-0.09301 0.103554,-0.167552 0.606104,-0.30464 1.116778,-0.30464 0.510674,0 1.081281,-0.218281 1.268014,-0.48507 0.264138,-0.377377 0.379401,-0.386679 0.519176,-0.0419 0.09881,0.243744 0.306867,0.364554 0.462336,0.268468 0.155473,-0.09609 0.499099,0.101362 0.763619,0.438774 0.417163,0.53212 0.410771,0.561337 -0.04822,0.22031 -0.702769,-0.522152 -2.537111,-0.247153 -3.075506,0.461072 -0.568512,0.747841 -0.207758,1.266037 0.732741,1.052529 0.415395,-0.0943 1.072765,-0.03895 1.460821,0.123009 0.55131,0.230092 0.40314,0.299887 -0.677778,0.319262 -0.822375,0.01474 -1.644943,-0.21196 -2.028472,-0.559048 -0.608902,-0.551048 -0.645139,-0.533544 -0.645139,0.311633 0,0.603012 0.233743,0.956601 0.71568,1.082631 0.393626,0.102935 0.671438,0.394183 0.617361,0.647218 -0.0596,0.278912 0.387858,0.550403 1.136403,0.689494 l 1.234722,0.229431 -1.162561,0.04644 c -0.806284,0.03221 -1.427932,-0.218928 -2.028472,-0.819468 z m 6.807006,0.632271 c 0.242534,-0.09786 0.639409,-0.09786 0.881944,0 0.242535,0.09787 0.0441,0.177937 -0.440972,0.177937 -0.48507,0 -0.683507,-0.08007 -0.440972,-0.177937 z M 46.796811,24.190226 c -0.303009,-0.303008 -0.310389,-0.540915 -0.02736,-0.881944 0.297666,-0.358665 0.234339,-0.472193 -0.272977,-0.489366 -0.527947,-0.01787 -0.489571,-0.09072 0.191161,-0.362854 0.468445,-0.18727 1.02407,-0.269116 1.234722,-0.181878 0.210653,0.08724 0.09582,0.171146 -0.255176,0.186464 -0.350999,0.01532 -0.546848,0.175632 -0.435218,0.356253 0.11163,0.18062 0.03392,0.432878 -0.172699,0.560573 -0.261232,0.16145 -0.249827,0.383795 0.03744,0.729932 0.499805,0.602228 0.280169,0.662883 -0.299894,0.08282 z m 9.645119,-0.04125 c 0.132479,-0.347917 0.329738,-0.543709 0.438355,-0.435093 0.108617,0.108616 2.26e-4,0.393275 -0.24087,0.632576 -0.34841,0.345817 -0.38893,0.305295 -0.197485,-0.197483 z M 43.190084,23.643605 c 0,-0.270154 -0.147781,-0.399857 -0.328402,-0.288227 -0.180621,0.11163 -0.417834,0.05826 -0.52714,-0.118603 -0.109307,-0.176862 0.02534,-0.407553 0.299206,-0.512646 0.273869,-0.105094 0.592336,0.0549 0.707703,0.355543 0.163914,0.427152 0.318437,0.456429 0.706997,0.133952 0.403069,-0.334517 0.464209,-0.286367 0.322834,0.254251 -0.200575,0.767 -1.181198,0.912891 -1.181198,0.17573 z m 11.200694,0.375145 c 0.242535,-0.09787 0.63941,-0.09787 0.881944,0 0.242535,0.09786 0.0441,0.177936 -0.440972,0.177936 -0.485069,0 -0.683507,-0.08007 -0.440972,-0.177936 z m 4.686109,-0.357497 c 0.380986,-0.611829 0.553495,-0.673732 0.850428,-0.305164 0.204868,0.254297 0.610616,0.547462 0.901657,0.651478 0.428128,0.153009 0.415266,0.194437 -0.06737,0.21697 -0.328098,0.01532 -0.699421,-0.138608 -0.825158,-0.342057 -0.153624,-0.248566 -0.410489,-0.219636 -0.78305,0.08819 -0.495674,0.40955 -0.503781,0.376756 -0.0765,-0.309421 z M 39.736591,22.700469 c 0.250185,-0.271472 0.510466,-0.440784 0.578402,-0.376249 0.209249,0.198776 -0.321077,0.869835 -0.687416,0.869835 -0.190227,0 -0.14117,-0.222114 0.109014,-0.493586 z M 38.112549,21.93048 c -0.27961,-0.728653 -0.270337,-0.853092 0.06357,-0.853092 0.152738,0 0.301622,0.3175 0.330853,0.705556 0.06388,0.84803 -0.101835,0.910016 -0.394426,0.147536 z m 2.430991,-0.149775 c -0.132055,-0.416068 -0.14623,-0.850358 -0.0315,-0.965088 0.11473,-0.11473 0.211031,0.09567 0.214002,0.467558 0.0044,0.554219 0.06459,0.58257 0.333596,0.157207 0.180507,-0.285422 0.403221,-0.443923 0.494921,-0.352223 0.0917,0.0917 -0.04424,0.455246 -0.302096,0.807881 -0.446405,0.610495 -0.480303,0.60498 -0.708923,-0.115335 z m 7.93821,0.334196 c 0,-0.205478 0.15875,-0.275484 0.352778,-0.155569 0.194028,0.119916 0.352778,0.288035 0.352778,0.373598 0,0.08556 -0.15875,0.155569 -0.352778,0.155569 -0.194028,0 -0.352778,-0.168119 -0.352778,-0.373598 z m 7.978507,-0.175917 c -0.115122,-0.300005 -0.06594,-0.456854 0.109291,-0.348554 0.175235,0.1083 0.399009,-0.0025 0.497275,-0.246261 0.111065,-0.275484 0.189209,-0.217452 0.20652,0.153371 0.0375,0.803294 -0.551515,1.123086 -0.813086,0.441444 z m 2.957604,0.22559 c 0,-0.178158 -0.09636,-0.575033 -0.214132,-0.881944 -0.117772,-0.306911 -0.07302,-0.55802 0.09944,-0.55802 0.17247,0 0.346424,0.396875 0.38657,0.881945 0.04015,0.485069 -0.0046,0.881944 -0.09944,0.881944 -0.09484,0 -0.172438,-0.145766 -0.172438,-0.323925 z M 50.82362,21.606555 c 0.111686,-0.291042 0.265451,-0.529167 0.341707,-0.529167 0.07625,0 0.138645,0.238125 0.138645,0.529167 0,0.291041 -0.153768,0.529166 -0.341707,0.529166 -0.187936,0 -0.250328,-0.238125 -0.138645,-0.529166 z m -3.953333,-0.05806 c 0.112612,-0.225963 0.0053,-0.477959 -0.238422,-0.559992 -0.347792,-0.11705 -0.339662,-0.274548 0.03777,-0.731802 0.26452,-0.320458 0.621707,-0.495656 0.79375,-0.389327 0.172043,0.106328 0.312806,0.0252 0.312806,-0.180273 0,-0.205479 0.277812,-0.371167 0.617361,-0.368196 0.499508,0.0044 0.522263,0.0656 0.1192,0.320748 -0.403088,0.255162 -0.369424,0.345854 0.176389,0.475205 0.468331,0.110989 0.431889,0.135737 -0.1192,0.08095 -0.436563,-0.0434 -0.79375,0.02748 -0.79375,0.157521 0,0.130038 -0.249898,0.544586 -0.555328,0.921219 -0.30543,0.376633 -0.463191,0.499909 -0.35058,0.273946 z m 3.201105,-0.789204 c 0.181257,-0.31779 0.04959,-0.664458 -0.36845,-0.970139 -0.357769,-0.261607 -0.480835,-0.475649 -0.27348,-0.475649 0.207354,0 0.580218,0.244853 0.828584,0.544118 0.367341,0.442617 0.365743,0.623589 -0.0086,0.970139 -0.365021,0.337959 -0.401835,0.323806 -0.178097,-0.06847 z M 37.722028,20.371832 c 0.119916,-0.194027 0.288035,-0.352777 0.373598,-0.352777 0.08556,0 0.155569,0.15875 0.155569,0.352777 0,0.194028 -0.168119,0.352778 -0.373598,0.352778 -0.205478,0 -0.275485,-0.15875 -0.155569,-0.352778 z m 3.004013,-0.243763 c -0.0085,-0.660363 0.71951,-0.939827 1.171864,-0.449855 0.31735,0.343741 0.30146,0.38246 -0.07018,0.17101 -0.284531,-0.161889 -0.60597,-0.07511 -0.788348,0.212829 -0.202456,0.31964 -0.309784,0.342253 -0.313336,0.06602 z m 4.302217,-0.320984 c -0.250184,-0.271472 -0.299241,-0.493586 -0.109014,-0.493586 0.366339,0 0.896665,0.671059 0.687415,0.869834 -0.06794,0.06454 -0.328216,-0.104776 -0.578401,-0.376248 z m 14.207443,0.100063 c -0.150361,-0.364703 -0.09202,-0.813354 0.135318,-1.040695 0.297642,-0.297642 0.39962,-0.291591 0.39962,0.02371 0,0.232833 0.291042,0.423333 0.646758,0.423333 0.35572,0 0.646762,0.229551 0.646762,0.510112 0,0.376798 -0.16159,0.423633 -0.618303,0.179207 -0.426615,-0.228318 -0.669072,-0.195069 -0.782073,0.10725 -0.108293,0.289714 -0.25332,0.220969 -0.428082,-0.20292 z m -21.40343,-0.481859 c 0.254662,-0.101907 0.558932,-0.08937 0.676158,0.02785 0.117225,0.117226 -0.09114,0.200604 -0.463021,0.185286 -0.410966,-0.01693 -0.494559,-0.100521 -0.213137,-0.213136 z m -4.167187,-0.817345 c -0.317956,-0.205479 -0.361468,-0.34413 -0.109015,-0.347376 0.231084,-0.003 0.518266,0.153348 0.638181,0.347376 0.270689,0.437982 0.148563,0.437982 -0.529166,0 z m -1.532569,-0.545107 c 0.107464,-0.280046 0.337504,-0.421342 0.511201,-0.313992 0.437481,0.270378 0.397213,0.399598 -0.195388,0.627 -0.340997,0.130853 -0.446146,0.02663 -0.315813,-0.313008 z m 2.667104,-0.04762 c -0.52426,-0.412728 -0.373023,-0.452259 1.128785,-0.295042 1.680373,0.175909 2.604981,0.504557 1.587837,0.564389 -0.274873,0.01617 -0.862352,0.06941 -1.305511,0.118317 -0.443158,0.0489 -1.078158,-0.125544 -1.411111,-0.387664 z"
         id="path3781"
         inkscape:connector-curvature="0" />
      <path
         style="fill:#1c77a4;stroke-width:0.35277778"
         d="m 34.543347,24.164193 c -0.08686,-0.242534 -0.200941,-1.631597 -0.253512,-3.086805 -0.09526,-2.636935 -0.09876,-2.645506 -1.039219,-2.548441 -0.518999,0.05357 -1.043182,-0.06368 -1.164851,-0.260543 -0.134496,-0.21762 0.01609,-0.266871 0.384145,-0.125636 0.410714,0.157606 0.523343,0.09959 0.350281,-0.180429 -0.339998,-0.550129 1.268092,-0.553974 1.817719,-0.0043 0.272714,0.272714 0.559844,0.293448 0.864306,0.06241 0.250758,-0.190283 0.850797,-0.367028 1.33342,-0.392766 0.60293,-0.03216 0.728419,0.04534 0.401054,0.247661 -0.399255,0.246753 -0.398535,0.325694 0.0044,0.487269 0.264489,0.106047 -0.0311,0.146546 -0.656876,0.09 -1.373821,-0.124144 -1.49996,0.163317 -1.596039,3.637244 -0.06971,2.520459 -0.150391,2.896661 -0.444877,2.074381 z m 4.444425,-0.542468 c -0.230103,-0.555517 -0.444373,-1.35525 -0.476157,-1.777184 -0.03178,-0.421934 -0.177773,-0.767153 -0.324421,-0.767153 -0.146648,0 -0.165263,-0.264167 -0.04136,-0.587038 0.151467,-0.394718 0.09005,-0.503471 -0.187461,-0.331958 -0.227001,0.140294 -0.412729,0.08696 -0.412729,-0.118517 0,-0.205479 0.222292,-0.373598 0.493981,-0.373598 0.301776,0 0.660151,0.692681 0.921055,1.78025 0.515238,2.147752 1.056338,2.105235 1.688409,-0.132665 0.492637,-1.744223 0.903085,-2.041702 1.421454,-1.030224 0.526337,1.027028 0.800998,2.557639 0.458955,2.557639 -0.17669,0 -0.420864,-0.396875 -0.542609,-0.881945 -0.336152,-1.339336 -0.821768,-1.061412 -1.3378,0.765641 -0.557532,1.973988 -1.094947,2.264078 -1.661312,0.896752 z m 3.726296,0.465572 c -0.109299,-0.284828 -0.04691,-0.611697 0.138645,-0.726376 0.185554,-0.114678 0.337371,0.04836 0.337371,0.3623 0,0.313944 0.15875,0.472694 0.352777,0.352778 0.194028,-0.119916 0.352778,-0.04991 0.352778,0.155569 0,0.564346 -0.954366,0.447817 -1.181571,-0.144271 z m 4.178225,-0.18985 C 46.540031,23.508202 46.3551,23.086445 46.481336,22.96021 c 0.126236,-0.126236 0.620391,0.192237 1.098122,0.707718 0.516034,0.55681 0.682843,0.937238 0.410957,0.937238 -0.251705,0 -0.74586,-0.318474 -1.098122,-0.707719 z m 2.803411,0.167333 c 0.376633,-0.284872 0.852883,-0.512899 1.058334,-0.506728 0.20545,0.0062 0.06539,0.244296 -0.311242,0.529166 -0.376633,0.284872 -0.852883,0.512899 -1.058333,0.506728 -0.20545,-0.0062 -0.06539,-0.244295 0.311241,-0.529166 z m 3.569314,0.0097 c -0.820092,-0.63187 -0.560109,-0.677865 0.66819,-0.118216 0.684201,0.311744 1.116481,0.310104 1.812177,-0.0069 0.725297,-0.330467 0.883299,-0.32396 0.76648,0.03157 -0.212972,0.648159 -2.443604,0.712411 -3.246847,0.09352 z m 5.66142,-0.0273 c -0.117775,-0.306913 -0.214132,-1.227663 -0.214132,-2.046113 0,-0.81845 -0.1905,-1.678591 -0.423334,-1.911425 -0.329258,-0.329259 -0.329258,-0.423333 0,-0.423333 0.232834,0 0.423334,-0.291042 0.423334,-0.646759 0,-0.779876 0.334659,-1.169967 0.771892,-0.899743 0.181744,0.112324 0.143323,0.411934 -0.08868,0.691472 -0.225157,0.271297 -0.303699,0.768652 -0.17454,1.105234 0.133777,0.348613 0.340526,0.464407 0.480437,0.269076 0.245079,-0.342152 1.48033,-0.580255 1.48033,-0.285342 0,0.08555 -0.47625,0.321564 -1.058333,0.524479 -0.582084,0.202916 -1.058334,0.521527 -1.058334,0.708024 0,0.186498 0.12747,0.260306 0.283267,0.164018 0.333498,-0.206112 0.252783,1.668153 -0.09615,2.232741 -0.131759,0.213188 -0.108698,0.358882 0.05125,0.323765 0.159942,-0.03512 0.68768,0.109637 1.17275,0.321676 0.881517,0.385339 0.881408,0.385536 -0.22684,0.407887 -0.701072,0.01414 -1.187524,-0.182829 -1.322917,-0.535659 z m -15.21614,-1.205871 c 0.554566,-1.982255 1.048398,-3.175 1.314543,-3.175 0.381888,0 0.350619,0.301352 -0.193346,1.863416 -0.557797,1.601782 -1.515965,2.722654 -1.121197,1.311584 z m 8.715737,-0.921713 c 0.04721,-0.70097 0.289394,-1.352604 0.538194,-1.448077 0.248797,-0.09547 0.375744,-0.297548 0.282106,-0.449058 -0.09364,-0.15151 0.224772,-0.350986 0.707581,-0.443281 0.482808,-0.09229 0.877834,-0.03107 0.877834,0.136049 0,0.167122 -0.229122,0.303858 -0.509164,0.303858 -0.571585,0 -1.666607,1.38285 -1.41605,1.788261 0.08911,0.144192 0.519056,0.195936 0.955428,0.114986 0.581011,-0.107783 0.533111,-0.04363 -0.178939,0.239638 -0.534787,0.212752 -0.882605,0.532012 -0.772929,0.709468 0.109671,0.177456 0.02632,0.322647 -0.185244,0.322647 -0.222539,0 -0.348474,-0.537135 -0.298817,-1.274491 z M 46.27016,21.755055 c 0.09747,-0.372717 0.326817,-0.677667 0.509666,-0.677667 0.182849,0 0.23434,0.15875 0.114424,0.352778 -0.123656,0.200081 0.172726,0.352778 0.684736,0.352778 1.346669,0 1.08819,0.519632 -0.29322,0.589472 -1.016111,0.05137 -1.166567,-0.04009 -1.015606,-0.617361 z m 2.686772,0.292472 c -0.09022,-0.145521 0.162825,-0.264583 0.562332,-0.264583 0.399505,0 0.726375,-0.218687 0.726375,-0.485971 0,-0.738012 -0.967432,-1.38398 -1.761659,-1.176284 -0.388895,0.101698 -0.812067,0.0014 -0.940382,-0.222948 -0.128315,-0.224319 -0.1076,-0.294376 0.04603,-0.155682 0.153633,0.138694 0.572321,0.09537 0.930419,-0.09628 0.493963,-0.264362 0.816209,-0.183327 1.335328,0.335791 0.376333,0.376334 0.78176,0.586727 0.900946,0.46754 0.119186,-0.119186 0.179454,0.272112 0.133932,0.86955 -0.06876,0.90234 -0.225542,1.078397 -0.926024,1.039851 -0.463791,-0.02552 -0.917075,-0.165464 -1.0073,-0.310985 z m 6.756763,0.06991 c -0.672522,-0.271568 -0.668747,-0.286067 0.08063,-0.309701 0.706131,-0.02227 0.74578,-0.113478 0.389386,-0.895678 -0.218239,-0.478985 -0.556863,-0.771957 -0.7525,-0.651048 -0.212167,0.131128 -0.245254,0.04113 -0.08199,-0.223035 0.206259,-0.333737 0.452166,-0.26441 0.997917,0.28134 0.939934,0.939937 0.479319,2.247461 -0.633443,1.798122 z"
         id="path3779"
         inkscape:connector-curvature="0" />
    </g>
  </g>
</svg>
